G75*
G70*
%OFA0B0*%
%FSLAX24Y24*%
%IPPOS*%
%LPD*%
%AMOC8*
5,1,8,0,0,1.08239X$1,22.5*
%
%ADD10R,0.1419X0.0501*%
%ADD11C,0.1025*%
%ADD12R,0.0580X0.0300*%
%ADD13R,0.0300X0.0580*%
%ADD14R,0.0434X0.0356*%
%ADD15C,0.0395*%
%ADD16C,0.0252*%
%ADD17R,0.0493X0.0592*%
%ADD18R,0.0356X0.0434*%
%ADD19C,0.0360*%
%ADD20C,0.0552*%
D10*
X007145Y000350D03*
D11*
X004686Y004180D03*
X003616Y006013D03*
X008797Y004385D03*
X009265Y008053D03*
D12*
X008421Y007342D03*
X008421Y007027D03*
X008421Y006712D03*
X008421Y006397D03*
X008421Y006082D03*
X008421Y005767D03*
X008421Y005452D03*
X008421Y005137D03*
X005041Y005137D03*
X005041Y005452D03*
X005041Y005767D03*
X005041Y006082D03*
X005041Y006397D03*
X005041Y006712D03*
X005041Y007027D03*
X005041Y007342D03*
D13*
X005629Y007930D03*
X005944Y007930D03*
X006259Y007930D03*
X006574Y007930D03*
X006889Y007930D03*
X007204Y007930D03*
X007519Y007930D03*
X007834Y007930D03*
X007834Y004550D03*
X007519Y004550D03*
X007204Y004550D03*
X006889Y004550D03*
X006574Y004550D03*
X006259Y004550D03*
X005944Y004550D03*
X005629Y004550D03*
D14*
X004446Y004988D03*
X004446Y005500D03*
X004458Y005893D03*
X004458Y006404D03*
X004283Y006745D03*
X003835Y006750D03*
X003414Y006746D03*
X003414Y007257D03*
X003835Y007262D03*
X004100Y007621D03*
X004283Y007257D03*
X004520Y007631D03*
X005110Y007694D03*
X004520Y008142D03*
X004100Y008132D03*
X005110Y008206D03*
X005506Y008881D03*
X005932Y008878D03*
X006354Y008873D03*
X006785Y008872D03*
X006785Y009384D03*
X006354Y009385D03*
X005932Y009390D03*
X005506Y009393D03*
X007605Y009481D03*
X008028Y009292D03*
X007605Y008969D03*
X008028Y008780D03*
X007894Y004059D03*
X007420Y004048D03*
X007420Y003536D03*
X007894Y003547D03*
D15*
X005119Y003561D03*
X005494Y003389D03*
X005893Y003231D03*
X003908Y004486D03*
X003738Y004875D03*
X003535Y005230D03*
D16*
X005422Y008451D02*
X005450Y008451D01*
X005422Y008451D02*
X005422Y008579D01*
X005450Y008579D01*
X005450Y008451D01*
X005772Y008451D02*
X005800Y008451D01*
X005772Y008451D02*
X005772Y008579D01*
X005800Y008579D01*
X005800Y008451D01*
X005158Y008759D02*
X005130Y008759D01*
X005158Y008759D02*
X005158Y008631D01*
X005130Y008631D01*
X005130Y008759D01*
X004808Y008759D02*
X004780Y008759D01*
X004808Y008759D02*
X004808Y008631D01*
X004780Y008631D01*
X004780Y008759D01*
X007121Y008937D02*
X007121Y008965D01*
X007249Y008965D01*
X007249Y008937D01*
X007121Y008937D01*
X007217Y008619D02*
X007245Y008619D01*
X007245Y008491D01*
X007217Y008491D01*
X007217Y008619D01*
X007567Y008619D02*
X007595Y008619D01*
X007595Y008491D01*
X007567Y008491D01*
X007567Y008619D01*
X008375Y008696D02*
X008403Y008696D01*
X008375Y008696D02*
X008375Y008824D01*
X008403Y008824D01*
X008403Y008696D01*
X008725Y008696D02*
X008753Y008696D01*
X008725Y008696D02*
X008725Y008824D01*
X008753Y008824D01*
X008753Y008696D01*
X007121Y009287D02*
X007121Y009315D01*
X007249Y009315D01*
X007249Y009287D01*
X007121Y009287D01*
X009382Y007224D02*
X009410Y007224D01*
X009382Y007224D02*
X009382Y007352D01*
X009410Y007352D01*
X009410Y007224D01*
X009732Y007224D02*
X009760Y007224D01*
X009732Y007224D02*
X009732Y007352D01*
X009760Y007352D01*
X009760Y007224D01*
D17*
X009834Y006765D03*
X009105Y006765D03*
X009105Y005860D03*
X009834Y005860D03*
D18*
X009711Y005292D03*
X009199Y005292D03*
X008937Y009158D03*
X008426Y009158D03*
X007870Y009862D03*
X007358Y009862D03*
D19*
X005108Y009081D03*
X005830Y007407D03*
X006658Y007347D03*
X008377Y007690D03*
X008371Y008055D03*
X007768Y005173D03*
X007412Y005148D03*
X007060Y005143D03*
X006739Y005019D03*
X006385Y005011D03*
X005844Y005034D03*
X004978Y004825D03*
X003897Y005330D03*
X003055Y007005D03*
D20*
X003383Y007864D03*
X003665Y008429D03*
X004062Y008953D03*
X004576Y009337D03*
X005050Y009666D03*
X005606Y009907D03*
X006213Y010020D03*
X006879Y010067D03*
X006996Y003173D03*
X006422Y003173D03*
M02*
