G75*
G70*
%OFA0B0*%
%FSLAX24Y24*%
%IPPOS*%
%LPD*%
%AMOC8*
5,1,8,0,0,1.08239X$1,22.5*
%
%ADD10R,0.0276X0.0354*%
%ADD11C,0.0945*%
%ADD12R,0.0709X0.1260*%
%ADD13R,0.0354X0.0276*%
%ADD14R,0.0512X0.0295*%
%ADD15R,0.1850X0.1890*%
%ADD16R,0.0394X0.0551*%
%ADD17R,0.0402X0.0161*%
%ADD18R,0.0512X0.0591*%
%ADD19C,0.0160*%
%ADD20C,0.0060*%
%ADD21C,0.0280*%
%ADD22C,0.0080*%
%ADD23C,0.0472*%
D10*
X007754Y009283D03*
X008266Y009283D03*
D11*
X009265Y008053D03*
X008797Y004385D03*
X004686Y004180D03*
X003616Y006013D03*
D12*
X005644Y004053D03*
X007849Y004053D03*
D13*
X003877Y007199D03*
X003877Y007711D03*
X007104Y007491D03*
X007104Y008003D03*
X007079Y008706D03*
X007079Y009218D03*
D14*
X007583Y007066D03*
X007583Y006566D03*
X007583Y006066D03*
X007583Y005566D03*
X006673Y005499D03*
X006673Y005999D03*
X006673Y006499D03*
X006673Y006999D03*
X004449Y006999D03*
X004449Y006499D03*
X004449Y005999D03*
X004449Y005499D03*
X009808Y005566D03*
X009808Y006066D03*
X009808Y006566D03*
X009808Y007066D03*
D15*
X008981Y006316D03*
X005276Y006249D03*
D16*
X007923Y007863D03*
X008297Y008729D03*
X007549Y008729D03*
D17*
X006253Y008273D03*
X006253Y008018D03*
X006253Y007762D03*
X006253Y007506D03*
X004364Y007506D03*
X004364Y007762D03*
X004364Y008018D03*
X004364Y008273D03*
D18*
X005657Y008886D03*
X006405Y008886D03*
D19*
X007583Y007066D02*
X007583Y006566D01*
X007583Y006066D01*
X007117Y006055D01*
X006673Y005999D01*
X006673Y006499D01*
X006673Y005999D02*
X006673Y005499D01*
X005276Y006249D02*
X005086Y005934D01*
X004449Y005999D01*
X004449Y005499D01*
X004481Y005962D02*
X004449Y005999D01*
X004481Y005962D02*
X004481Y006405D01*
X004449Y006499D01*
X004449Y006999D01*
X004481Y006405D02*
X003616Y006013D01*
X004686Y004180D02*
X004936Y003930D01*
X005644Y004053D01*
X007849Y004053D02*
X008225Y004313D01*
X008797Y004385D01*
X009808Y005566D02*
X009808Y006066D01*
X009808Y006566D01*
X009092Y006431D01*
X008981Y006316D01*
X009808Y006566D02*
X009808Y007066D01*
X009265Y007334D01*
X009265Y008053D01*
D20*
X008625Y007751D02*
X008563Y007690D01*
X008377Y007690D01*
X008625Y007751D02*
X008626Y009350D01*
X008450Y009586D01*
X007930Y009586D01*
X007857Y009407D01*
X007857Y009132D01*
X007754Y009283D01*
X007651Y009273D01*
X007079Y009218D01*
X006784Y009301D02*
X005992Y009303D01*
X005776Y009206D01*
X005776Y009082D01*
X005198Y009082D01*
X005108Y009081D01*
X005657Y008886D02*
X005776Y009082D01*
X006405Y008886D02*
X006274Y008476D01*
X005789Y008476D01*
X005789Y007448D01*
X005830Y007407D01*
X005828Y007556D01*
X006144Y007556D01*
X006253Y007506D01*
X006658Y007347D02*
X006721Y007379D01*
X006724Y007904D01*
X006791Y007971D01*
X007104Y008003D01*
X007635Y007971D01*
X007923Y007863D01*
X008310Y008116D02*
X008310Y008256D01*
X008226Y008339D01*
X007739Y008339D01*
X007592Y008487D01*
X007592Y008673D01*
X007549Y008729D01*
X007529Y008569D01*
X007079Y008706D01*
X006785Y008672D01*
X006784Y009301D01*
X005789Y008476D02*
X004143Y008476D01*
X003875Y008421D01*
X003914Y007734D02*
X004112Y007760D01*
X004364Y007762D01*
X004364Y007506D02*
X004021Y007280D01*
X003891Y007231D01*
X003865Y007176D01*
X003877Y007199D01*
X003550Y006080D01*
X003616Y006013D01*
X003897Y005330D02*
X003922Y005274D01*
X004097Y005099D01*
X005779Y005099D01*
X005844Y005034D01*
X005934Y005125D01*
X006131Y005125D01*
X006321Y005253D01*
X006608Y005251D01*
X006739Y005019D01*
X006385Y005011D02*
X006162Y004802D01*
X005150Y004800D01*
X005085Y004825D01*
X004978Y004825D01*
X005844Y005034D02*
X005852Y005099D01*
X006610Y004401D02*
X006610Y003323D01*
X006422Y003173D01*
X006996Y003173D02*
X007051Y003182D01*
X007051Y004058D01*
X007048Y004119D01*
X007116Y004511D01*
X007405Y004765D01*
X007575Y004887D01*
X007804Y005162D01*
X007768Y005173D01*
X007412Y005148D02*
X007378Y004926D01*
X006610Y004401D01*
X007691Y004082D02*
X007849Y004053D01*
X007583Y007066D02*
X007473Y007080D01*
X007473Y007302D01*
X007144Y007459D01*
X007104Y007491D01*
X008310Y008116D02*
X008371Y008055D01*
X008266Y008611D02*
X008297Y008729D01*
X008266Y008611D02*
X008266Y009283D01*
X003914Y007734D02*
X003791Y007611D01*
X003877Y007711D01*
X003455Y007305D01*
X003253Y007196D01*
X003055Y007005D01*
D21*
X003055Y007005D03*
X003897Y005330D03*
X004978Y004825D03*
X005844Y005034D03*
X006385Y005011D03*
X006739Y005019D03*
X007060Y005143D03*
X007412Y005148D03*
X007768Y005173D03*
X006658Y007347D03*
X005830Y007407D03*
X005108Y009081D03*
X008371Y008055D03*
X008377Y007690D03*
D22*
X005964Y003472D02*
X004467Y003472D01*
X004357Y003550D02*
X005964Y003550D01*
X005964Y003629D02*
X004351Y003629D01*
X004351Y003555D02*
X004351Y003890D01*
X004365Y004080D01*
X004533Y004584D01*
X005964Y004584D01*
X005964Y002831D01*
X005413Y002964D01*
X004763Y003261D01*
X004351Y003555D01*
X004351Y003707D02*
X005964Y003707D01*
X005964Y003786D02*
X004351Y003786D01*
X004351Y003864D02*
X005964Y003864D01*
X005964Y003943D02*
X004355Y003943D01*
X004361Y004021D02*
X005964Y004021D01*
X005964Y004100D02*
X004372Y004100D01*
X004398Y004178D02*
X005964Y004178D01*
X005964Y004257D02*
X004424Y004257D01*
X004450Y004335D02*
X005964Y004335D01*
X005964Y004414D02*
X004477Y004414D01*
X004503Y004492D02*
X005964Y004492D01*
X005964Y004571D02*
X004529Y004571D01*
X004399Y005383D02*
X004217Y005389D01*
X004105Y005456D01*
X004101Y005466D01*
X004033Y005534D01*
X003945Y005570D01*
X003914Y005570D01*
X003779Y005651D01*
X003152Y005651D01*
X003152Y006442D01*
X003821Y006442D01*
X004223Y006844D01*
X004223Y007124D01*
X006084Y007124D01*
X006084Y005383D01*
X004399Y005383D01*
X004142Y005434D02*
X006084Y005434D01*
X006084Y005513D02*
X004054Y005513D01*
X003879Y005591D02*
X006084Y005591D01*
X006084Y005670D02*
X003152Y005670D01*
X003152Y005748D02*
X006084Y005748D01*
X006084Y005827D02*
X003152Y005827D01*
X003152Y005905D02*
X006084Y005905D01*
X006084Y005984D02*
X003152Y005984D01*
X003152Y006062D02*
X006084Y006062D01*
X006084Y006141D02*
X003152Y006141D01*
X003152Y006219D02*
X006084Y006219D01*
X006084Y006298D02*
X003152Y006298D01*
X003152Y006376D02*
X006084Y006376D01*
X006084Y006455D02*
X003834Y006455D01*
X003912Y006533D02*
X006084Y006533D01*
X006084Y006612D02*
X003991Y006612D01*
X004069Y006690D02*
X006084Y006690D01*
X006084Y006769D02*
X004148Y006769D01*
X004223Y006847D02*
X006084Y006847D01*
X006084Y006926D02*
X004223Y006926D01*
X004223Y007004D02*
X006084Y007004D01*
X006084Y007083D02*
X004223Y007083D01*
X003875Y008421D02*
X003672Y008421D01*
X003665Y008429D01*
X006440Y006615D02*
X007047Y006611D01*
X007047Y007133D01*
X007180Y007177D01*
X007804Y007177D01*
X007804Y005920D01*
X007272Y005920D01*
X007180Y005829D01*
X007180Y005656D01*
X006907Y005382D01*
X006621Y005382D01*
X006591Y005391D01*
X006576Y005382D01*
X006440Y005382D01*
X006440Y006615D01*
X006440Y006612D02*
X006938Y006612D01*
X007047Y006612D02*
X007804Y006612D01*
X007804Y006690D02*
X007047Y006690D01*
X007047Y006769D02*
X007804Y006769D01*
X007804Y006847D02*
X007047Y006847D01*
X007047Y006926D02*
X007804Y006926D01*
X007804Y007004D02*
X007047Y007004D01*
X007047Y007083D02*
X007804Y007083D01*
X007804Y007161D02*
X007132Y007161D01*
X006686Y007129D02*
X006673Y006999D01*
X006686Y007129D02*
X006658Y007347D01*
X006440Y006533D02*
X007804Y006533D01*
X007804Y006455D02*
X006440Y006455D01*
X006440Y006376D02*
X007804Y006376D01*
X007804Y006298D02*
X006440Y006298D01*
X006440Y006219D02*
X007804Y006219D01*
X007804Y006141D02*
X006440Y006141D01*
X006440Y006062D02*
X007804Y006062D01*
X007804Y005984D02*
X006440Y005984D01*
X006440Y005905D02*
X007257Y005905D01*
X007180Y005827D02*
X006440Y005827D01*
X006440Y005748D02*
X007180Y005748D01*
X007180Y005670D02*
X006440Y005670D01*
X006440Y005591D02*
X007116Y005591D01*
X007037Y005513D02*
X006440Y005513D01*
X006440Y005434D02*
X006959Y005434D01*
X007060Y005143D02*
X007395Y005495D01*
X007583Y005566D01*
X008088Y005591D02*
X009853Y005591D01*
X009853Y005513D02*
X008088Y005513D01*
X008088Y005434D02*
X009853Y005434D01*
X009853Y005422D02*
X008088Y005422D01*
X008088Y007208D01*
X008797Y007208D01*
X008797Y008050D01*
X008904Y008374D01*
X009139Y008520D01*
X009816Y008520D01*
X009853Y008448D01*
X009853Y005422D01*
X009853Y005670D02*
X008088Y005670D01*
X008088Y005748D02*
X009853Y005748D01*
X009853Y005827D02*
X008088Y005827D01*
X008088Y005905D02*
X009853Y005905D01*
X009853Y005984D02*
X008088Y005984D01*
X008088Y006062D02*
X009853Y006062D01*
X009853Y006141D02*
X008088Y006141D01*
X008088Y006219D02*
X009853Y006219D01*
X009853Y006298D02*
X008088Y006298D01*
X008088Y006376D02*
X009853Y006376D01*
X009853Y006455D02*
X008088Y006455D01*
X008088Y006533D02*
X009853Y006533D01*
X009853Y006612D02*
X008088Y006612D01*
X008088Y006690D02*
X009853Y006690D01*
X009853Y006769D02*
X008088Y006769D01*
X008088Y006847D02*
X009853Y006847D01*
X009853Y006926D02*
X008088Y006926D01*
X008088Y007004D02*
X009853Y007004D01*
X009853Y007083D02*
X008088Y007083D01*
X008088Y007161D02*
X009853Y007161D01*
X009853Y007240D02*
X008797Y007240D01*
X008797Y007318D02*
X009853Y007318D01*
X009853Y007397D02*
X008797Y007397D01*
X008797Y007475D02*
X009853Y007475D01*
X009853Y007554D02*
X008797Y007554D01*
X008797Y007632D02*
X009853Y007632D01*
X009853Y007711D02*
X008797Y007711D01*
X008797Y007789D02*
X009853Y007789D01*
X009853Y007868D02*
X008797Y007868D01*
X008797Y007946D02*
X009853Y007946D01*
X009853Y008025D02*
X008797Y008025D01*
X008815Y008103D02*
X009853Y008103D01*
X009853Y008182D02*
X008841Y008182D01*
X008867Y008260D02*
X009853Y008260D01*
X009853Y008339D02*
X008892Y008339D01*
X008974Y008417D02*
X009853Y008417D01*
X009828Y008496D02*
X009100Y008496D01*
X009374Y004818D02*
X007768Y004818D01*
X007644Y004767D01*
X007640Y004763D01*
X007631Y004762D01*
X007613Y004754D01*
X007571Y004724D01*
X007571Y002879D01*
X008202Y003097D01*
X008821Y003454D01*
X009361Y003922D01*
X009374Y003939D01*
X009374Y004818D01*
X009374Y004806D02*
X007740Y004806D01*
X007576Y004728D02*
X009374Y004728D01*
X009374Y004649D02*
X007571Y004649D01*
X007571Y004571D02*
X009374Y004571D01*
X009374Y004492D02*
X007571Y004492D01*
X007571Y004414D02*
X009374Y004414D01*
X009374Y004335D02*
X007571Y004335D01*
X007571Y004257D02*
X009374Y004257D01*
X009374Y004178D02*
X007571Y004178D01*
X007571Y004100D02*
X009374Y004100D01*
X009374Y004021D02*
X007571Y004021D01*
X007571Y003943D02*
X009374Y003943D01*
X009294Y003864D02*
X007571Y003864D01*
X007571Y003786D02*
X009203Y003786D01*
X009113Y003707D02*
X007571Y003707D01*
X007571Y003629D02*
X009022Y003629D01*
X008932Y003550D02*
X007571Y003550D01*
X007571Y003472D02*
X008841Y003472D01*
X008715Y003393D02*
X007571Y003393D01*
X007571Y003315D02*
X008579Y003315D01*
X008443Y003236D02*
X007571Y003236D01*
X007571Y003158D02*
X008307Y003158D01*
X008151Y003079D02*
X007571Y003079D01*
X007571Y003001D02*
X007924Y003001D01*
X007697Y002922D02*
X007571Y002922D01*
X005964Y002922D02*
X005586Y002922D01*
X005333Y003001D02*
X005964Y003001D01*
X005964Y003079D02*
X005161Y003079D01*
X004989Y003158D02*
X005964Y003158D01*
X005964Y003236D02*
X004818Y003236D01*
X004688Y003315D02*
X005964Y003315D01*
X005964Y003393D02*
X004578Y003393D01*
X005910Y002844D02*
X005964Y002844D01*
D23*
X006422Y003173D03*
X006996Y003173D03*
X003383Y007864D03*
X003665Y008429D03*
X004062Y008953D03*
X004576Y009337D03*
X005050Y009666D03*
X005606Y009907D03*
X006213Y010020D03*
X006879Y010067D03*
M02*
