G75*
G70*
%OFA0B0*%
%FSLAX24Y24*%
%IPPOS*%
%LPD*%
%AMOC8*
5,1,8,0,0,1.08239X$1,22.5*
%
%ADD10C,0.0010*%
%ADD11C,0.0080*%
%ADD12C,0.0050*%
D10*
X005816Y003115D02*
X005816Y003265D01*
X005891Y003265D01*
X005916Y003240D01*
X005916Y003190D01*
X005891Y003165D01*
X005816Y003165D01*
X005866Y003165D02*
X005916Y003115D01*
X005964Y003115D02*
X006064Y003265D01*
X005964Y003265D02*
X006064Y003115D01*
X007386Y003265D02*
X007486Y003265D01*
X007533Y003265D02*
X007633Y003115D01*
X007533Y003115D02*
X007633Y003265D01*
X007436Y003265D02*
X007436Y003115D01*
X006924Y004692D02*
X006874Y004692D01*
X006849Y004717D01*
X006802Y004692D02*
X006701Y004692D01*
X006654Y004692D02*
X006604Y004742D01*
X006629Y004742D02*
X006554Y004742D01*
X006554Y004692D02*
X006554Y004842D01*
X006629Y004842D01*
X006654Y004817D01*
X006654Y004767D01*
X006629Y004742D01*
X006701Y004792D02*
X006752Y004842D01*
X006752Y004692D01*
X006899Y004767D02*
X006924Y004767D01*
X006949Y004742D01*
X006949Y004717D01*
X006924Y004692D01*
X006924Y004767D02*
X006949Y004792D01*
X006949Y004817D01*
X006924Y004842D01*
X006874Y004842D01*
X006849Y004817D01*
X007640Y005116D02*
X007640Y005266D01*
X007665Y005191D02*
X007741Y005116D01*
X007788Y005141D02*
X007813Y005116D01*
X007888Y005116D01*
X007888Y005091D02*
X007863Y005066D01*
X007838Y005066D01*
X007888Y005091D02*
X007888Y005216D01*
X007935Y005266D02*
X007960Y005266D01*
X007960Y005116D01*
X007935Y005116D02*
X007985Y005116D01*
X008033Y005141D02*
X008058Y005116D01*
X008108Y005116D01*
X008133Y005166D02*
X008033Y005166D01*
X008033Y005141D02*
X008033Y005191D01*
X008058Y005216D01*
X008108Y005216D01*
X008133Y005191D01*
X008133Y005166D01*
X008328Y005191D02*
X008428Y005191D01*
X008475Y005141D02*
X008500Y005166D01*
X008575Y005166D01*
X008575Y005191D02*
X008575Y005116D01*
X008500Y005116D01*
X008475Y005141D01*
X008428Y005116D02*
X008428Y005266D01*
X008500Y005216D02*
X008550Y005216D01*
X008575Y005191D01*
X008623Y005191D02*
X008623Y005141D01*
X008648Y005116D01*
X008723Y005116D01*
X008723Y005091D02*
X008723Y005216D01*
X008648Y005216D01*
X008623Y005191D01*
X008673Y005066D02*
X008698Y005066D01*
X008723Y005091D01*
X008770Y005116D02*
X008820Y005116D01*
X008795Y005116D02*
X008795Y005216D01*
X008770Y005216D01*
X008795Y005266D02*
X008795Y005291D01*
X008868Y005216D02*
X008943Y005216D01*
X008968Y005191D01*
X008968Y005116D01*
X008868Y005116D02*
X008868Y005216D01*
X009065Y005021D02*
X009065Y004921D01*
X009090Y004896D01*
X009141Y004896D01*
X009166Y004921D01*
X009166Y004971D01*
X009115Y004971D01*
X009065Y005021D02*
X009090Y005046D01*
X009141Y005046D01*
X009166Y005021D01*
X009213Y005046D02*
X009313Y004896D01*
X009313Y005046D01*
X009360Y005046D02*
X009435Y005046D01*
X009460Y005021D01*
X009460Y004921D01*
X009435Y004896D01*
X009360Y004896D01*
X009360Y005046D01*
X009335Y005116D02*
X009310Y005141D01*
X009410Y005241D01*
X009410Y005141D01*
X009385Y005116D01*
X009335Y005116D01*
X009310Y005141D02*
X009310Y005241D01*
X009335Y005266D01*
X009385Y005266D01*
X009410Y005241D01*
X009457Y005216D02*
X009507Y005266D01*
X009507Y005116D01*
X009457Y005116D02*
X009558Y005116D01*
X009605Y005141D02*
X009630Y005116D01*
X009680Y005116D01*
X009705Y005141D01*
X009705Y005191D01*
X009680Y005216D01*
X009655Y005216D01*
X009605Y005191D01*
X009605Y005266D01*
X009705Y005266D01*
X009705Y005046D02*
X009655Y005046D01*
X009680Y005046D02*
X009680Y004896D01*
X009655Y004896D02*
X009705Y004896D01*
X009753Y004896D02*
X009753Y005046D01*
X009853Y004896D01*
X009853Y005046D01*
X009608Y004871D02*
X009507Y004871D01*
X009213Y004896D02*
X009213Y005046D01*
X009263Y005116D02*
X009163Y005116D01*
X009263Y005216D01*
X009263Y005241D01*
X009238Y005266D01*
X009188Y005266D01*
X009163Y005241D01*
X008328Y005266D02*
X008328Y005116D01*
X007788Y005141D02*
X007788Y005216D01*
X007741Y005266D02*
X007640Y005166D01*
X005457Y005177D02*
X005432Y005202D01*
X005382Y005202D01*
X005357Y005177D01*
X005309Y005177D02*
X005284Y005202D01*
X005234Y005202D01*
X005209Y005177D01*
X005209Y005152D01*
X005234Y005127D01*
X005284Y005127D01*
X005309Y005102D01*
X005309Y005077D01*
X005284Y005052D01*
X005234Y005052D01*
X005209Y005077D01*
X005162Y005077D02*
X005162Y005202D01*
X005062Y005202D02*
X005062Y005077D01*
X005087Y005052D01*
X005137Y005052D01*
X005162Y005077D01*
X005259Y005027D02*
X005259Y005227D01*
X005357Y005052D02*
X005457Y005152D01*
X005457Y005177D01*
X005457Y005052D02*
X005357Y005052D01*
X004671Y004885D02*
X004571Y004885D01*
X004524Y004885D02*
X004524Y004760D01*
X004499Y004735D01*
X004449Y004735D01*
X004424Y004760D01*
X004424Y004885D01*
X004377Y004860D02*
X004377Y004760D01*
X004352Y004735D01*
X004302Y004735D01*
X004277Y004760D01*
X004277Y004860D01*
X004302Y004885D01*
X004352Y004885D01*
X004377Y004860D01*
X004369Y004972D02*
X004369Y005122D01*
X004269Y005122D02*
X004269Y004972D01*
X004221Y004972D02*
X004171Y004972D01*
X004196Y004972D02*
X004196Y005122D01*
X004171Y005122D02*
X004221Y005122D01*
X004269Y005122D02*
X004369Y004972D01*
X004229Y004810D02*
X004129Y004810D01*
X004082Y004760D02*
X004082Y004860D01*
X004057Y004885D01*
X003982Y004885D01*
X003982Y004735D01*
X004057Y004735D01*
X004082Y004760D01*
X003935Y004735D02*
X003935Y004885D01*
X003927Y004972D02*
X003927Y005122D01*
X003977Y005122D02*
X003876Y005122D01*
X003829Y005072D02*
X003829Y004972D01*
X003829Y005047D02*
X003729Y005047D01*
X003729Y005072D02*
X003779Y005122D01*
X003829Y005072D01*
X003729Y005072D02*
X003729Y004972D01*
X003682Y004997D02*
X003682Y005022D01*
X003657Y005047D01*
X003582Y005047D01*
X003535Y005022D02*
X003485Y004972D01*
X003435Y005022D01*
X003435Y005122D01*
X003535Y005122D02*
X003535Y005022D01*
X003582Y004972D02*
X003657Y004972D01*
X003682Y004997D01*
X003657Y005047D02*
X003682Y005072D01*
X003682Y005097D01*
X003657Y005122D01*
X003582Y005122D01*
X003582Y004972D01*
X003687Y004860D02*
X003687Y004760D01*
X003712Y004735D01*
X003762Y004735D01*
X003787Y004760D01*
X003787Y004810D01*
X003737Y004810D01*
X003687Y004860D02*
X003712Y004885D01*
X003762Y004885D01*
X003787Y004860D01*
X003835Y004885D02*
X003935Y004735D01*
X003835Y004735D02*
X003835Y004885D01*
X004024Y005047D02*
X004124Y005047D01*
X004621Y004885D02*
X004621Y004735D01*
X007807Y007377D02*
X007832Y007352D01*
X007882Y007352D01*
X007907Y007377D01*
X007907Y007477D01*
X007882Y007502D01*
X007832Y007502D01*
X007807Y007477D01*
X007807Y007377D01*
X007857Y007402D02*
X007907Y007352D01*
X007955Y007352D02*
X008055Y007352D01*
X008005Y007352D02*
X008005Y007502D01*
X007955Y007452D01*
X007180Y008223D02*
X007180Y008323D01*
X007155Y008349D01*
X007105Y008349D01*
X007080Y008323D01*
X007080Y008298D01*
X007105Y008273D01*
X007180Y008273D01*
X007180Y008223D02*
X007155Y008198D01*
X007105Y008198D01*
X007080Y008223D01*
X007033Y008198D02*
X006983Y008248D01*
X007008Y008248D02*
X006933Y008248D01*
X006933Y008198D02*
X006933Y008349D01*
X007008Y008349D01*
X007033Y008323D01*
X007033Y008273D01*
X007008Y008248D01*
X006163Y009274D02*
X006063Y009274D01*
X006163Y009374D01*
X006163Y009399D01*
X006138Y009424D01*
X006088Y009424D01*
X006063Y009399D01*
X006016Y009399D02*
X005991Y009424D01*
X005941Y009424D01*
X005916Y009399D01*
X005916Y009299D01*
X005941Y009274D01*
X005991Y009274D01*
X006016Y009299D01*
X006872Y009395D02*
X006872Y009546D01*
X006947Y009546D01*
X006972Y009521D01*
X006972Y009471D01*
X006947Y009445D01*
X006872Y009445D01*
X006922Y009445D02*
X006972Y009395D01*
X007020Y009395D02*
X007120Y009395D01*
X007070Y009395D02*
X007070Y009546D01*
X007020Y009496D01*
X007167Y009521D02*
X007167Y009420D01*
X007267Y009521D01*
X007267Y009420D01*
X007242Y009395D01*
X007192Y009395D01*
X007167Y009420D01*
X007167Y009521D02*
X007192Y009546D01*
X007242Y009546D01*
X007267Y009521D01*
X007721Y009544D02*
X007721Y009694D01*
X007796Y009694D01*
X007821Y009669D01*
X007821Y009619D01*
X007796Y009594D01*
X007721Y009594D01*
X007771Y009594D02*
X007821Y009544D01*
X007869Y009544D02*
X007969Y009644D01*
X007969Y009669D01*
X007944Y009694D01*
X007894Y009694D01*
X007869Y009669D01*
X007869Y009544D02*
X007969Y009544D01*
X008016Y009544D02*
X008116Y009544D01*
X008066Y009544D02*
X008066Y009694D01*
X008016Y009644D01*
X008514Y008720D02*
X008514Y008620D01*
X008564Y008570D01*
X008614Y008620D01*
X008614Y008720D01*
X008661Y008720D02*
X008736Y008720D01*
X008761Y008695D01*
X008761Y008670D01*
X008736Y008645D01*
X008661Y008645D01*
X008661Y008570D02*
X008661Y008720D01*
X008736Y008645D02*
X008761Y008620D01*
X008761Y008595D01*
X008736Y008570D01*
X008661Y008570D01*
X008808Y008570D02*
X008808Y008670D01*
X008858Y008720D01*
X008908Y008670D01*
X008908Y008570D01*
X008908Y008645D02*
X008808Y008645D01*
X008956Y008720D02*
X009056Y008720D01*
X009006Y008720D02*
X009006Y008570D01*
X009103Y008645D02*
X009203Y008645D01*
X009250Y008695D02*
X009250Y008595D01*
X009275Y008570D01*
X009325Y008570D01*
X009350Y008595D01*
X009350Y008695D01*
X009325Y008720D01*
X009275Y008720D01*
X009250Y008695D01*
X009398Y008720D02*
X009398Y008595D01*
X009423Y008570D01*
X009473Y008570D01*
X009498Y008595D01*
X009498Y008720D01*
X009545Y008720D02*
X009645Y008720D01*
X009595Y008720D02*
X009595Y008570D01*
X009772Y007485D02*
X009772Y007285D01*
X009747Y007310D02*
X009797Y007310D01*
X009822Y007335D01*
X009822Y007360D01*
X009797Y007385D01*
X009747Y007385D01*
X009722Y007410D01*
X009722Y007435D01*
X009747Y007460D01*
X009797Y007460D01*
X009822Y007435D01*
X009870Y007410D02*
X009920Y007460D01*
X009920Y007310D01*
X009870Y007310D02*
X009970Y007310D01*
X009747Y007310D02*
X009722Y007335D01*
X009675Y007335D02*
X009650Y007310D01*
X009600Y007310D01*
X009575Y007335D01*
X009575Y007460D01*
X009675Y007460D02*
X009675Y007335D01*
X005492Y007580D02*
X005602Y007580D01*
X005601Y007580D02*
X005604Y007579D01*
X005607Y007580D01*
X005716Y007580D01*
X005717Y007579D01*
X005714Y007559D01*
X005708Y007540D01*
X005698Y007522D01*
X005686Y007506D01*
X005670Y007493D01*
X005653Y007482D01*
X005634Y007475D01*
X005614Y007471D01*
X005594Y007471D01*
X005574Y007475D01*
X005555Y007482D01*
X005538Y007493D01*
X005522Y007506D01*
X005510Y007522D01*
X005500Y007540D01*
X005494Y007559D01*
X005491Y007579D01*
X005500Y007579D01*
X005503Y007559D01*
X005509Y007541D01*
X005519Y007524D01*
X005532Y007509D01*
X005548Y007496D01*
X005565Y007487D01*
X005584Y007482D01*
X005604Y007480D01*
X005624Y007482D01*
X005643Y007487D01*
X005660Y007496D01*
X005676Y007509D01*
X005689Y007524D01*
X005699Y007541D01*
X005705Y007559D01*
X005708Y007579D01*
X005699Y007579D01*
X005696Y007560D01*
X005689Y007542D01*
X005679Y007526D01*
X005666Y007512D01*
X005650Y007501D01*
X005632Y007493D01*
X005614Y007489D01*
X005594Y007489D01*
X005576Y007493D01*
X005558Y007501D01*
X005542Y007512D01*
X005529Y007526D01*
X005519Y007542D01*
X005512Y007560D01*
X005509Y007579D01*
X005518Y007579D01*
X005521Y007562D01*
X005527Y007546D01*
X005536Y007531D01*
X005548Y007519D01*
X005562Y007509D01*
X005578Y007502D01*
X005595Y007498D01*
X005613Y007498D01*
X005630Y007502D01*
X005646Y007509D01*
X005660Y007519D01*
X005672Y007531D01*
X005681Y007546D01*
X005687Y007562D01*
X005690Y007579D01*
X005681Y007579D01*
X005678Y007563D01*
X005672Y007547D01*
X005662Y007534D01*
X005650Y007522D01*
X005636Y007514D01*
X005620Y007509D01*
X005604Y007507D01*
X005588Y007509D01*
X005572Y007514D01*
X005558Y007522D01*
X005546Y007534D01*
X005536Y007547D01*
X005530Y007563D01*
X005527Y007579D01*
X005536Y007579D01*
X005539Y007564D01*
X005545Y007549D01*
X005555Y007537D01*
X005567Y007527D01*
X005581Y007520D01*
X005596Y007516D01*
X005612Y007516D01*
X005627Y007520D01*
X005641Y007527D01*
X005653Y007537D01*
X005663Y007549D01*
X005669Y007564D01*
X005672Y007579D01*
X005663Y007579D01*
X005660Y007565D01*
X005653Y007552D01*
X005644Y007541D01*
X005632Y007532D01*
X005618Y007527D01*
X005604Y007525D01*
X005590Y007527D01*
X005576Y007532D01*
X005564Y007541D01*
X005555Y007552D01*
X005548Y007565D01*
X005545Y007579D01*
X005554Y007579D01*
X005557Y007566D01*
X005564Y007554D01*
X005573Y007545D01*
X005584Y007538D01*
X005597Y007534D01*
X005611Y007534D01*
X005624Y007538D01*
X005635Y007545D01*
X005644Y007554D01*
X005651Y007566D01*
X005654Y007579D01*
X005645Y007579D01*
X005642Y007568D01*
X005635Y007558D01*
X005626Y007550D01*
X005616Y007545D01*
X005604Y007543D01*
X005592Y007545D01*
X005582Y007550D01*
X005573Y007558D01*
X005566Y007568D01*
X005563Y007579D01*
X005572Y007579D01*
X005575Y007569D01*
X005581Y007561D01*
X005589Y007555D01*
X005599Y007552D01*
X005609Y007552D01*
X005619Y007555D01*
X005627Y007561D01*
X005633Y007569D01*
X005636Y007579D01*
X005626Y007579D01*
X005623Y007571D01*
X005617Y007565D01*
X005608Y007561D01*
X005600Y007561D01*
X005591Y007565D01*
X005585Y007571D01*
X005582Y007579D01*
X005591Y007579D01*
X005595Y007574D01*
X005601Y007570D01*
X005607Y007570D01*
X005613Y007574D01*
X005617Y007579D01*
X004858Y008557D02*
X004758Y008557D01*
X004808Y008557D02*
X004808Y008708D01*
X004758Y008658D01*
X004710Y008683D02*
X004685Y008708D01*
X004635Y008708D01*
X004610Y008683D01*
X004610Y008582D01*
X004635Y008557D01*
X004685Y008557D01*
X004710Y008582D01*
X004562Y008557D02*
X004512Y008557D01*
X004537Y008557D02*
X004537Y008708D01*
X004512Y008708D02*
X004562Y008708D01*
X004273Y007683D02*
X004298Y007658D01*
X004298Y007608D01*
X004273Y007583D01*
X004273Y007536D02*
X004298Y007511D01*
X004298Y007461D01*
X004273Y007436D01*
X004173Y007436D01*
X004148Y007461D01*
X004148Y007511D01*
X004173Y007536D01*
X004173Y007583D02*
X004148Y007608D01*
X004148Y007658D01*
X004173Y007683D01*
X004198Y007683D01*
X004223Y007658D01*
X004248Y007683D01*
X004273Y007683D01*
X004223Y007658D02*
X004223Y007633D01*
D11*
X004757Y007338D02*
X004757Y008441D01*
X005860Y008441D01*
X005860Y007338D01*
X004757Y007338D01*
X002705Y006515D02*
X002710Y006708D01*
X002724Y006901D01*
X002748Y007093D01*
X002781Y007283D01*
X002823Y007472D01*
X002875Y007658D01*
X002935Y007841D01*
X003005Y008022D01*
X003083Y008198D01*
X003170Y008371D01*
X003265Y008539D01*
X003369Y008702D01*
X003480Y008860D01*
X003599Y009013D01*
X003725Y009159D01*
X003858Y009299D01*
X003998Y009432D01*
X004144Y009558D01*
X004297Y009677D01*
X004455Y009788D01*
X004618Y009892D01*
X004786Y009987D01*
X004959Y010074D01*
X005135Y010152D01*
X005316Y010222D01*
X005499Y010282D01*
X005685Y010334D01*
X005874Y010376D01*
X006064Y010409D01*
X006256Y010433D01*
X006449Y010447D01*
X006642Y010452D01*
X006835Y010447D01*
X007028Y010433D01*
X007220Y010409D01*
X007410Y010376D01*
X007599Y010334D01*
X007785Y010282D01*
X007968Y010222D01*
X008149Y010152D01*
X008325Y010074D01*
X008498Y009987D01*
X008666Y009892D01*
X008829Y009788D01*
X008987Y009677D01*
X009140Y009558D01*
X009286Y009432D01*
X009426Y009299D01*
X009559Y009159D01*
X009685Y009013D01*
X009804Y008860D01*
X009915Y008702D01*
X010019Y008539D01*
X010114Y008371D01*
X010201Y008198D01*
X010279Y008022D01*
X010349Y007841D01*
X010409Y007658D01*
X010461Y007472D01*
X010503Y007283D01*
X010536Y007093D01*
X010560Y006901D01*
X010574Y006708D01*
X010579Y006515D01*
X010574Y006322D01*
X010560Y006129D01*
X010536Y005937D01*
X010503Y005747D01*
X010461Y005558D01*
X010409Y005372D01*
X010349Y005189D01*
X010279Y005008D01*
X010201Y004832D01*
X010114Y004659D01*
X010019Y004491D01*
X009915Y004328D01*
X009804Y004170D01*
X009685Y004017D01*
X009559Y003871D01*
X009426Y003731D01*
X009286Y003598D01*
X009140Y003472D01*
X008987Y003353D01*
X008829Y003242D01*
X008666Y003138D01*
X008498Y003043D01*
X008325Y002956D01*
X008149Y002878D01*
X007968Y002808D01*
X007785Y002748D01*
X007599Y002696D01*
X007410Y002654D01*
X007220Y002621D01*
X007028Y002597D01*
X006835Y002583D01*
X006642Y002578D01*
X006449Y002583D01*
X006256Y002597D01*
X006064Y002621D01*
X005874Y002654D01*
X005685Y002696D01*
X005499Y002748D01*
X005316Y002808D01*
X005135Y002878D01*
X004959Y002956D01*
X004786Y003043D01*
X004618Y003138D01*
X004455Y003242D01*
X004297Y003353D01*
X004144Y003472D01*
X003998Y003598D01*
X003858Y003731D01*
X003725Y003871D01*
X003599Y004017D01*
X003480Y004170D01*
X003369Y004328D01*
X003265Y004491D01*
X003170Y004659D01*
X003083Y004832D01*
X003005Y005008D01*
X002935Y005189D01*
X002875Y005372D01*
X002823Y005558D01*
X002781Y005747D01*
X002748Y005937D01*
X002724Y006129D01*
X002710Y006322D01*
X002705Y006515D01*
D12*
X004186Y004180D02*
X004188Y004224D01*
X004194Y004268D01*
X004204Y004311D01*
X004217Y004353D01*
X004234Y004394D01*
X004255Y004433D01*
X004279Y004470D01*
X004306Y004505D01*
X004336Y004537D01*
X004369Y004567D01*
X004405Y004593D01*
X004442Y004617D01*
X004482Y004636D01*
X004523Y004653D01*
X004566Y004665D01*
X004609Y004674D01*
X004653Y004679D01*
X004697Y004680D01*
X004741Y004677D01*
X004785Y004670D01*
X004828Y004659D01*
X004870Y004645D01*
X004910Y004627D01*
X004949Y004605D01*
X004985Y004581D01*
X005019Y004553D01*
X005051Y004522D01*
X005080Y004488D01*
X005106Y004452D01*
X005128Y004414D01*
X005147Y004374D01*
X005162Y004332D01*
X005174Y004290D01*
X005182Y004246D01*
X005186Y004202D01*
X005186Y004158D01*
X005182Y004114D01*
X005174Y004070D01*
X005162Y004028D01*
X005147Y003986D01*
X005128Y003946D01*
X005106Y003908D01*
X005080Y003872D01*
X005051Y003838D01*
X005019Y003807D01*
X004985Y003779D01*
X004949Y003755D01*
X004910Y003733D01*
X004870Y003715D01*
X004828Y003701D01*
X004785Y003690D01*
X004741Y003683D01*
X004697Y003680D01*
X004653Y003681D01*
X004609Y003686D01*
X004566Y003695D01*
X004523Y003707D01*
X004482Y003724D01*
X004442Y003743D01*
X004405Y003767D01*
X004369Y003793D01*
X004336Y003823D01*
X004306Y003855D01*
X004279Y003890D01*
X004255Y003927D01*
X004234Y003966D01*
X004217Y004007D01*
X004204Y004049D01*
X004194Y004092D01*
X004188Y004136D01*
X004186Y004180D01*
X003116Y006013D02*
X003118Y006057D01*
X003124Y006101D01*
X003134Y006144D01*
X003147Y006186D01*
X003164Y006227D01*
X003185Y006266D01*
X003209Y006303D01*
X003236Y006338D01*
X003266Y006370D01*
X003299Y006400D01*
X003335Y006426D01*
X003372Y006450D01*
X003412Y006469D01*
X003453Y006486D01*
X003496Y006498D01*
X003539Y006507D01*
X003583Y006512D01*
X003627Y006513D01*
X003671Y006510D01*
X003715Y006503D01*
X003758Y006492D01*
X003800Y006478D01*
X003840Y006460D01*
X003879Y006438D01*
X003915Y006414D01*
X003949Y006386D01*
X003981Y006355D01*
X004010Y006321D01*
X004036Y006285D01*
X004058Y006247D01*
X004077Y006207D01*
X004092Y006165D01*
X004104Y006123D01*
X004112Y006079D01*
X004116Y006035D01*
X004116Y005991D01*
X004112Y005947D01*
X004104Y005903D01*
X004092Y005861D01*
X004077Y005819D01*
X004058Y005779D01*
X004036Y005741D01*
X004010Y005705D01*
X003981Y005671D01*
X003949Y005640D01*
X003915Y005612D01*
X003879Y005588D01*
X003840Y005566D01*
X003800Y005548D01*
X003758Y005534D01*
X003715Y005523D01*
X003671Y005516D01*
X003627Y005513D01*
X003583Y005514D01*
X003539Y005519D01*
X003496Y005528D01*
X003453Y005540D01*
X003412Y005557D01*
X003372Y005576D01*
X003335Y005600D01*
X003299Y005626D01*
X003266Y005656D01*
X003236Y005688D01*
X003209Y005723D01*
X003185Y005760D01*
X003164Y005799D01*
X003147Y005840D01*
X003134Y005882D01*
X003124Y005925D01*
X003118Y005969D01*
X003116Y006013D01*
X008297Y004385D02*
X008299Y004429D01*
X008305Y004473D01*
X008315Y004516D01*
X008328Y004558D01*
X008345Y004599D01*
X008366Y004638D01*
X008390Y004675D01*
X008417Y004710D01*
X008447Y004742D01*
X008480Y004772D01*
X008516Y004798D01*
X008553Y004822D01*
X008593Y004841D01*
X008634Y004858D01*
X008677Y004870D01*
X008720Y004879D01*
X008764Y004884D01*
X008808Y004885D01*
X008852Y004882D01*
X008896Y004875D01*
X008939Y004864D01*
X008981Y004850D01*
X009021Y004832D01*
X009060Y004810D01*
X009096Y004786D01*
X009130Y004758D01*
X009162Y004727D01*
X009191Y004693D01*
X009217Y004657D01*
X009239Y004619D01*
X009258Y004579D01*
X009273Y004537D01*
X009285Y004495D01*
X009293Y004451D01*
X009297Y004407D01*
X009297Y004363D01*
X009293Y004319D01*
X009285Y004275D01*
X009273Y004233D01*
X009258Y004191D01*
X009239Y004151D01*
X009217Y004113D01*
X009191Y004077D01*
X009162Y004043D01*
X009130Y004012D01*
X009096Y003984D01*
X009060Y003960D01*
X009021Y003938D01*
X008981Y003920D01*
X008939Y003906D01*
X008896Y003895D01*
X008852Y003888D01*
X008808Y003885D01*
X008764Y003886D01*
X008720Y003891D01*
X008677Y003900D01*
X008634Y003912D01*
X008593Y003929D01*
X008553Y003948D01*
X008516Y003972D01*
X008480Y003998D01*
X008447Y004028D01*
X008417Y004060D01*
X008390Y004095D01*
X008366Y004132D01*
X008345Y004171D01*
X008328Y004212D01*
X008315Y004254D01*
X008305Y004297D01*
X008299Y004341D01*
X008297Y004385D01*
X008765Y008053D02*
X008767Y008097D01*
X008773Y008141D01*
X008783Y008184D01*
X008796Y008226D01*
X008813Y008267D01*
X008834Y008306D01*
X008858Y008343D01*
X008885Y008378D01*
X008915Y008410D01*
X008948Y008440D01*
X008984Y008466D01*
X009021Y008490D01*
X009061Y008509D01*
X009102Y008526D01*
X009145Y008538D01*
X009188Y008547D01*
X009232Y008552D01*
X009276Y008553D01*
X009320Y008550D01*
X009364Y008543D01*
X009407Y008532D01*
X009449Y008518D01*
X009489Y008500D01*
X009528Y008478D01*
X009564Y008454D01*
X009598Y008426D01*
X009630Y008395D01*
X009659Y008361D01*
X009685Y008325D01*
X009707Y008287D01*
X009726Y008247D01*
X009741Y008205D01*
X009753Y008163D01*
X009761Y008119D01*
X009765Y008075D01*
X009765Y008031D01*
X009761Y007987D01*
X009753Y007943D01*
X009741Y007901D01*
X009726Y007859D01*
X009707Y007819D01*
X009685Y007781D01*
X009659Y007745D01*
X009630Y007711D01*
X009598Y007680D01*
X009564Y007652D01*
X009528Y007628D01*
X009489Y007606D01*
X009449Y007588D01*
X009407Y007574D01*
X009364Y007563D01*
X009320Y007556D01*
X009276Y007553D01*
X009232Y007554D01*
X009188Y007559D01*
X009145Y007568D01*
X009102Y007580D01*
X009061Y007597D01*
X009021Y007616D01*
X008984Y007640D01*
X008948Y007666D01*
X008915Y007696D01*
X008885Y007728D01*
X008858Y007763D01*
X008834Y007800D01*
X008813Y007839D01*
X008796Y007880D01*
X008783Y007922D01*
X008773Y007965D01*
X008767Y008009D01*
X008765Y008053D01*
M02*
