G75*
G70*
%OFA0B0*%
%FSLAX24Y24*%
%IPPOS*%
%LPD*%
%AMOC8*
5,1,8,0,0,1.08239X$1,22.5*
%
%ADD10C,0.0945*%
%ADD11R,0.0500X0.0220*%
%ADD12R,0.0220X0.0500*%
%ADD13R,0.0354X0.0276*%
%ADD14C,0.0315*%
%ADD15C,0.0180*%
%ADD16R,0.0413X0.0512*%
%ADD17R,0.0276X0.0354*%
%ADD18C,0.0060*%
%ADD19C,0.0280*%
%ADD20C,0.0472*%
%ADD21C,0.0080*%
D10*
X004686Y004180D03*
X003616Y006013D03*
X008797Y004385D03*
X009265Y008053D03*
D11*
X008421Y007342D03*
X008421Y007027D03*
X008421Y006712D03*
X008421Y006397D03*
X008421Y006082D03*
X008421Y005767D03*
X008421Y005452D03*
X008421Y005137D03*
X005041Y005137D03*
X005041Y005452D03*
X005041Y005767D03*
X005041Y006082D03*
X005041Y006397D03*
X005041Y006712D03*
X005041Y007027D03*
X005041Y007342D03*
D12*
X005629Y007930D03*
X005944Y007930D03*
X006259Y007930D03*
X006574Y007930D03*
X006889Y007930D03*
X007204Y007930D03*
X007519Y007930D03*
X007834Y007930D03*
X007834Y004550D03*
X007519Y004550D03*
X007204Y004550D03*
X006889Y004550D03*
X006574Y004550D03*
X006259Y004550D03*
X005944Y004550D03*
X005629Y004550D03*
D13*
X004446Y004988D03*
X004446Y005500D03*
X004458Y005893D03*
X004458Y006404D03*
X004283Y006745D03*
X003835Y006750D03*
X003414Y006746D03*
X003414Y007257D03*
X003835Y007262D03*
X004100Y007621D03*
X004283Y007257D03*
X004520Y007631D03*
X005110Y007694D03*
X004520Y008142D03*
X004100Y008132D03*
X005110Y008206D03*
X005506Y008881D03*
X005932Y008878D03*
X006354Y008873D03*
X006785Y008872D03*
X006785Y009384D03*
X006354Y009385D03*
X005932Y009390D03*
X005506Y009393D03*
X007605Y009481D03*
X008028Y009292D03*
X007605Y008969D03*
X008028Y008780D03*
X007894Y004059D03*
X007420Y004048D03*
X007420Y003536D03*
X007894Y003547D03*
D14*
X005119Y003561D03*
X005494Y003389D03*
X005893Y003231D03*
X003908Y004486D03*
X003738Y004875D03*
X003535Y005230D03*
D15*
X005426Y008455D02*
X005446Y008455D01*
X005426Y008455D02*
X005426Y008575D01*
X005446Y008575D01*
X005446Y008455D01*
X005776Y008455D02*
X005796Y008455D01*
X005776Y008455D02*
X005776Y008575D01*
X005796Y008575D01*
X005796Y008455D01*
X005154Y008755D02*
X005134Y008755D01*
X005154Y008755D02*
X005154Y008635D01*
X005134Y008635D01*
X005134Y008755D01*
X004804Y008755D02*
X004784Y008755D01*
X004804Y008755D02*
X004804Y008635D01*
X004784Y008635D01*
X004784Y008755D01*
X007125Y008941D02*
X007125Y008961D01*
X007245Y008961D01*
X007245Y008941D01*
X007125Y008941D01*
X007221Y008615D02*
X007241Y008615D01*
X007241Y008495D01*
X007221Y008495D01*
X007221Y008615D01*
X007571Y008615D02*
X007591Y008615D01*
X007591Y008495D01*
X007571Y008495D01*
X007571Y008615D01*
X008379Y008700D02*
X008399Y008700D01*
X008379Y008700D02*
X008379Y008820D01*
X008399Y008820D01*
X008399Y008700D01*
X008729Y008700D02*
X008749Y008700D01*
X008729Y008700D02*
X008729Y008820D01*
X008749Y008820D01*
X008749Y008700D01*
X007125Y009291D02*
X007125Y009311D01*
X007245Y009311D01*
X007245Y009291D01*
X007125Y009291D01*
X009386Y007228D02*
X009406Y007228D01*
X009386Y007228D02*
X009386Y007348D01*
X009406Y007348D01*
X009406Y007228D01*
X009736Y007228D02*
X009756Y007228D01*
X009736Y007228D02*
X009736Y007348D01*
X009756Y007348D01*
X009756Y007228D01*
D16*
X009834Y006765D03*
X009105Y006765D03*
X009105Y005860D03*
X009834Y005860D03*
D17*
X009711Y005292D03*
X009199Y005292D03*
X008937Y009158D03*
X008426Y009158D03*
X007870Y009862D03*
X007358Y009862D03*
D18*
X007319Y009894D01*
X007452Y009910D01*
X007485Y009931D01*
X007088Y009963D01*
X006968Y009983D01*
X006879Y010067D01*
X006891Y009655D02*
X007049Y009631D01*
X007605Y009481D01*
X007335Y009226D02*
X007952Y009226D01*
X007973Y009187D01*
X007973Y009385D01*
X008028Y009292D01*
X008081Y009277D01*
X008426Y009158D01*
X008388Y009243D01*
X008389Y008760D01*
X008400Y008745D01*
X008400Y008542D01*
X008138Y008479D01*
X007656Y008479D01*
X007581Y008555D01*
X007553Y008878D02*
X007605Y008969D01*
X007258Y008622D01*
X007258Y008587D01*
X007243Y008587D01*
X007231Y008555D01*
X007258Y008587D02*
X007111Y008530D01*
X006542Y008530D01*
X006259Y008168D01*
X006259Y007930D01*
X006551Y007952D02*
X006574Y007930D01*
X006551Y007952D02*
X006551Y008238D01*
X006613Y008300D01*
X008459Y008300D01*
X008606Y008472D01*
X008737Y008753D01*
X008739Y008760D01*
X008865Y009100D01*
X008937Y009158D01*
X008782Y009368D01*
X008782Y009551D01*
X008370Y009783D01*
X007870Y009862D01*
X007335Y009226D02*
X007219Y009283D01*
X007185Y009301D01*
X007182Y009283D01*
X007028Y009130D01*
X006491Y009130D01*
X006445Y009175D01*
X006445Y009389D01*
X006354Y009385D01*
X006310Y009446D01*
X005932Y009390D01*
X006007Y009300D01*
X005837Y009143D01*
X005096Y009138D01*
X005102Y008840D01*
X005119Y008832D01*
X005108Y008825D01*
X005108Y009081D01*
X005119Y008832D02*
X005130Y008737D01*
X005144Y008702D01*
X005144Y008695D01*
X005231Y008609D01*
X005436Y008515D01*
X005638Y008296D02*
X005638Y007938D01*
X005629Y007930D01*
X005422Y008045D02*
X005422Y007488D01*
X005488Y007208D01*
X005488Y006667D01*
X005457Y006410D01*
X005054Y006410D01*
X005041Y006397D01*
X005021Y006417D01*
X004586Y006419D01*
X004564Y006496D01*
X004458Y006404D01*
X004483Y006430D01*
X004283Y006745D01*
X004121Y006750D01*
X003835Y006750D01*
X003966Y006784D01*
X003414Y006746D01*
X003331Y006784D01*
X003055Y007005D01*
X003414Y007257D02*
X003500Y007318D01*
X003589Y007011D01*
X004519Y007009D01*
X004675Y006701D01*
X004803Y006701D01*
X005036Y006707D01*
X005041Y006712D01*
X005041Y007027D02*
X004794Y007027D01*
X004486Y007196D01*
X004461Y007217D01*
X004445Y007237D02*
X004445Y007240D01*
X004283Y007257D01*
X004180Y007330D02*
X003835Y007262D01*
X004155Y007734D01*
X004100Y007621D01*
X004180Y007330D02*
X004445Y007237D01*
X004486Y007196D01*
X004520Y007631D02*
X004614Y007687D01*
X004818Y007692D01*
X004818Y007765D01*
X004818Y008364D01*
X004794Y008480D01*
X004794Y008695D01*
X004544Y008819D02*
X004520Y008142D01*
X004223Y008351D02*
X004100Y008132D01*
X004223Y008351D02*
X004062Y008953D01*
X004544Y008819D02*
X004576Y009337D01*
X005050Y009666D02*
X005171Y009595D01*
X005506Y009393D01*
X005850Y009784D02*
X006010Y009677D01*
X006465Y009677D01*
X006637Y009583D01*
X006807Y009392D01*
X006785Y009384D01*
X006891Y009655D02*
X006362Y009935D01*
X006213Y010020D01*
X005850Y009784D02*
X005606Y009907D01*
X005506Y008881D02*
X005985Y008945D01*
X005985Y008729D01*
X005786Y008515D01*
X005865Y008524D01*
X005638Y008296D01*
X005944Y008168D02*
X005944Y007930D01*
X005944Y008168D02*
X006195Y008496D01*
X006260Y008619D01*
X006354Y008873D01*
X006808Y008903D01*
X006785Y008872D01*
X007132Y008873D01*
X007185Y008951D01*
X007553Y008878D02*
X008028Y008780D01*
X008310Y008049D02*
X008371Y008055D01*
X009056Y007303D01*
X009056Y006963D01*
X008805Y006712D01*
X008421Y006712D01*
X008016Y006712D01*
X007926Y006622D01*
X007926Y006150D01*
X008015Y006061D01*
X008400Y006061D01*
X008421Y006082D01*
X008412Y005776D02*
X008685Y005789D01*
X008793Y005924D01*
X008793Y006281D01*
X008673Y006408D01*
X008432Y006408D01*
X008421Y006397D01*
X009105Y006765D02*
X009396Y006923D01*
X009396Y007288D01*
X009698Y007575D01*
X009969Y007575D01*
X010159Y007037D01*
X010159Y006330D01*
X009867Y005979D01*
X009834Y005860D01*
X009867Y005468D01*
X009711Y005292D01*
X009642Y004845D01*
X009407Y004610D01*
X009197Y004635D01*
X008797Y004385D01*
X008701Y004139D01*
X008701Y003994D01*
X007878Y003535D01*
X007894Y003547D01*
X007446Y003533D01*
X007420Y003536D01*
X007415Y003531D01*
X007375Y003631D01*
X006245Y003631D01*
X005893Y003231D01*
X005899Y003259D01*
X005494Y003389D02*
X005908Y003764D01*
X005944Y004550D01*
X005629Y004550D02*
X005629Y003778D01*
X005119Y003561D01*
X003908Y004486D02*
X003908Y004537D01*
X004446Y004988D01*
X004427Y004991D01*
X004341Y004985D01*
X004546Y004929D01*
X004978Y004825D01*
X005026Y005122D02*
X004800Y005122D01*
X004679Y005243D01*
X004244Y005241D01*
X003738Y004889D01*
X003738Y004875D01*
X003535Y005230D02*
X003610Y005305D01*
X003866Y005305D01*
X003897Y005330D01*
X003920Y005386D01*
X004157Y005496D01*
X004208Y005503D01*
X004446Y005500D01*
X004413Y005452D01*
X005041Y005452D01*
X005041Y005137D02*
X005026Y005122D01*
X005830Y005048D02*
X005844Y005034D01*
X005856Y005143D01*
X005830Y005048D02*
X005830Y007407D01*
X006309Y007340D02*
X006309Y005087D01*
X006385Y005011D01*
X006305Y005053D01*
X006739Y005019D02*
X006767Y005027D01*
X006828Y004900D01*
X007747Y004901D01*
X008074Y004899D01*
X008068Y005615D01*
X008080Y005771D01*
X008412Y005776D01*
X008421Y005767D01*
X008421Y005452D02*
X009226Y005452D01*
X009246Y005472D01*
X009246Y005323D01*
X009199Y005292D01*
X009246Y005472D02*
X009105Y005860D01*
X009455Y006221D02*
X009483Y006273D01*
X009975Y006677D01*
X009834Y006765D01*
X009746Y007001D01*
X009746Y007288D01*
X009056Y006963D02*
X009105Y006765D01*
X009455Y006221D02*
X009455Y005047D01*
X009396Y005011D01*
X008892Y005011D01*
X008588Y005031D01*
X008421Y005137D01*
X008140Y004892D02*
X008113Y004877D01*
X008086Y004914D01*
X008074Y004899D01*
X008140Y004892D02*
X008201Y004734D01*
X008201Y004236D01*
X007841Y004007D01*
X007856Y004055D01*
X007894Y004059D01*
X007558Y004042D01*
X007420Y004048D01*
X007412Y005148D02*
X007472Y005349D01*
X007481Y007079D01*
X007204Y007356D01*
X007204Y007930D01*
X007519Y007930D02*
X007519Y007350D01*
X007694Y007175D01*
X007694Y005514D01*
X007768Y005173D01*
X005041Y006082D02*
X004647Y006082D01*
X004458Y005893D01*
X003414Y007257D02*
X003529Y007580D01*
X003383Y007864D01*
X004818Y007692D02*
X005110Y007694D01*
X005041Y007727D01*
X005041Y007342D01*
X005422Y008045D02*
X005154Y008304D01*
X005132Y008313D01*
X005130Y008737D01*
X005154Y008304D02*
X005110Y008206D01*
X005932Y008878D02*
X005985Y008945D01*
X006889Y007930D02*
X006805Y007581D01*
X006550Y007581D01*
X006309Y007340D01*
X007834Y007930D02*
X008072Y007930D01*
X008377Y007690D01*
D19*
X008377Y007690D03*
X008371Y008055D03*
X006658Y007347D03*
X005830Y007407D03*
X005108Y009081D03*
X003055Y007005D03*
X003897Y005330D03*
X004978Y004825D03*
X005844Y005034D03*
X006385Y005011D03*
X006739Y005019D03*
X007060Y005143D03*
X007412Y005148D03*
X007768Y005173D03*
D20*
X006996Y003173D03*
X006422Y003173D03*
X003383Y007864D03*
X003665Y008429D03*
X004062Y008953D03*
X004576Y009337D03*
X005050Y009666D03*
X005606Y009907D03*
X006213Y010020D03*
X006879Y010067D03*
D21*
X006658Y007347D02*
X006658Y007302D01*
X006486Y007130D01*
X006486Y005523D01*
X006644Y005365D01*
X006651Y005361D01*
X006942Y005351D01*
X007094Y005199D01*
X007060Y005143D01*
X005464Y004957D02*
X004924Y004416D01*
X004923Y004416D01*
X004686Y004180D01*
X005464Y004957D02*
X005464Y005767D01*
X005041Y005767D01*
M02*
