G75*
G70*
%OFA0B0*%
%FSLAX24Y24*%
%IPPOS*%
%LPD*%
%AMOC8*
5,1,8,0,0,1.08239X$1,22.5*
%
%ADD10R,0.0356X0.0434*%
%ADD11C,0.1025*%
%ADD12R,0.0789X0.1340*%
%ADD13R,0.0434X0.0356*%
%ADD14R,0.0592X0.0375*%
%ADD15R,0.1930X0.1970*%
%ADD16R,0.0474X0.0631*%
%ADD17R,0.0482X0.0241*%
%ADD18R,0.0592X0.0671*%
%ADD19C,0.0360*%
%ADD20C,0.0552*%
D10*
X007754Y009283D03*
X008266Y009283D03*
D11*
X004686Y004180D03*
X003616Y006013D03*
X008797Y004385D03*
X009265Y008053D03*
D12*
X007849Y004053D03*
X005644Y004053D03*
D13*
X003877Y007199D03*
X003877Y007711D03*
X007104Y007491D03*
X007104Y008003D03*
X007079Y008706D03*
X007079Y009218D03*
D14*
X007583Y007066D03*
X007583Y006566D03*
X007583Y006066D03*
X007583Y005566D03*
X006673Y005499D03*
X006673Y005999D03*
X006673Y006499D03*
X006673Y006999D03*
X004449Y006999D03*
X004449Y006499D03*
X004449Y005999D03*
X004449Y005499D03*
X009808Y005566D03*
X009808Y006066D03*
X009808Y006566D03*
X009808Y007066D03*
D15*
X008981Y006316D03*
X005276Y006249D03*
D16*
X007923Y007863D03*
X008297Y008729D03*
X007549Y008729D03*
D17*
X006253Y008273D03*
X006253Y008018D03*
X006253Y007762D03*
X006253Y007506D03*
X004364Y007506D03*
X004364Y007762D03*
X004364Y008018D03*
X004364Y008273D03*
D18*
X005657Y008886D03*
X006405Y008886D03*
D19*
X005108Y009081D03*
X005830Y007407D03*
X006658Y007347D03*
X008377Y007690D03*
X008371Y008055D03*
X007768Y005173D03*
X007412Y005148D03*
X007060Y005143D03*
X006739Y005019D03*
X006385Y005011D03*
X005844Y005034D03*
X004978Y004825D03*
X003897Y005330D03*
X003055Y007005D03*
D20*
X003383Y007864D03*
X003665Y008429D03*
X004062Y008953D03*
X004576Y009337D03*
X005050Y009666D03*
X005606Y009907D03*
X006213Y010020D03*
X006879Y010067D03*
X006996Y003173D03*
X006422Y003173D03*
M02*
