%
M48
M72
T01C0.0160
T02C0.0315
T03C0.0630
%
T01
X4978Y4825
X5844Y5034
X6385Y5011
X6739Y5019
X7060Y5143
X7412Y5148
X7768Y5173
X6658Y7347
X5830Y7407
X5108Y9081
X3055Y7005
X3897Y5330
X8377Y7690
X8371Y8055
T02
X6213Y10020
X5606Y9907
X5050Y9666
X4576Y9337
X4062Y8953
X3665Y8429
X3383Y7864
X6879Y10067
X6996Y3173
X6422Y3173
T03
X4686Y4180
X3616Y6013
X8797Y4385
X9265Y8053
M30
