G75*
G70*
%OFA0B0*%
%FSLAX24Y24*%
%IPPOS*%
%LPD*%
%AMOC8*
5,1,8,0,0,1.08239X$1,22.5*
%
%ADD10R,0.1419X0.0501*%
%ADD11R,0.0434X0.0356*%
%ADD12C,0.1025*%
%ADD13R,0.0580X0.0300*%
%ADD14R,0.0300X0.0580*%
%ADD15R,0.0356X0.0434*%
%ADD16C,0.0395*%
%ADD17C,0.0474*%
%ADD18R,0.0530X0.0530*%
%ADD19C,0.0252*%
%ADD20R,0.0493X0.0592*%
%ADD21C,0.0552*%
%ADD22C,0.0360*%
D10*
X006613Y000350D03*
D11*
X005716Y003889D03*
X005716Y004401D03*
X003516Y006618D03*
X003516Y007129D03*
D12*
X003982Y003901D03*
X003291Y004756D03*
X007784Y003564D03*
X009446Y007194D03*
X008947Y008322D03*
X008053Y009350D03*
D13*
X007489Y007829D03*
X007489Y007515D03*
X007489Y007200D03*
X007489Y006885D03*
X007489Y006570D03*
X007489Y006255D03*
X007489Y005940D03*
X007489Y005625D03*
X004109Y005625D03*
X004109Y005940D03*
X004109Y006255D03*
X004109Y006570D03*
X004109Y006885D03*
X004109Y007200D03*
X004109Y007515D03*
X004109Y007829D03*
D14*
X004697Y008417D03*
X005012Y008417D03*
X005327Y008417D03*
X005642Y008417D03*
X005957Y008417D03*
X006272Y008417D03*
X006587Y008417D03*
X006902Y008417D03*
X006902Y005037D03*
X006587Y005037D03*
X006272Y005037D03*
X005957Y005037D03*
X005642Y005037D03*
X005327Y005037D03*
X005012Y005037D03*
X004697Y005037D03*
D15*
X003536Y006046D03*
X003024Y006046D03*
X008077Y004674D03*
X008588Y004674D03*
D16*
X005580Y002813D03*
X005110Y002919D03*
X002683Y005290D03*
X002539Y005671D03*
D17*
X002438Y006131D03*
X004644Y003149D03*
D18*
G36*
X002963Y008792D02*
X003368Y009133D01*
X003709Y008728D01*
X003304Y008387D01*
X002963Y008792D01*
G37*
G36*
X003997Y009660D02*
X004402Y010001D01*
X004743Y009596D01*
X004338Y009255D01*
X003997Y009660D01*
G37*
D19*
X009305Y005870D02*
X009305Y005842D01*
X009177Y005842D01*
X009177Y005870D01*
X009305Y005870D01*
X009305Y005520D02*
X009305Y005492D01*
X009177Y005492D01*
X009177Y005520D01*
X009305Y005520D01*
D20*
X008812Y005243D03*
X008084Y005243D03*
X008084Y006148D03*
X008812Y006148D03*
D21*
X009717Y005679D03*
X009489Y005039D03*
X009201Y004448D03*
X007083Y002940D03*
X006480Y002851D03*
X002409Y006676D03*
X002448Y007261D03*
X002613Y007815D03*
X002864Y008346D03*
X005445Y010008D03*
X006035Y010005D03*
X006610Y010009D03*
D22*
X005966Y008950D03*
X005471Y008915D03*
X005314Y009569D03*
X005041Y007833D03*
X004565Y007451D03*
X003456Y007610D03*
X003232Y007917D03*
X003101Y006984D03*
X002858Y006693D03*
X003122Y006452D03*
X004890Y005765D03*
X006937Y005496D03*
X008118Y006744D03*
X008571Y006637D03*
X007997Y007594D03*
X005977Y003073D03*
M02*
