G75*
%MOIN*%
%OFA0B0*%
%FSLAX24Y24*%
%IPPOS*%
%LPD*%
%AMOC8*
5,1,8,0,0,1.08239X$1,22.5*
%
%ADD10C,0.0000*%
%ADD11C,0.0010*%
%ADD12C,0.0060*%
%ADD13C,0.0020*%
%ADD14C,0.0050*%
%ADD15C,0.0028*%
%ADD16R,0.0276X0.0118*%
%ADD17R,0.0079X0.0079*%
%ADD18C,0.0040*%
%ADD19C,0.0080*%
%ADD20R,0.0620X0.0240*%
%ADD21C,0.0100*%
%ADD22R,0.0789X0.0673*%
D10*
X000100Y000932D02*
X000100Y007625D01*
X031596Y007625D01*
X031596Y000932D01*
X000100Y000932D01*
D11*
X003342Y001199D02*
X003342Y001350D01*
X003417Y001350D01*
X003442Y001325D01*
X003442Y001275D01*
X003417Y001249D01*
X003342Y001249D01*
X003392Y001249D02*
X003442Y001199D01*
X003490Y001199D02*
X003590Y001199D01*
X003540Y001199D02*
X003540Y001350D01*
X003490Y001300D01*
X003637Y001300D02*
X003662Y001275D01*
X003737Y001275D01*
X003737Y001325D02*
X003712Y001350D01*
X003662Y001350D01*
X003637Y001325D01*
X003637Y001300D01*
X003637Y001224D02*
X003662Y001199D01*
X003712Y001199D01*
X003737Y001224D01*
X003737Y001325D01*
X005974Y001345D02*
X005974Y001195D01*
X005974Y001245D02*
X006049Y001245D01*
X006074Y001270D01*
X006074Y001320D01*
X006049Y001345D01*
X005974Y001345D01*
X006024Y001245D02*
X006074Y001195D01*
X006121Y001195D02*
X006221Y001195D01*
X006268Y001195D02*
X006268Y001220D01*
X006368Y001320D01*
X006368Y001345D01*
X006268Y001345D01*
X006171Y001345D02*
X006171Y001195D01*
X006121Y001295D02*
X006171Y001345D01*
X011406Y001343D02*
X011406Y001419D01*
X011431Y001444D01*
X011481Y001444D01*
X011506Y001419D01*
X011506Y001343D01*
X011556Y001343D02*
X011406Y001343D01*
X011506Y001394D02*
X011556Y001444D01*
X011531Y001491D02*
X011556Y001516D01*
X011556Y001566D01*
X011531Y001591D01*
X011481Y001591D01*
X011456Y001566D01*
X011456Y001541D01*
X011481Y001491D01*
X011406Y001491D01*
X011406Y001591D01*
X011431Y001638D02*
X011406Y001663D01*
X011406Y001713D01*
X011431Y001738D01*
X011531Y001638D01*
X011556Y001663D01*
X011556Y001713D01*
X011531Y001738D01*
X011431Y001738D01*
X011431Y001638D02*
X011531Y001638D01*
X011903Y001642D02*
X012053Y001642D01*
X012053Y001592D02*
X012053Y001692D01*
X011953Y001592D02*
X011903Y001642D01*
X011903Y001544D02*
X011903Y001444D01*
X011978Y001444D01*
X011953Y001494D01*
X011953Y001519D01*
X011978Y001544D01*
X012028Y001544D01*
X012053Y001519D01*
X012053Y001469D01*
X012028Y001444D01*
X012053Y001397D02*
X012003Y001347D01*
X012003Y001372D02*
X012003Y001297D01*
X012053Y001297D02*
X011903Y001297D01*
X011903Y001372D01*
X011928Y001397D01*
X011978Y001397D01*
X012003Y001372D01*
X013729Y001846D02*
X013754Y001821D01*
X013804Y001821D01*
X013829Y001846D01*
X013876Y001846D02*
X013901Y001821D01*
X013952Y001821D01*
X013977Y001846D01*
X013977Y001871D01*
X013952Y001896D01*
X013927Y001896D01*
X013952Y001896D02*
X013977Y001921D01*
X013977Y001946D01*
X013952Y001971D01*
X013901Y001971D01*
X013876Y001946D01*
X013829Y001946D02*
X013804Y001971D01*
X013754Y001971D01*
X013729Y001946D01*
X013729Y001846D01*
X016450Y002922D02*
X016450Y003072D01*
X016525Y003072D01*
X016550Y003047D01*
X016550Y002997D01*
X016525Y002972D01*
X016450Y002972D01*
X016500Y002972D02*
X016550Y002922D01*
X016597Y002947D02*
X016597Y002972D01*
X016622Y002997D01*
X016672Y002997D01*
X016697Y002972D01*
X016697Y002947D01*
X016672Y002922D01*
X016622Y002922D01*
X016597Y002947D01*
X016622Y002997D02*
X016597Y003022D01*
X016597Y003047D01*
X016622Y003072D01*
X016672Y003072D01*
X016697Y003047D01*
X016697Y003022D01*
X016672Y002997D01*
X016372Y003848D02*
X016397Y003873D01*
X016397Y003898D01*
X016372Y003923D01*
X016296Y003923D01*
X016296Y003873D01*
X016322Y003848D01*
X016372Y003848D01*
X016296Y003923D02*
X016347Y003973D01*
X016397Y003998D01*
X016249Y003973D02*
X016249Y003923D01*
X016224Y003898D01*
X016149Y003898D01*
X016149Y003848D02*
X016149Y003998D01*
X016224Y003998D01*
X016249Y003973D01*
X016199Y003898D02*
X016249Y003848D01*
X014981Y004516D02*
X014881Y004666D01*
X014833Y004666D02*
X014733Y004666D01*
X014783Y004666D02*
X014783Y004516D01*
X014881Y004516D02*
X014981Y004666D01*
X014991Y005289D02*
X014891Y005439D01*
X014843Y005414D02*
X014843Y005364D01*
X014818Y005339D01*
X014743Y005339D01*
X014793Y005339D02*
X014843Y005289D01*
X014891Y005289D02*
X014991Y005439D01*
X014843Y005414D02*
X014818Y005439D01*
X014743Y005439D01*
X014743Y005289D01*
X015275Y005977D02*
X015275Y006127D01*
X015350Y006127D01*
X015375Y006102D01*
X015375Y006052D01*
X015350Y006027D01*
X015275Y006027D01*
X015325Y006027D02*
X015375Y005977D01*
X015422Y005977D02*
X015422Y006002D01*
X015522Y006102D01*
X015522Y006127D01*
X015422Y006127D01*
X014706Y007305D02*
X014606Y007305D01*
X014656Y007305D02*
X014656Y007455D01*
X014606Y007405D01*
X014559Y007430D02*
X014534Y007455D01*
X014484Y007455D01*
X014459Y007430D01*
X014459Y007330D01*
X014484Y007305D01*
X014534Y007305D01*
X014559Y007330D01*
X020010Y007052D02*
X020010Y006952D01*
X020035Y006927D01*
X020085Y006927D01*
X020110Y006952D01*
X020157Y006927D02*
X020257Y007027D01*
X020257Y007052D01*
X020232Y007077D01*
X020182Y007077D01*
X020157Y007052D01*
X020110Y007052D02*
X020085Y007077D01*
X020035Y007077D01*
X020010Y007052D01*
X020157Y006927D02*
X020257Y006927D01*
X014410Y004031D02*
X014385Y004056D01*
X014335Y004056D01*
X014310Y004031D01*
X014263Y004056D02*
X014263Y003931D01*
X014238Y003906D01*
X014187Y003906D01*
X014162Y003931D01*
X014162Y004056D01*
X014310Y003906D02*
X014410Y004006D01*
X014410Y004031D01*
X014410Y003906D02*
X014310Y003906D01*
X017667Y002044D02*
X017667Y001919D01*
X017692Y001894D01*
X017742Y001894D01*
X017767Y001919D01*
X017767Y002044D01*
X017815Y001994D02*
X017865Y002044D01*
X017865Y001894D01*
X017815Y001894D02*
X017915Y001894D01*
X016903Y001873D02*
X016802Y001873D01*
X016877Y001948D01*
X016877Y001798D01*
X016755Y001798D02*
X016705Y001848D01*
X016730Y001848D02*
X016655Y001848D01*
X016655Y001798D02*
X016655Y001948D01*
X016730Y001948D01*
X016755Y001923D01*
X016755Y001873D01*
X016730Y001848D01*
X017244Y001321D02*
X017219Y001296D01*
X017219Y001196D01*
X017244Y001171D01*
X017294Y001171D01*
X017319Y001196D01*
X017366Y001171D02*
X017466Y001171D01*
X017416Y001171D02*
X017416Y001321D01*
X017366Y001271D01*
X017319Y001296D02*
X017294Y001321D01*
X017244Y001321D01*
X017514Y001296D02*
X017514Y001196D01*
X017614Y001296D01*
X017614Y001196D01*
X017589Y001171D01*
X017539Y001171D01*
X017514Y001196D01*
X017514Y001296D02*
X017539Y001321D01*
X017589Y001321D01*
X017614Y001296D01*
X021793Y001862D02*
X021818Y001837D01*
X021868Y001837D01*
X021893Y001862D01*
X021940Y001862D02*
X021940Y001837D01*
X021940Y001862D02*
X022040Y001963D01*
X022040Y001988D01*
X021940Y001988D01*
X021893Y001963D02*
X021868Y001988D01*
X021818Y001988D01*
X021793Y001963D01*
X021793Y001862D01*
X022468Y001799D02*
X022468Y001699D01*
X022493Y001674D01*
X022543Y001674D01*
X022568Y001699D01*
X022616Y001699D02*
X022641Y001674D01*
X022691Y001674D01*
X022716Y001699D01*
X022716Y001724D01*
X022691Y001749D01*
X022616Y001749D01*
X022616Y001699D01*
X022616Y001749D02*
X022666Y001799D01*
X022716Y001824D01*
X022568Y001799D02*
X022543Y001824D01*
X022493Y001824D01*
X022468Y001799D01*
X023710Y001263D02*
X023710Y001163D01*
X023735Y001138D01*
X023785Y001138D01*
X023810Y001163D01*
X023857Y001138D02*
X023957Y001138D01*
X024005Y001138D02*
X024105Y001138D01*
X024055Y001138D02*
X024055Y001288D01*
X024005Y001238D01*
X023907Y001288D02*
X023907Y001138D01*
X023857Y001238D02*
X023907Y001288D01*
X023810Y001263D02*
X023785Y001288D01*
X023735Y001288D01*
X023710Y001263D01*
X025356Y001601D02*
X025356Y001751D01*
X025381Y001676D02*
X025457Y001601D01*
X025504Y001626D02*
X025529Y001601D01*
X025604Y001601D01*
X025604Y001576D02*
X025579Y001551D01*
X025554Y001551D01*
X025604Y001576D02*
X025604Y001701D01*
X025651Y001751D02*
X025676Y001751D01*
X025676Y001601D01*
X025651Y001601D02*
X025701Y001601D01*
X025749Y001626D02*
X025774Y001601D01*
X025824Y001601D01*
X025849Y001651D02*
X025749Y001651D01*
X025749Y001676D02*
X025774Y001701D01*
X025824Y001701D01*
X025849Y001676D01*
X025849Y001651D01*
X025749Y001626D02*
X025749Y001676D01*
X025504Y001701D02*
X025504Y001626D01*
X025457Y001751D02*
X025356Y001651D01*
X026044Y001676D02*
X026144Y001676D01*
X026191Y001626D02*
X026216Y001651D01*
X026291Y001651D01*
X026291Y001676D02*
X026291Y001601D01*
X026216Y001601D01*
X026191Y001626D01*
X026144Y001601D02*
X026144Y001751D01*
X026216Y001701D02*
X026266Y001701D01*
X026291Y001676D01*
X026339Y001676D02*
X026339Y001626D01*
X026364Y001601D01*
X026439Y001601D01*
X026439Y001576D02*
X026439Y001701D01*
X026364Y001701D01*
X026339Y001676D01*
X026389Y001551D02*
X026414Y001551D01*
X026439Y001576D01*
X026486Y001601D02*
X026536Y001601D01*
X026511Y001601D02*
X026511Y001701D01*
X026486Y001701D01*
X026511Y001751D02*
X026511Y001776D01*
X026584Y001701D02*
X026659Y001701D01*
X026684Y001676D01*
X026684Y001601D01*
X026584Y001601D02*
X026584Y001701D01*
X026879Y001726D02*
X026904Y001751D01*
X026954Y001751D01*
X026979Y001726D01*
X026979Y001701D01*
X026879Y001601D01*
X026979Y001601D01*
X027026Y001626D02*
X027126Y001726D01*
X027126Y001626D01*
X027101Y001601D01*
X027051Y001601D01*
X027026Y001626D01*
X027026Y001726D01*
X027051Y001751D01*
X027101Y001751D01*
X027126Y001726D01*
X027173Y001701D02*
X027224Y001751D01*
X027224Y001601D01*
X027274Y001601D02*
X027173Y001601D01*
X027321Y001676D02*
X027421Y001676D01*
X027396Y001751D02*
X027321Y001676D01*
X027396Y001601D02*
X027396Y001751D01*
X028190Y001792D02*
X028190Y001692D01*
X028215Y001667D01*
X028266Y001667D01*
X028291Y001692D01*
X028338Y001692D02*
X028363Y001667D01*
X028413Y001667D01*
X028438Y001692D01*
X028438Y001792D01*
X028413Y001817D01*
X028363Y001817D01*
X028338Y001792D01*
X028338Y001767D01*
X028363Y001742D01*
X028438Y001742D01*
X028291Y001792D02*
X028266Y001817D01*
X028215Y001817D01*
X028190Y001792D01*
X029865Y001745D02*
X029965Y001745D01*
X030013Y001745D02*
X030013Y001595D01*
X030013Y001645D02*
X030088Y001645D01*
X030113Y001670D01*
X030113Y001720D01*
X030088Y001745D01*
X030013Y001745D01*
X029915Y001745D02*
X029915Y001595D01*
X030160Y001595D02*
X030260Y001595D01*
X030210Y001595D02*
X030210Y001745D01*
X030160Y001695D01*
X030225Y002659D02*
X030200Y002684D01*
X030225Y002659D02*
X030275Y002659D01*
X030300Y002684D01*
X030300Y002734D01*
X030275Y002759D01*
X030250Y002759D01*
X030200Y002734D01*
X030200Y002809D01*
X030300Y002809D01*
X030152Y002784D02*
X030152Y002734D01*
X030127Y002709D01*
X030052Y002709D01*
X030052Y002659D02*
X030052Y002809D01*
X030127Y002809D01*
X030152Y002784D01*
X030005Y002809D02*
X029905Y002809D01*
X029955Y002809D02*
X029955Y002659D01*
X029964Y003359D02*
X029964Y003509D01*
X029914Y003509D02*
X030014Y003509D01*
X030062Y003509D02*
X030137Y003509D01*
X030162Y003484D01*
X030162Y003434D01*
X030137Y003409D01*
X030062Y003409D01*
X030062Y003359D02*
X030062Y003509D01*
X030209Y003434D02*
X030309Y003434D01*
X030284Y003509D02*
X030209Y003434D01*
X030284Y003359D02*
X030284Y003509D01*
X028072Y003763D02*
X027972Y003763D01*
X028072Y003863D01*
X028072Y003888D01*
X028047Y003913D01*
X027997Y003913D01*
X027972Y003888D01*
X027925Y003888D02*
X027900Y003913D01*
X027825Y003913D01*
X027825Y003763D01*
X027900Y003763D01*
X027925Y003788D01*
X027925Y003888D01*
X026764Y003571D02*
X026714Y003546D01*
X026664Y003496D01*
X026739Y003496D01*
X026764Y003471D01*
X026764Y003446D01*
X026739Y003421D01*
X026689Y003421D01*
X026664Y003446D01*
X026664Y003496D01*
X026617Y003421D02*
X026516Y003421D01*
X026566Y003421D02*
X026566Y003571D01*
X026516Y003521D01*
X026469Y003546D02*
X026444Y003571D01*
X026394Y003571D01*
X026369Y003546D01*
X026369Y003521D01*
X026394Y003496D01*
X026444Y003496D01*
X026469Y003471D01*
X026469Y003446D01*
X026444Y003421D01*
X026394Y003421D01*
X026369Y003446D01*
X026322Y003446D02*
X026322Y003571D01*
X026222Y003571D02*
X026222Y003446D01*
X026247Y003421D01*
X026297Y003421D01*
X026322Y003446D01*
X026419Y003396D02*
X026419Y003596D01*
X024389Y002582D02*
X024364Y002607D01*
X024314Y002607D01*
X024289Y002582D01*
X024389Y002582D02*
X024389Y002557D01*
X024289Y002457D01*
X024389Y002457D01*
X024242Y002457D02*
X024142Y002457D01*
X024142Y002607D01*
X023007Y003332D02*
X022982Y003307D01*
X022932Y003307D01*
X022907Y003332D01*
X022860Y003332D02*
X022835Y003307D01*
X022785Y003307D01*
X022760Y003332D01*
X022760Y003432D01*
X022785Y003457D01*
X022835Y003457D01*
X022860Y003432D01*
X022907Y003457D02*
X022907Y003382D01*
X022957Y003407D01*
X022982Y003407D01*
X023007Y003382D01*
X023007Y003332D01*
X023007Y003457D02*
X022907Y003457D01*
X026044Y001751D02*
X026044Y001601D01*
X028429Y004891D02*
X028429Y005041D01*
X028504Y005041D01*
X028529Y005016D01*
X028529Y004966D01*
X028504Y004941D01*
X028429Y004941D01*
X028479Y004941D02*
X028529Y004891D01*
X028576Y004891D02*
X028676Y004891D01*
X028626Y004891D02*
X028626Y005041D01*
X028576Y004991D01*
X030703Y005505D02*
X030703Y005605D01*
X030728Y005630D01*
X030779Y005630D01*
X030804Y005605D01*
X030804Y005505D01*
X030779Y005480D01*
X030728Y005480D01*
X030703Y005505D01*
X030851Y005480D02*
X030851Y005630D01*
X030951Y005480D01*
X030951Y005630D01*
X029774Y007274D02*
X029724Y007274D01*
X029699Y007299D01*
X029699Y007349D02*
X029749Y007374D01*
X029774Y007374D01*
X029799Y007349D01*
X029799Y007299D01*
X029774Y007274D01*
X029699Y007349D02*
X029699Y007424D01*
X029799Y007424D01*
X029651Y007399D02*
X029651Y007349D01*
X029626Y007324D01*
X029551Y007324D01*
X029551Y007274D02*
X029551Y007424D01*
X029626Y007424D01*
X029651Y007399D01*
X029601Y007324D02*
X029651Y007274D01*
X008244Y007104D02*
X008194Y007079D01*
X008144Y007029D01*
X008219Y007029D01*
X008244Y007004D01*
X008244Y006979D01*
X008219Y006954D01*
X008169Y006954D01*
X008144Y006979D01*
X008144Y007029D01*
X008097Y007029D02*
X008071Y007004D01*
X007996Y007004D01*
X007996Y006954D02*
X007996Y007104D01*
X008071Y007104D01*
X008097Y007079D01*
X008097Y007029D01*
X007949Y007104D02*
X007849Y007104D01*
X007899Y007104D02*
X007899Y006954D01*
X007903Y006349D02*
X007903Y006199D01*
X008000Y006199D02*
X008000Y006349D01*
X008075Y006349D01*
X008100Y006324D01*
X008100Y006274D01*
X008075Y006249D01*
X008000Y006249D01*
X007953Y006349D02*
X007853Y006349D01*
X008147Y006324D02*
X008173Y006349D01*
X008223Y006349D01*
X008248Y006324D01*
X008248Y006299D01*
X008223Y006274D01*
X008248Y006249D01*
X008248Y006224D01*
X008223Y006199D01*
X008173Y006199D01*
X008147Y006224D01*
X008198Y006274D02*
X008223Y006274D01*
X008197Y005476D02*
X008147Y005476D01*
X008122Y005451D01*
X008075Y005451D02*
X008075Y005401D01*
X008050Y005376D01*
X007975Y005376D01*
X007975Y005326D02*
X007975Y005476D01*
X008050Y005476D01*
X008075Y005451D01*
X008197Y005476D02*
X008222Y005451D01*
X008222Y005426D01*
X008122Y005326D01*
X008222Y005326D01*
X007928Y005476D02*
X007828Y005476D01*
X007878Y005476D02*
X007878Y005326D01*
X004502Y005073D02*
X004402Y005073D01*
X004355Y005073D02*
X004255Y005073D01*
X004355Y005173D01*
X004355Y005198D01*
X004330Y005223D01*
X004280Y005223D01*
X004255Y005198D01*
X004208Y005198D02*
X004208Y005148D01*
X004183Y005123D01*
X004108Y005123D01*
X004158Y005123D02*
X004208Y005073D01*
X004108Y005073D02*
X004108Y005223D01*
X004183Y005223D01*
X004208Y005198D01*
X004402Y005173D02*
X004452Y005223D01*
X004452Y005073D01*
X002843Y005516D02*
X002818Y005491D01*
X002768Y005491D01*
X002743Y005516D01*
X002743Y005541D01*
X002768Y005566D01*
X002818Y005566D01*
X002843Y005541D01*
X002843Y005516D01*
X002818Y005566D02*
X002843Y005592D01*
X002843Y005617D01*
X002818Y005642D01*
X002768Y005642D01*
X002743Y005617D01*
X002743Y005592D01*
X002768Y005566D01*
X002696Y005491D02*
X002596Y005491D01*
X002549Y005491D02*
X002499Y005541D01*
X002524Y005541D02*
X002449Y005541D01*
X002449Y005491D02*
X002449Y005642D01*
X002524Y005642D01*
X002549Y005617D01*
X002549Y005566D01*
X002524Y005541D01*
X002596Y005592D02*
X002646Y005642D01*
X002646Y005491D01*
X003344Y003742D02*
X003419Y003742D01*
X003444Y003717D01*
X003444Y003667D01*
X003419Y003641D01*
X003344Y003641D01*
X003344Y003591D02*
X003344Y003742D01*
X003394Y003641D02*
X003444Y003591D01*
X003491Y003591D02*
X003591Y003591D01*
X003541Y003591D02*
X003541Y003742D01*
X003491Y003692D01*
X003639Y003717D02*
X003664Y003742D01*
X003714Y003742D01*
X003739Y003717D01*
X003739Y003692D01*
X003714Y003667D01*
X003739Y003641D01*
X003739Y003616D01*
X003714Y003591D01*
X003664Y003591D01*
X003639Y003616D01*
X003689Y003667D02*
X003714Y003667D01*
D12*
X016534Y006665D02*
X016534Y006965D01*
X017674Y006965D01*
X017674Y006665D01*
X016534Y006665D01*
X023905Y006619D02*
X023905Y006119D01*
X024155Y005869D01*
X025655Y005869D01*
X025905Y006119D01*
X025905Y006619D01*
X025655Y006869D01*
X024155Y006869D01*
X023905Y006619D01*
X024155Y005869D02*
X023905Y005619D01*
X023905Y005119D01*
X024155Y004869D01*
X025655Y004869D01*
X025905Y005119D01*
X025905Y005619D01*
X025655Y005869D01*
X025655Y004869D02*
X025905Y004619D01*
X025905Y004119D01*
X025655Y003869D01*
X024155Y003869D01*
X023905Y004119D01*
X023905Y004619D01*
X024155Y004869D01*
D13*
X024707Y003667D02*
X024753Y003667D01*
X024730Y003667D02*
X024730Y003551D01*
X024707Y003527D01*
X024683Y003527D01*
X024660Y003551D01*
X024807Y003597D02*
X024901Y003597D01*
X024877Y003527D02*
X024877Y003667D01*
X024807Y003597D01*
X016713Y006339D02*
X016620Y006339D01*
X016713Y006433D01*
X016713Y006456D01*
X016690Y006480D01*
X016643Y006480D01*
X016620Y006456D01*
X016566Y006480D02*
X016472Y006480D01*
X016519Y006480D02*
X016519Y006339D01*
D14*
X007422Y002292D02*
X007424Y002336D01*
X007430Y002380D01*
X007440Y002423D01*
X007453Y002465D01*
X007470Y002506D01*
X007491Y002545D01*
X007515Y002582D01*
X007542Y002617D01*
X007572Y002649D01*
X007605Y002679D01*
X007641Y002705D01*
X007678Y002729D01*
X007718Y002748D01*
X007759Y002765D01*
X007802Y002777D01*
X007845Y002786D01*
X007889Y002791D01*
X007933Y002792D01*
X007977Y002789D01*
X008021Y002782D01*
X008064Y002771D01*
X008106Y002757D01*
X008146Y002739D01*
X008185Y002717D01*
X008221Y002693D01*
X008255Y002665D01*
X008287Y002634D01*
X008316Y002600D01*
X008342Y002564D01*
X008364Y002526D01*
X008383Y002486D01*
X008398Y002444D01*
X008410Y002402D01*
X008418Y002358D01*
X008422Y002314D01*
X008422Y002270D01*
X008418Y002226D01*
X008410Y002182D01*
X008398Y002140D01*
X008383Y002098D01*
X008364Y002058D01*
X008342Y002020D01*
X008316Y001984D01*
X008287Y001950D01*
X008255Y001919D01*
X008221Y001891D01*
X008185Y001867D01*
X008146Y001845D01*
X008106Y001827D01*
X008064Y001813D01*
X008021Y001802D01*
X007977Y001795D01*
X007933Y001792D01*
X007889Y001793D01*
X007845Y001798D01*
X007802Y001807D01*
X007759Y001819D01*
X007718Y001836D01*
X007678Y001855D01*
X007641Y001879D01*
X007605Y001905D01*
X007572Y001935D01*
X007542Y001967D01*
X007515Y002002D01*
X007491Y002039D01*
X007470Y002078D01*
X007453Y002119D01*
X007440Y002161D01*
X007430Y002204D01*
X007424Y002248D01*
X007422Y002292D01*
X001718Y001678D02*
X001720Y001722D01*
X001726Y001766D01*
X001736Y001809D01*
X001749Y001851D01*
X001766Y001892D01*
X001787Y001931D01*
X001811Y001968D01*
X001838Y002003D01*
X001868Y002035D01*
X001901Y002065D01*
X001937Y002091D01*
X001974Y002115D01*
X002014Y002134D01*
X002055Y002151D01*
X002098Y002163D01*
X002141Y002172D01*
X002185Y002177D01*
X002229Y002178D01*
X002273Y002175D01*
X002317Y002168D01*
X002360Y002157D01*
X002402Y002143D01*
X002442Y002125D01*
X002481Y002103D01*
X002517Y002079D01*
X002551Y002051D01*
X002583Y002020D01*
X002612Y001986D01*
X002638Y001950D01*
X002660Y001912D01*
X002679Y001872D01*
X002694Y001830D01*
X002706Y001788D01*
X002714Y001744D01*
X002718Y001700D01*
X002718Y001656D01*
X002714Y001612D01*
X002706Y001568D01*
X002694Y001526D01*
X002679Y001484D01*
X002660Y001444D01*
X002638Y001406D01*
X002612Y001370D01*
X002583Y001336D01*
X002551Y001305D01*
X002517Y001277D01*
X002481Y001253D01*
X002442Y001231D01*
X002402Y001213D01*
X002360Y001199D01*
X002317Y001188D01*
X002273Y001181D01*
X002229Y001178D01*
X002185Y001179D01*
X002141Y001184D01*
X002098Y001193D01*
X002055Y001205D01*
X002014Y001222D01*
X001974Y001241D01*
X001937Y001265D01*
X001901Y001291D01*
X001868Y001321D01*
X001838Y001353D01*
X001811Y001388D01*
X001787Y001425D01*
X001766Y001464D01*
X001749Y001505D01*
X001736Y001547D01*
X001726Y001590D01*
X001720Y001634D01*
X001718Y001678D01*
X000309Y001666D02*
X000311Y001710D01*
X000317Y001754D01*
X000327Y001797D01*
X000340Y001839D01*
X000357Y001880D01*
X000378Y001919D01*
X000402Y001956D01*
X000429Y001991D01*
X000459Y002023D01*
X000492Y002053D01*
X000528Y002079D01*
X000565Y002103D01*
X000605Y002122D01*
X000646Y002139D01*
X000689Y002151D01*
X000732Y002160D01*
X000776Y002165D01*
X000820Y002166D01*
X000864Y002163D01*
X000908Y002156D01*
X000951Y002145D01*
X000993Y002131D01*
X001033Y002113D01*
X001072Y002091D01*
X001108Y002067D01*
X001142Y002039D01*
X001174Y002008D01*
X001203Y001974D01*
X001229Y001938D01*
X001251Y001900D01*
X001270Y001860D01*
X001285Y001818D01*
X001297Y001776D01*
X001305Y001732D01*
X001309Y001688D01*
X001309Y001644D01*
X001305Y001600D01*
X001297Y001556D01*
X001285Y001514D01*
X001270Y001472D01*
X001251Y001432D01*
X001229Y001394D01*
X001203Y001358D01*
X001174Y001324D01*
X001142Y001293D01*
X001108Y001265D01*
X001072Y001241D01*
X001033Y001219D01*
X000993Y001201D01*
X000951Y001187D01*
X000908Y001176D01*
X000864Y001169D01*
X000820Y001166D01*
X000776Y001167D01*
X000732Y001172D01*
X000689Y001181D01*
X000646Y001193D01*
X000605Y001210D01*
X000565Y001229D01*
X000528Y001253D01*
X000492Y001279D01*
X000459Y001309D01*
X000429Y001341D01*
X000402Y001376D01*
X000378Y001413D01*
X000357Y001452D01*
X000340Y001493D01*
X000327Y001535D01*
X000317Y001578D01*
X000311Y001622D01*
X000309Y001666D01*
X000279Y002917D02*
X000281Y002961D01*
X000287Y003005D01*
X000297Y003048D01*
X000310Y003090D01*
X000327Y003131D01*
X000348Y003170D01*
X000372Y003207D01*
X000399Y003242D01*
X000429Y003274D01*
X000462Y003304D01*
X000498Y003330D01*
X000535Y003354D01*
X000575Y003373D01*
X000616Y003390D01*
X000659Y003402D01*
X000702Y003411D01*
X000746Y003416D01*
X000790Y003417D01*
X000834Y003414D01*
X000878Y003407D01*
X000921Y003396D01*
X000963Y003382D01*
X001003Y003364D01*
X001042Y003342D01*
X001078Y003318D01*
X001112Y003290D01*
X001144Y003259D01*
X001173Y003225D01*
X001199Y003189D01*
X001221Y003151D01*
X001240Y003111D01*
X001255Y003069D01*
X001267Y003027D01*
X001275Y002983D01*
X001279Y002939D01*
X001279Y002895D01*
X001275Y002851D01*
X001267Y002807D01*
X001255Y002765D01*
X001240Y002723D01*
X001221Y002683D01*
X001199Y002645D01*
X001173Y002609D01*
X001144Y002575D01*
X001112Y002544D01*
X001078Y002516D01*
X001042Y002492D01*
X001003Y002470D01*
X000963Y002452D01*
X000921Y002438D01*
X000878Y002427D01*
X000834Y002420D01*
X000790Y002417D01*
X000746Y002418D01*
X000702Y002423D01*
X000659Y002432D01*
X000616Y002444D01*
X000575Y002461D01*
X000535Y002480D01*
X000498Y002504D01*
X000462Y002530D01*
X000429Y002560D01*
X000399Y002592D01*
X000372Y002627D01*
X000348Y002664D01*
X000327Y002703D01*
X000310Y002744D01*
X000297Y002786D01*
X000287Y002829D01*
X000281Y002873D01*
X000279Y002917D01*
X000330Y004740D02*
X000332Y004784D01*
X000338Y004828D01*
X000348Y004871D01*
X000361Y004913D01*
X000378Y004954D01*
X000399Y004993D01*
X000423Y005030D01*
X000450Y005065D01*
X000480Y005097D01*
X000513Y005127D01*
X000549Y005153D01*
X000586Y005177D01*
X000626Y005196D01*
X000667Y005213D01*
X000710Y005225D01*
X000753Y005234D01*
X000797Y005239D01*
X000841Y005240D01*
X000885Y005237D01*
X000929Y005230D01*
X000972Y005219D01*
X001014Y005205D01*
X001054Y005187D01*
X001093Y005165D01*
X001129Y005141D01*
X001163Y005113D01*
X001195Y005082D01*
X001224Y005048D01*
X001250Y005012D01*
X001272Y004974D01*
X001291Y004934D01*
X001306Y004892D01*
X001318Y004850D01*
X001326Y004806D01*
X001330Y004762D01*
X001330Y004718D01*
X001326Y004674D01*
X001318Y004630D01*
X001306Y004588D01*
X001291Y004546D01*
X001272Y004506D01*
X001250Y004468D01*
X001224Y004432D01*
X001195Y004398D01*
X001163Y004367D01*
X001129Y004339D01*
X001093Y004315D01*
X001054Y004293D01*
X001014Y004275D01*
X000972Y004261D01*
X000929Y004250D01*
X000885Y004243D01*
X000841Y004240D01*
X000797Y004241D01*
X000753Y004246D01*
X000710Y004255D01*
X000667Y004267D01*
X000626Y004284D01*
X000586Y004303D01*
X000549Y004327D01*
X000513Y004353D01*
X000480Y004383D01*
X000450Y004415D01*
X000423Y004450D01*
X000399Y004487D01*
X000378Y004526D01*
X000361Y004567D01*
X000348Y004609D01*
X000338Y004652D01*
X000332Y004696D01*
X000330Y004740D01*
X023209Y001987D02*
X024193Y001987D01*
D15*
X024075Y002233D02*
X023288Y002233D01*
X023288Y001741D02*
X024075Y001741D01*
D16*
X023682Y001987D03*
D17*
X015813Y004628D03*
X015835Y005388D03*
X015218Y002176D03*
X030907Y006452D03*
D18*
X016198Y002582D02*
X016198Y002275D01*
X015738Y002275D01*
X012295Y003635D02*
X012295Y003915D01*
X012155Y003775D01*
X012342Y003775D01*
X012550Y006335D02*
X012503Y006381D01*
X012550Y006335D02*
X012643Y006335D01*
X012690Y006381D01*
X012690Y006428D01*
X012643Y006475D01*
X012596Y006475D01*
X012643Y006475D02*
X012690Y006522D01*
X012690Y006568D01*
X012643Y006615D01*
X012550Y006615D01*
X012503Y006568D01*
X013413Y006572D02*
X013460Y006619D01*
X013553Y006619D01*
X013600Y006572D01*
X013600Y006525D01*
X013413Y006338D01*
X013600Y006338D01*
X014264Y006335D02*
X014451Y006335D01*
X014358Y006335D02*
X014358Y006615D01*
X014264Y006522D01*
D19*
X014470Y005635D02*
X011890Y005635D01*
X011890Y004235D01*
X014470Y004235D01*
X014470Y005635D01*
X018024Y005734D02*
X018181Y005891D01*
X021646Y005891D01*
X021803Y005734D01*
X021803Y002269D01*
X021646Y002112D01*
X018181Y002112D01*
X018024Y002269D01*
X018024Y005734D01*
X027744Y004744D02*
X028137Y004744D01*
X027941Y005137D01*
X027744Y004744D01*
D20*
X027941Y005161D03*
D21*
X021377Y002427D02*
X021379Y002447D01*
X021384Y002467D01*
X021394Y002485D01*
X021406Y002502D01*
X021421Y002516D01*
X021439Y002526D01*
X021458Y002534D01*
X021478Y002538D01*
X021498Y002538D01*
X021518Y002534D01*
X021537Y002526D01*
X021555Y002516D01*
X021570Y002502D01*
X021582Y002485D01*
X021592Y002467D01*
X021597Y002447D01*
X021599Y002427D01*
X021597Y002407D01*
X021592Y002387D01*
X021582Y002369D01*
X021570Y002352D01*
X021555Y002338D01*
X021537Y002328D01*
X021518Y002320D01*
X021498Y002316D01*
X021478Y002316D01*
X021458Y002320D01*
X021439Y002328D01*
X021421Y002338D01*
X021406Y002352D01*
X021394Y002369D01*
X021384Y002387D01*
X021379Y002407D01*
X021377Y002427D01*
D22*
X026869Y004935D03*
M02*
