%
M48
M72
T01C0.0160
T02C0.0315
T03C0.0630
%
T01
X4890Y5765
X4565Y7451
X5041Y7833
X5471Y8915
X5966Y8950
X5314Y9569
X3456Y7610
X3232Y7917
X3101Y6984
X2858Y6693
X3122Y6452
X5977Y3073
X6937Y5496
X8118Y6744
X8571Y6637
X7997Y7594
T02
X9717Y5679
X9489Y5039
X9201Y4448
X7083Y2940
X6480Y2851
X2409Y6676
X2448Y7261
X2613Y7815
X2864Y8346
X5445Y10008
X6035Y10005
X6610Y10009
T03
X3982Y3901
X3291Y4756
X7784Y3564
X9446Y7194
X8947Y8322
X8053Y9350
M30
