%
M48
M72
T01C0.0150
T02C0.0160
T03C0.0276
T04C0.0630
%
T01
X5841Y7323
X6227Y7841
X5480Y8280
T02
X6330Y7359
X6125Y5965
X6112Y4424
X10796Y4793
X11058Y5093
X11293Y8780
X10849Y9654
X10754Y10038
X9115Y9761
X7003Y10363
T03
X7084Y10832
X6588Y10640
X6167Y10401
X5750Y10139
X5370Y9795
X5106Y9369
X4816Y8934
X4579Y8442
X4453Y7951
X9397Y3819
X9877Y4024
X10351Y4261
T04
X5416Y5073
X4879Y6050
X8149Y3754
X9995Y10223
X8944Y10645
X7852Y10722
M30
