G75*
G70*
%OFA0B0*%
%FSLAX24Y24*%
%IPPOS*%
%LPD*%
%AMOC8*
5,1,8,0,0,1.08239X$1,22.5*
%
%ADD10C,0.0010*%
%ADD11C,0.0080*%
%ADD12C,0.0050*%
D10*
X004014Y004633D02*
X004064Y004633D01*
X004089Y004658D01*
X004089Y004708D01*
X004039Y004708D01*
X003989Y004658D02*
X004014Y004633D01*
X003989Y004658D02*
X003989Y004758D01*
X004014Y004783D01*
X004064Y004783D01*
X004089Y004758D01*
X004136Y004783D02*
X004237Y004633D01*
X004237Y004783D01*
X004284Y004783D02*
X004359Y004783D01*
X004384Y004758D01*
X004384Y004658D01*
X004359Y004633D01*
X004284Y004633D01*
X004284Y004783D01*
X004136Y004783D02*
X004136Y004633D01*
X004548Y005272D02*
X004598Y005272D01*
X004623Y005297D01*
X004670Y005347D02*
X004771Y005347D01*
X004746Y005272D02*
X004746Y005422D01*
X004670Y005347D01*
X004623Y005397D02*
X004598Y005422D01*
X004548Y005422D01*
X004523Y005397D01*
X004523Y005297D01*
X004548Y005272D01*
X004160Y005691D02*
X004110Y005691D01*
X004085Y005716D01*
X004038Y005716D02*
X004013Y005691D01*
X003963Y005691D01*
X003938Y005716D01*
X003938Y005816D01*
X003963Y005841D01*
X004013Y005841D01*
X004038Y005816D01*
X004085Y005841D02*
X004085Y005766D01*
X004135Y005791D01*
X004160Y005791D01*
X004185Y005766D01*
X004185Y005716D01*
X004160Y005691D01*
X004185Y005841D02*
X004085Y005841D01*
X002918Y006328D02*
X002918Y006428D01*
X002893Y006453D01*
X002818Y006453D01*
X002818Y006303D01*
X002893Y006303D01*
X002918Y006328D01*
X002771Y006303D02*
X002771Y006453D01*
X002670Y006453D02*
X002670Y006303D01*
X002623Y006328D02*
X002623Y006378D01*
X002573Y006378D01*
X002523Y006428D02*
X002523Y006328D01*
X002548Y006303D01*
X002598Y006303D01*
X002623Y006328D01*
X002623Y006428D02*
X002598Y006453D01*
X002548Y006453D01*
X002523Y006428D01*
X002670Y006453D02*
X002771Y006303D01*
X002819Y007167D02*
X002894Y007167D01*
X002919Y007192D01*
X002919Y007292D01*
X002894Y007317D01*
X002819Y007317D01*
X002819Y007167D01*
X002966Y007242D02*
X003067Y007242D01*
X003033Y007466D02*
X002958Y007466D01*
X002958Y007617D01*
X003033Y007617D01*
X003058Y007592D01*
X003058Y007491D01*
X003033Y007466D01*
X003106Y007541D02*
X003206Y007541D01*
X003156Y007491D02*
X003156Y007592D01*
X003192Y008111D02*
X003242Y008161D01*
X003242Y008261D01*
X003289Y008261D02*
X003289Y008136D01*
X003314Y008111D01*
X003364Y008111D01*
X003389Y008136D01*
X003389Y008261D01*
X003437Y008236D02*
X003437Y008211D01*
X003462Y008186D01*
X003512Y008186D01*
X003537Y008161D01*
X003537Y008136D01*
X003512Y008111D01*
X003462Y008111D01*
X003437Y008136D01*
X003437Y008236D02*
X003462Y008261D01*
X003512Y008261D01*
X003537Y008236D01*
X003584Y008261D02*
X003584Y008111D01*
X003659Y008111D01*
X003684Y008136D01*
X003684Y008161D01*
X003659Y008186D01*
X003584Y008186D01*
X003584Y008261D02*
X003659Y008261D01*
X003684Y008236D01*
X003684Y008211D01*
X003659Y008186D01*
X003830Y008078D02*
X003830Y007978D01*
X003855Y007953D01*
X003905Y007953D01*
X003930Y007978D01*
X003977Y007953D02*
X004077Y008053D01*
X004077Y008078D01*
X004052Y008103D01*
X004002Y008103D01*
X003977Y008078D01*
X003930Y008078D02*
X003905Y008103D01*
X003855Y008103D01*
X003830Y008078D01*
X003977Y007953D02*
X004077Y007953D01*
X003192Y008111D02*
X003142Y008161D01*
X003142Y008261D01*
X004638Y009801D02*
X004688Y009801D01*
X004663Y009801D02*
X004663Y009952D01*
X004638Y009952D02*
X004688Y009952D01*
X004736Y009927D02*
X004736Y009827D01*
X004761Y009801D01*
X004811Y009801D01*
X004836Y009827D01*
X004884Y009801D02*
X004984Y009801D01*
X004934Y009801D02*
X004934Y009952D01*
X004884Y009902D01*
X004836Y009927D02*
X004811Y009952D01*
X004761Y009952D01*
X004736Y009927D01*
X005143Y010368D02*
X005243Y010368D01*
X005290Y010368D02*
X005340Y010393D01*
X005365Y010393D01*
X005390Y010368D01*
X005390Y010318D01*
X005365Y010293D01*
X005315Y010293D01*
X005290Y010318D01*
X005290Y010368D02*
X005290Y010443D01*
X005390Y010443D01*
X005437Y010443D02*
X005437Y010343D01*
X005487Y010293D01*
X005537Y010343D01*
X005537Y010443D01*
X005828Y010425D02*
X005828Y010325D01*
X005853Y010300D01*
X005903Y010300D01*
X005928Y010325D01*
X005928Y010375D01*
X005878Y010375D01*
X005928Y010425D02*
X005903Y010450D01*
X005853Y010450D01*
X005828Y010425D01*
X005975Y010450D02*
X005975Y010300D01*
X006075Y010300D02*
X005975Y010450D01*
X006075Y010450D02*
X006075Y010300D01*
X006122Y010300D02*
X006122Y010450D01*
X006197Y010450D01*
X006222Y010425D01*
X006222Y010325D01*
X006197Y010300D01*
X006122Y010300D01*
X006387Y010347D02*
X006437Y010297D01*
X006487Y010347D01*
X006487Y010447D01*
X006534Y010422D02*
X006534Y010397D01*
X006559Y010372D01*
X006609Y010372D01*
X006634Y010347D01*
X006634Y010322D01*
X006609Y010297D01*
X006559Y010297D01*
X006534Y010322D01*
X006534Y010422D02*
X006559Y010447D01*
X006609Y010447D01*
X006634Y010422D01*
X006681Y010447D02*
X006681Y010297D01*
X006681Y010347D02*
X006756Y010347D01*
X006781Y010372D01*
X006781Y010422D01*
X006756Y010447D01*
X006681Y010447D01*
X006829Y010447D02*
X006829Y010297D01*
X006904Y010297D01*
X006929Y010322D01*
X006929Y010422D01*
X006904Y010447D01*
X006829Y010447D01*
X006387Y010447D02*
X006387Y010347D01*
X006836Y009357D02*
X006861Y009357D01*
X006886Y009332D01*
X006911Y009357D01*
X006936Y009357D01*
X006962Y009332D01*
X006962Y009282D01*
X006936Y009257D01*
X006936Y009209D02*
X006962Y009184D01*
X006962Y009134D01*
X006936Y009109D01*
X006836Y009109D01*
X006811Y009134D01*
X006811Y009184D01*
X006836Y009209D01*
X006836Y009257D02*
X006811Y009282D01*
X006811Y009332D01*
X006836Y009357D01*
X006886Y009332D02*
X006886Y009307D01*
X007255Y008772D02*
X007255Y008671D01*
X007255Y008721D02*
X007104Y008721D01*
X007155Y008671D01*
X007180Y008624D02*
X007230Y008624D01*
X007255Y008599D01*
X007255Y008549D01*
X007230Y008524D01*
X007180Y008524D02*
X007155Y008574D01*
X007155Y008599D01*
X007180Y008624D01*
X007104Y008624D02*
X007104Y008524D01*
X007180Y008524D01*
X007180Y008477D02*
X007205Y008452D01*
X007205Y008377D01*
X007255Y008377D02*
X007104Y008377D01*
X007104Y008452D01*
X007130Y008477D01*
X007180Y008477D01*
X007205Y008427D02*
X007255Y008477D01*
X007351Y008239D02*
X007451Y008139D01*
X007476Y008164D01*
X007476Y008214D01*
X007451Y008239D01*
X007351Y008239D01*
X007326Y008214D01*
X007326Y008164D01*
X007351Y008139D01*
X007451Y008139D01*
X007451Y008092D02*
X007401Y008092D01*
X007376Y008067D01*
X007376Y008042D01*
X007401Y007992D01*
X007326Y007992D01*
X007326Y008092D01*
X007451Y008092D02*
X007476Y008067D01*
X007476Y008017D01*
X007451Y007992D01*
X007476Y007945D02*
X007426Y007895D01*
X007426Y007920D02*
X007426Y007845D01*
X007476Y007845D02*
X007326Y007845D01*
X007326Y007920D01*
X007351Y007945D01*
X007401Y007945D01*
X007426Y007920D01*
X008286Y007639D02*
X008286Y007539D01*
X008336Y007489D01*
X008386Y007539D01*
X008386Y007639D01*
X008433Y007639D02*
X008508Y007639D01*
X008533Y007614D01*
X008533Y007589D01*
X008508Y007564D01*
X008433Y007564D01*
X008433Y007489D02*
X008433Y007639D01*
X008508Y007564D02*
X008533Y007539D01*
X008533Y007514D01*
X008508Y007489D01*
X008433Y007489D01*
X008581Y007489D02*
X008581Y007589D01*
X008631Y007639D01*
X008681Y007589D01*
X008681Y007489D01*
X008681Y007564D02*
X008581Y007564D01*
X008728Y007639D02*
X008828Y007639D01*
X008778Y007639D02*
X008778Y007489D01*
X008749Y006401D02*
X008749Y006251D01*
X008796Y006276D02*
X008821Y006301D01*
X008896Y006301D01*
X008896Y006326D02*
X008896Y006251D01*
X008821Y006251D01*
X008796Y006276D01*
X008749Y006326D02*
X008649Y006326D01*
X008649Y006251D02*
X008649Y006401D01*
X008821Y006351D02*
X008871Y006351D01*
X008896Y006326D01*
X008944Y006326D02*
X008944Y006276D01*
X008969Y006251D01*
X009044Y006251D01*
X009044Y006226D02*
X009044Y006351D01*
X008969Y006351D01*
X008944Y006326D01*
X008994Y006201D02*
X009019Y006201D01*
X009044Y006226D01*
X009091Y006251D02*
X009141Y006251D01*
X009116Y006251D02*
X009116Y006351D01*
X009091Y006351D01*
X009116Y006401D02*
X009116Y006426D01*
X009189Y006351D02*
X009264Y006351D01*
X009289Y006326D01*
X009289Y006251D01*
X009189Y006251D02*
X009189Y006351D01*
X009484Y006376D02*
X009509Y006401D01*
X009559Y006401D01*
X009584Y006376D01*
X009584Y006351D01*
X009484Y006251D01*
X009584Y006251D01*
X009631Y006276D02*
X009731Y006376D01*
X009731Y006276D01*
X009706Y006251D01*
X009656Y006251D01*
X009631Y006276D01*
X009631Y006376D01*
X009656Y006401D01*
X009706Y006401D01*
X009731Y006376D01*
X009778Y006351D02*
X009829Y006401D01*
X009829Y006251D01*
X009879Y006251D02*
X009778Y006251D01*
X009793Y006156D02*
X009693Y006156D01*
X009693Y006081D01*
X009743Y006106D01*
X009768Y006106D01*
X009793Y006081D01*
X009793Y006031D01*
X009768Y006006D01*
X009718Y006006D01*
X009693Y006031D01*
X009646Y006081D02*
X009545Y006081D01*
X009595Y006131D02*
X009595Y006031D01*
X009840Y006056D02*
X009890Y006006D01*
X009940Y006056D01*
X009940Y006156D01*
X009951Y006251D02*
X009926Y006276D01*
X009951Y006251D02*
X010001Y006251D01*
X010026Y006276D01*
X010026Y006326D01*
X010001Y006351D01*
X009976Y006351D01*
X009926Y006326D01*
X009926Y006401D01*
X010026Y006401D01*
X009840Y006156D02*
X009840Y006056D01*
X009155Y004911D02*
X009080Y004911D01*
X009080Y004761D01*
X009155Y004761D01*
X009180Y004786D01*
X009180Y004886D01*
X009155Y004911D01*
X009033Y004911D02*
X009033Y004761D01*
X008933Y004911D01*
X008933Y004761D01*
X008886Y004786D02*
X008886Y004836D01*
X008836Y004836D01*
X008886Y004786D02*
X008861Y004761D01*
X008811Y004761D01*
X008786Y004786D01*
X008786Y004886D01*
X008811Y004911D01*
X008861Y004911D01*
X008886Y004886D01*
X008435Y005334D02*
X008385Y005334D01*
X008360Y005359D01*
X008360Y005409D02*
X008410Y005434D01*
X008435Y005434D01*
X008460Y005409D01*
X008460Y005359D01*
X008435Y005334D01*
X008360Y005409D02*
X008360Y005484D01*
X008460Y005484D01*
X008313Y005459D02*
X008288Y005484D01*
X008237Y005484D01*
X008212Y005459D01*
X008165Y005459D02*
X008140Y005484D01*
X008090Y005484D01*
X008065Y005459D01*
X008065Y005359D01*
X008090Y005334D01*
X008140Y005334D01*
X008165Y005359D01*
X008212Y005334D02*
X008313Y005434D01*
X008313Y005459D01*
X008313Y005334D02*
X008212Y005334D01*
X008017Y005415D02*
X007917Y005415D01*
X007992Y005490D01*
X007992Y005340D01*
X007870Y005340D02*
X007770Y005340D01*
X007870Y005440D01*
X007870Y005465D01*
X007845Y005490D01*
X007795Y005490D01*
X007770Y005465D01*
X007722Y005465D02*
X007697Y005490D01*
X007647Y005490D01*
X007622Y005465D01*
X007622Y005365D01*
X007647Y005340D01*
X007697Y005340D01*
X007722Y005365D01*
X007446Y005618D02*
X007346Y005618D01*
X007396Y005618D02*
X007396Y005768D01*
X007346Y005718D01*
X007299Y005768D02*
X007299Y005643D01*
X007274Y005618D01*
X007224Y005618D01*
X007199Y005643D01*
X007199Y005768D01*
X007961Y006251D02*
X007961Y006401D01*
X007987Y006326D02*
X008062Y006251D01*
X008109Y006276D02*
X008134Y006251D01*
X008209Y006251D01*
X008209Y006226D02*
X008184Y006201D01*
X008159Y006201D01*
X008209Y006226D02*
X008209Y006351D01*
X008256Y006401D02*
X008281Y006401D01*
X008281Y006251D01*
X008256Y006251D02*
X008306Y006251D01*
X008354Y006276D02*
X008354Y006326D01*
X008379Y006351D01*
X008429Y006351D01*
X008454Y006326D01*
X008454Y006301D01*
X008354Y006301D01*
X008354Y006276D02*
X008379Y006251D01*
X008429Y006251D01*
X008109Y006276D02*
X008109Y006351D01*
X008062Y006401D02*
X007961Y006301D01*
X007976Y004380D02*
X008076Y004230D01*
X008076Y004380D01*
X008124Y004380D02*
X008199Y004380D01*
X008224Y004355D01*
X008224Y004255D01*
X008199Y004230D01*
X008124Y004230D01*
X008124Y004380D01*
X007976Y004380D02*
X007976Y004230D01*
X007929Y004255D02*
X007929Y004305D01*
X007879Y004305D01*
X007929Y004255D02*
X007904Y004230D01*
X007854Y004230D01*
X007829Y004255D01*
X007829Y004355D01*
X007854Y004380D01*
X007904Y004380D01*
X007929Y004355D01*
X007782Y004205D02*
X007682Y004205D01*
X007634Y004255D02*
X007609Y004230D01*
X007559Y004230D01*
X007534Y004255D01*
X007534Y004355D01*
X007559Y004380D01*
X007609Y004380D01*
X007634Y004355D01*
X007487Y004380D02*
X007487Y004230D01*
X007387Y004230D02*
X007387Y004380D01*
X007437Y004330D01*
X007487Y004380D01*
X008474Y004152D02*
X008474Y004001D01*
X008474Y004051D02*
X008550Y004051D01*
X008575Y004076D01*
X008575Y004127D01*
X008550Y004152D01*
X008474Y004152D01*
X008622Y004152D02*
X008622Y004001D01*
X008672Y004051D01*
X008722Y004001D01*
X008722Y004152D01*
X008769Y004152D02*
X008819Y004102D01*
X008869Y004152D01*
X008869Y004001D01*
X008769Y004001D02*
X008769Y004152D01*
X006838Y003266D02*
X006738Y003116D01*
X006690Y003116D02*
X006640Y003166D01*
X006665Y003166D02*
X006590Y003166D01*
X006590Y003116D02*
X006590Y003266D01*
X006665Y003266D01*
X006690Y003241D01*
X006690Y003191D01*
X006665Y003166D01*
X006738Y003266D02*
X006838Y003116D01*
X006434Y003113D02*
X006334Y003263D01*
X006287Y003263D02*
X006187Y003263D01*
X006237Y003263D02*
X006237Y003113D01*
X006334Y003113D02*
X006434Y003263D01*
X006129Y002817D02*
X006079Y002817D01*
X006054Y002792D01*
X006054Y002767D01*
X006079Y002742D01*
X006154Y002742D01*
X006154Y002692D02*
X006154Y002792D01*
X006129Y002817D01*
X006154Y002692D02*
X006129Y002667D01*
X006079Y002667D01*
X006054Y002692D01*
X006006Y002667D02*
X005906Y002667D01*
X005859Y002667D02*
X005809Y002717D01*
X005834Y002717D02*
X005759Y002717D01*
X005759Y002667D02*
X005759Y002817D01*
X005834Y002817D01*
X005859Y002792D01*
X005859Y002742D01*
X005834Y002717D01*
X005906Y002767D02*
X005956Y002817D01*
X005956Y002667D01*
X005320Y008484D02*
X005345Y008509D01*
X005345Y008534D01*
X005320Y008559D01*
X005245Y008559D01*
X005245Y008509D01*
X005270Y008484D01*
X005320Y008484D01*
X005245Y008559D02*
X005295Y008609D01*
X005345Y008634D01*
X005197Y008609D02*
X005172Y008634D01*
X005122Y008634D01*
X005097Y008609D01*
X005097Y008509D01*
X005122Y008484D01*
X005172Y008484D01*
X005197Y008509D01*
X005588Y009390D02*
X005478Y009390D01*
X005479Y009390D02*
X005476Y009391D01*
X005473Y009390D01*
X005364Y009390D01*
X005363Y009391D01*
X005366Y009411D01*
X005372Y009430D01*
X005382Y009448D01*
X005394Y009464D01*
X005410Y009477D01*
X005427Y009488D01*
X005446Y009495D01*
X005466Y009499D01*
X005486Y009499D01*
X005506Y009495D01*
X005525Y009488D01*
X005542Y009477D01*
X005558Y009464D01*
X005570Y009448D01*
X005580Y009430D01*
X005586Y009411D01*
X005589Y009391D01*
X005580Y009391D01*
X005577Y009411D01*
X005571Y009429D01*
X005561Y009446D01*
X005548Y009461D01*
X005532Y009474D01*
X005515Y009483D01*
X005496Y009488D01*
X005476Y009490D01*
X005456Y009488D01*
X005437Y009483D01*
X005420Y009474D01*
X005404Y009461D01*
X005391Y009446D01*
X005381Y009429D01*
X005375Y009411D01*
X005372Y009391D01*
X005381Y009391D01*
X005384Y009410D01*
X005391Y009428D01*
X005401Y009444D01*
X005414Y009458D01*
X005430Y009469D01*
X005448Y009477D01*
X005466Y009481D01*
X005486Y009481D01*
X005504Y009477D01*
X005522Y009469D01*
X005538Y009458D01*
X005551Y009444D01*
X005561Y009428D01*
X005568Y009410D01*
X005571Y009391D01*
X005562Y009391D01*
X005559Y009408D01*
X005553Y009424D01*
X005544Y009439D01*
X005532Y009451D01*
X005518Y009461D01*
X005502Y009468D01*
X005485Y009472D01*
X005467Y009472D01*
X005450Y009468D01*
X005434Y009461D01*
X005420Y009451D01*
X005408Y009439D01*
X005399Y009424D01*
X005393Y009408D01*
X005390Y009391D01*
X005399Y009391D01*
X005402Y009407D01*
X005408Y009423D01*
X005418Y009436D01*
X005430Y009448D01*
X005444Y009456D01*
X005460Y009461D01*
X005476Y009463D01*
X005492Y009461D01*
X005508Y009456D01*
X005522Y009448D01*
X005534Y009436D01*
X005544Y009423D01*
X005550Y009407D01*
X005553Y009391D01*
X005544Y009391D01*
X005541Y009406D01*
X005535Y009421D01*
X005525Y009433D01*
X005513Y009443D01*
X005499Y009450D01*
X005484Y009454D01*
X005468Y009454D01*
X005453Y009450D01*
X005439Y009443D01*
X005427Y009433D01*
X005417Y009421D01*
X005411Y009406D01*
X005408Y009391D01*
X005417Y009391D01*
X005420Y009405D01*
X005427Y009418D01*
X005436Y009429D01*
X005448Y009438D01*
X005462Y009443D01*
X005476Y009445D01*
X005490Y009443D01*
X005504Y009438D01*
X005516Y009429D01*
X005525Y009418D01*
X005532Y009405D01*
X005535Y009391D01*
X005526Y009391D01*
X005523Y009404D01*
X005516Y009416D01*
X005507Y009425D01*
X005496Y009432D01*
X005483Y009436D01*
X005469Y009436D01*
X005456Y009432D01*
X005445Y009425D01*
X005436Y009416D01*
X005429Y009404D01*
X005426Y009391D01*
X005435Y009391D01*
X005438Y009402D01*
X005445Y009412D01*
X005454Y009420D01*
X005464Y009425D01*
X005476Y009427D01*
X005488Y009425D01*
X005498Y009420D01*
X005507Y009412D01*
X005514Y009402D01*
X005517Y009391D01*
X005508Y009391D01*
X005505Y009401D01*
X005499Y009409D01*
X005491Y009415D01*
X005481Y009418D01*
X005471Y009418D01*
X005461Y009415D01*
X005453Y009409D01*
X005447Y009401D01*
X005444Y009391D01*
X005454Y009391D01*
X005457Y009399D01*
X005463Y009405D01*
X005472Y009409D01*
X005480Y009409D01*
X005489Y009405D01*
X005495Y009399D01*
X005498Y009391D01*
X005489Y009391D01*
X005485Y009396D01*
X005479Y009400D01*
X005473Y009400D01*
X005467Y009396D01*
X005463Y009391D01*
X005193Y010318D02*
X005193Y010418D01*
D11*
X005221Y009632D02*
X006323Y009632D01*
X006323Y008530D01*
X005221Y008530D01*
X005221Y009632D01*
X006824Y007611D02*
X007020Y007611D01*
X007020Y007414D01*
X001975Y006515D02*
X001980Y006718D01*
X001995Y006920D01*
X002020Y007122D01*
X002054Y007322D01*
X002099Y007519D01*
X002153Y007715D01*
X002217Y007908D01*
X002290Y008097D01*
X002372Y008283D01*
X002463Y008464D01*
X002563Y008640D01*
X002672Y008812D01*
X002789Y008978D01*
X002913Y009138D01*
X003046Y009291D01*
X003186Y009438D01*
X003333Y009578D01*
X003486Y009711D01*
X003646Y009835D01*
X003812Y009952D01*
X003984Y010061D01*
X004160Y010161D01*
X004341Y010252D01*
X004527Y010334D01*
X004716Y010407D01*
X004909Y010471D01*
X005105Y010525D01*
X005302Y010570D01*
X005502Y010604D01*
X005704Y010629D01*
X005906Y010644D01*
X006109Y010649D01*
X006312Y010644D01*
X006514Y010629D01*
X006716Y010604D01*
X006916Y010570D01*
X007113Y010525D01*
X007309Y010471D01*
X007502Y010407D01*
X007691Y010334D01*
X007877Y010252D01*
X008058Y010161D01*
X008234Y010061D01*
X008406Y009952D01*
X008572Y009835D01*
X008732Y009711D01*
X008885Y009578D01*
X009032Y009438D01*
X009172Y009291D01*
X009305Y009138D01*
X009429Y008978D01*
X009546Y008812D01*
X009655Y008640D01*
X009755Y008464D01*
X009846Y008283D01*
X009928Y008097D01*
X010001Y007908D01*
X010065Y007715D01*
X010119Y007519D01*
X010164Y007322D01*
X010198Y007122D01*
X010223Y006920D01*
X010238Y006718D01*
X010243Y006515D01*
X010238Y006312D01*
X010223Y006110D01*
X010198Y005908D01*
X010164Y005708D01*
X010119Y005511D01*
X010065Y005315D01*
X010001Y005122D01*
X009928Y004933D01*
X009846Y004747D01*
X009755Y004566D01*
X009655Y004390D01*
X009546Y004218D01*
X009429Y004052D01*
X009305Y003892D01*
X009172Y003739D01*
X009032Y003592D01*
X008885Y003452D01*
X008732Y003319D01*
X008572Y003195D01*
X008406Y003078D01*
X008234Y002969D01*
X008058Y002869D01*
X007877Y002778D01*
X007691Y002696D01*
X007502Y002623D01*
X007309Y002559D01*
X007113Y002505D01*
X006916Y002460D01*
X006716Y002426D01*
X006514Y002401D01*
X006312Y002386D01*
X006109Y002381D01*
X005906Y002386D01*
X005704Y002401D01*
X005502Y002426D01*
X005302Y002460D01*
X005105Y002505D01*
X004909Y002559D01*
X004716Y002623D01*
X004527Y002696D01*
X004341Y002778D01*
X004160Y002869D01*
X003984Y002969D01*
X003812Y003078D01*
X003646Y003195D01*
X003486Y003319D01*
X003333Y003452D01*
X003186Y003592D01*
X003046Y003739D01*
X002913Y003892D01*
X002789Y004052D01*
X002672Y004218D01*
X002563Y004390D01*
X002463Y004566D01*
X002372Y004747D01*
X002290Y004933D01*
X002217Y005122D01*
X002153Y005315D01*
X002099Y005511D01*
X002054Y005708D01*
X002020Y005908D01*
X001995Y006110D01*
X001980Y006312D01*
X001975Y006515D01*
X005131Y005918D02*
X005131Y005721D01*
X005328Y005721D01*
X006784Y005721D02*
X007020Y005721D01*
X007020Y005918D01*
D12*
X003482Y003901D02*
X003484Y003945D01*
X003490Y003989D01*
X003500Y004032D01*
X003513Y004074D01*
X003530Y004115D01*
X003551Y004154D01*
X003575Y004191D01*
X003602Y004226D01*
X003632Y004258D01*
X003665Y004288D01*
X003701Y004314D01*
X003738Y004338D01*
X003778Y004357D01*
X003819Y004374D01*
X003862Y004386D01*
X003905Y004395D01*
X003949Y004400D01*
X003993Y004401D01*
X004037Y004398D01*
X004081Y004391D01*
X004124Y004380D01*
X004166Y004366D01*
X004206Y004348D01*
X004245Y004326D01*
X004281Y004302D01*
X004315Y004274D01*
X004347Y004243D01*
X004376Y004209D01*
X004402Y004173D01*
X004424Y004135D01*
X004443Y004095D01*
X004458Y004053D01*
X004470Y004011D01*
X004478Y003967D01*
X004482Y003923D01*
X004482Y003879D01*
X004478Y003835D01*
X004470Y003791D01*
X004458Y003749D01*
X004443Y003707D01*
X004424Y003667D01*
X004402Y003629D01*
X004376Y003593D01*
X004347Y003559D01*
X004315Y003528D01*
X004281Y003500D01*
X004245Y003476D01*
X004206Y003454D01*
X004166Y003436D01*
X004124Y003422D01*
X004081Y003411D01*
X004037Y003404D01*
X003993Y003401D01*
X003949Y003402D01*
X003905Y003407D01*
X003862Y003416D01*
X003819Y003428D01*
X003778Y003445D01*
X003738Y003464D01*
X003701Y003488D01*
X003665Y003514D01*
X003632Y003544D01*
X003602Y003576D01*
X003575Y003611D01*
X003551Y003648D01*
X003530Y003687D01*
X003513Y003728D01*
X003500Y003770D01*
X003490Y003813D01*
X003484Y003857D01*
X003482Y003901D01*
X002791Y004756D02*
X002793Y004800D01*
X002799Y004844D01*
X002809Y004887D01*
X002822Y004929D01*
X002839Y004970D01*
X002860Y005009D01*
X002884Y005046D01*
X002911Y005081D01*
X002941Y005113D01*
X002974Y005143D01*
X003010Y005169D01*
X003047Y005193D01*
X003087Y005212D01*
X003128Y005229D01*
X003171Y005241D01*
X003214Y005250D01*
X003258Y005255D01*
X003302Y005256D01*
X003346Y005253D01*
X003390Y005246D01*
X003433Y005235D01*
X003475Y005221D01*
X003515Y005203D01*
X003554Y005181D01*
X003590Y005157D01*
X003624Y005129D01*
X003656Y005098D01*
X003685Y005064D01*
X003711Y005028D01*
X003733Y004990D01*
X003752Y004950D01*
X003767Y004908D01*
X003779Y004866D01*
X003787Y004822D01*
X003791Y004778D01*
X003791Y004734D01*
X003787Y004690D01*
X003779Y004646D01*
X003767Y004604D01*
X003752Y004562D01*
X003733Y004522D01*
X003711Y004484D01*
X003685Y004448D01*
X003656Y004414D01*
X003624Y004383D01*
X003590Y004355D01*
X003554Y004331D01*
X003515Y004309D01*
X003475Y004291D01*
X003433Y004277D01*
X003390Y004266D01*
X003346Y004259D01*
X003302Y004256D01*
X003258Y004257D01*
X003214Y004262D01*
X003171Y004271D01*
X003128Y004283D01*
X003087Y004300D01*
X003047Y004319D01*
X003010Y004343D01*
X002974Y004369D01*
X002941Y004399D01*
X002911Y004431D01*
X002884Y004466D01*
X002860Y004503D01*
X002839Y004542D01*
X002822Y004583D01*
X002809Y004625D01*
X002799Y004668D01*
X002793Y004712D01*
X002791Y004756D01*
X007284Y003564D02*
X007286Y003608D01*
X007292Y003652D01*
X007302Y003695D01*
X007315Y003737D01*
X007332Y003778D01*
X007353Y003817D01*
X007377Y003854D01*
X007404Y003889D01*
X007434Y003921D01*
X007467Y003951D01*
X007503Y003977D01*
X007540Y004001D01*
X007580Y004020D01*
X007621Y004037D01*
X007664Y004049D01*
X007707Y004058D01*
X007751Y004063D01*
X007795Y004064D01*
X007839Y004061D01*
X007883Y004054D01*
X007926Y004043D01*
X007968Y004029D01*
X008008Y004011D01*
X008047Y003989D01*
X008083Y003965D01*
X008117Y003937D01*
X008149Y003906D01*
X008178Y003872D01*
X008204Y003836D01*
X008226Y003798D01*
X008245Y003758D01*
X008260Y003716D01*
X008272Y003674D01*
X008280Y003630D01*
X008284Y003586D01*
X008284Y003542D01*
X008280Y003498D01*
X008272Y003454D01*
X008260Y003412D01*
X008245Y003370D01*
X008226Y003330D01*
X008204Y003292D01*
X008178Y003256D01*
X008149Y003222D01*
X008117Y003191D01*
X008083Y003163D01*
X008047Y003139D01*
X008008Y003117D01*
X007968Y003099D01*
X007926Y003085D01*
X007883Y003074D01*
X007839Y003067D01*
X007795Y003064D01*
X007751Y003065D01*
X007707Y003070D01*
X007664Y003079D01*
X007621Y003091D01*
X007580Y003108D01*
X007540Y003127D01*
X007503Y003151D01*
X007467Y003177D01*
X007434Y003207D01*
X007404Y003239D01*
X007377Y003274D01*
X007353Y003311D01*
X007332Y003350D01*
X007315Y003391D01*
X007302Y003433D01*
X007292Y003476D01*
X007286Y003520D01*
X007284Y003564D01*
X008946Y007194D02*
X008948Y007238D01*
X008954Y007282D01*
X008964Y007325D01*
X008977Y007367D01*
X008994Y007408D01*
X009015Y007447D01*
X009039Y007484D01*
X009066Y007519D01*
X009096Y007551D01*
X009129Y007581D01*
X009165Y007607D01*
X009202Y007631D01*
X009242Y007650D01*
X009283Y007667D01*
X009326Y007679D01*
X009369Y007688D01*
X009413Y007693D01*
X009457Y007694D01*
X009501Y007691D01*
X009545Y007684D01*
X009588Y007673D01*
X009630Y007659D01*
X009670Y007641D01*
X009709Y007619D01*
X009745Y007595D01*
X009779Y007567D01*
X009811Y007536D01*
X009840Y007502D01*
X009866Y007466D01*
X009888Y007428D01*
X009907Y007388D01*
X009922Y007346D01*
X009934Y007304D01*
X009942Y007260D01*
X009946Y007216D01*
X009946Y007172D01*
X009942Y007128D01*
X009934Y007084D01*
X009922Y007042D01*
X009907Y007000D01*
X009888Y006960D01*
X009866Y006922D01*
X009840Y006886D01*
X009811Y006852D01*
X009779Y006821D01*
X009745Y006793D01*
X009709Y006769D01*
X009670Y006747D01*
X009630Y006729D01*
X009588Y006715D01*
X009545Y006704D01*
X009501Y006697D01*
X009457Y006694D01*
X009413Y006695D01*
X009369Y006700D01*
X009326Y006709D01*
X009283Y006721D01*
X009242Y006738D01*
X009202Y006757D01*
X009165Y006781D01*
X009129Y006807D01*
X009096Y006837D01*
X009066Y006869D01*
X009039Y006904D01*
X009015Y006941D01*
X008994Y006980D01*
X008977Y007021D01*
X008964Y007063D01*
X008954Y007106D01*
X008948Y007150D01*
X008946Y007194D01*
X007553Y009350D02*
X007555Y009394D01*
X007561Y009438D01*
X007571Y009481D01*
X007584Y009523D01*
X007601Y009564D01*
X007622Y009603D01*
X007646Y009640D01*
X007673Y009675D01*
X007703Y009707D01*
X007736Y009737D01*
X007772Y009763D01*
X007809Y009787D01*
X007849Y009806D01*
X007890Y009823D01*
X007933Y009835D01*
X007976Y009844D01*
X008020Y009849D01*
X008064Y009850D01*
X008108Y009847D01*
X008152Y009840D01*
X008195Y009829D01*
X008237Y009815D01*
X008277Y009797D01*
X008316Y009775D01*
X008352Y009751D01*
X008386Y009723D01*
X008418Y009692D01*
X008447Y009658D01*
X008473Y009622D01*
X008495Y009584D01*
X008514Y009544D01*
X008529Y009502D01*
X008541Y009460D01*
X008549Y009416D01*
X008553Y009372D01*
X008553Y009328D01*
X008549Y009284D01*
X008541Y009240D01*
X008529Y009198D01*
X008514Y009156D01*
X008495Y009116D01*
X008473Y009078D01*
X008447Y009042D01*
X008418Y009008D01*
X008386Y008977D01*
X008352Y008949D01*
X008316Y008925D01*
X008277Y008903D01*
X008237Y008885D01*
X008195Y008871D01*
X008152Y008860D01*
X008108Y008853D01*
X008064Y008850D01*
X008020Y008851D01*
X007976Y008856D01*
X007933Y008865D01*
X007890Y008877D01*
X007849Y008894D01*
X007809Y008913D01*
X007772Y008937D01*
X007736Y008963D01*
X007703Y008993D01*
X007673Y009025D01*
X007646Y009060D01*
X007622Y009097D01*
X007601Y009136D01*
X007584Y009177D01*
X007571Y009219D01*
X007561Y009262D01*
X007555Y009306D01*
X007553Y009350D01*
M02*
