G75*
%MOIN*%
%OFA0B0*%
%FSLAX24Y24*%
%IPPOS*%
%LPD*%
%AMOC8*
5,1,8,0,0,1.08239X$1,22.5*
%
%ADD10R,0.0500X0.0240*%
%ADD11R,0.1780X0.1740*%
%ADD12R,0.0276X0.0354*%
%ADD13C,0.0180*%
%ADD14OC8,0.0610*%
%ADD15C,0.0400*%
%ADD16C,0.0394*%
%ADD17R,0.0472X0.0394*%
%ADD18R,0.0472X0.0472*%
%ADD19R,0.0709X0.0551*%
%ADD20C,0.0142*%
%ADD21R,0.0630X0.0945*%
%ADD22R,0.0480X0.0880*%
%ADD23R,0.1417X0.0866*%
%ADD24R,0.0310X0.0350*%
%ADD25C,0.0945*%
%ADD26R,0.0709X0.1260*%
%ADD27R,0.0709X0.0354*%
%ADD28R,0.0591X0.0591*%
%ADD29C,0.0100*%
%ADD30R,0.0356X0.0356*%
%ADD31C,0.0060*%
%ADD32C,0.0280*%
%ADD33C,0.0500*%
D10*
X004715Y001703D03*
X004715Y002203D03*
X004715Y002703D03*
X004715Y003203D03*
X003480Y005666D03*
X003480Y006166D03*
X003480Y006666D03*
X003480Y007166D03*
D11*
X004943Y006416D03*
X006178Y002453D03*
D12*
X005595Y001262D03*
X005084Y001262D03*
X004568Y001258D03*
X004057Y001258D03*
X010664Y001475D03*
X011175Y001475D03*
X012275Y001497D03*
X012787Y001497D03*
X002935Y005180D03*
X003405Y005208D03*
X003916Y005208D03*
X002423Y005180D03*
D13*
X014708Y006731D02*
X014708Y006751D01*
X014828Y006751D01*
X014828Y006731D01*
X014708Y006731D01*
X014708Y007081D02*
X014708Y007101D01*
X014828Y007101D01*
X014828Y007081D01*
X014708Y007081D01*
X015814Y006088D02*
X015834Y006088D01*
X015834Y005968D01*
X015814Y005968D01*
X015814Y006088D01*
X016164Y006088D02*
X016184Y006088D01*
X016184Y005968D01*
X016164Y005968D01*
X016164Y006088D01*
X020533Y007129D02*
X020553Y007129D01*
X020553Y007009D01*
X020533Y007009D01*
X020533Y007129D01*
X020883Y007129D02*
X020903Y007129D01*
X020903Y007009D01*
X020883Y007009D01*
X020883Y007129D01*
X028820Y005119D02*
X028820Y005099D01*
X028820Y005119D02*
X028940Y005119D01*
X028940Y005099D01*
X028820Y005099D01*
X028820Y004769D02*
X028820Y004749D01*
X028820Y004769D02*
X028940Y004769D01*
X028940Y004749D01*
X028820Y004749D01*
X029611Y006909D02*
X029631Y006909D01*
X029611Y006909D02*
X029611Y007029D01*
X029631Y007029D01*
X029631Y006909D01*
X029961Y006909D02*
X029981Y006909D01*
X029961Y006909D02*
X029961Y007029D01*
X029981Y007029D01*
X029981Y006909D01*
X022861Y004026D02*
X022861Y004006D01*
X022861Y004026D02*
X022981Y004026D01*
X022981Y004006D01*
X022861Y004006D01*
X022861Y003676D02*
X022861Y003656D01*
X022861Y003676D02*
X022981Y003676D01*
X022981Y003656D01*
X022861Y003656D01*
X017648Y001671D02*
X017628Y001671D01*
X017648Y001671D02*
X017648Y001551D01*
X017628Y001551D01*
X017628Y001671D01*
X017298Y001671D02*
X017278Y001671D01*
X017298Y001671D02*
X017298Y001551D01*
X017278Y001551D01*
X017278Y001671D01*
X017022Y002242D02*
X017002Y002242D01*
X017022Y002242D02*
X017022Y002122D01*
X017002Y002122D01*
X017002Y002242D01*
X016672Y002242D02*
X016652Y002242D01*
X016672Y002242D02*
X016672Y002122D01*
X016652Y002122D01*
X016652Y002242D01*
X016782Y002739D02*
X016802Y002739D01*
X016802Y002619D01*
X016782Y002619D01*
X016782Y002739D01*
X016452Y002739D02*
X016432Y002739D01*
X016452Y002739D02*
X016452Y002619D01*
X016432Y002619D01*
X016432Y002739D01*
X015971Y004007D02*
X015951Y004007D01*
X015971Y004007D02*
X015971Y003887D01*
X015951Y003887D01*
X015951Y004007D01*
X015621Y004007D02*
X015601Y004007D01*
X015621Y004007D02*
X015621Y003887D01*
X015601Y003887D01*
X015601Y004007D01*
X021853Y001472D02*
X021873Y001472D01*
X021853Y001472D02*
X021853Y001592D01*
X021873Y001592D01*
X021873Y001472D01*
X022203Y001472D02*
X022223Y001472D01*
X022203Y001472D02*
X022203Y001592D01*
X022223Y001592D01*
X022223Y001472D01*
X022696Y001500D02*
X022696Y001480D01*
X022576Y001480D01*
X022576Y001500D01*
X022696Y001500D01*
X022696Y001150D02*
X022696Y001130D01*
X022576Y001130D01*
X022576Y001150D01*
X022696Y001150D01*
X023159Y001298D02*
X023179Y001298D01*
X023179Y001178D01*
X023159Y001178D01*
X023159Y001298D01*
X023509Y001298D02*
X023529Y001298D01*
X023529Y001178D01*
X023509Y001178D01*
X023509Y001298D01*
X028436Y002034D02*
X028436Y002054D01*
X028436Y002034D02*
X028316Y002034D01*
X028316Y002054D01*
X028436Y002054D01*
X028436Y002384D02*
X028436Y002404D01*
X028436Y002384D02*
X028316Y002384D01*
X028316Y002404D01*
X028436Y002404D01*
D14*
X025405Y004369D03*
X024405Y004369D03*
X024405Y005369D03*
X025405Y005369D03*
X025405Y006369D03*
X024405Y006369D03*
D15*
X048484Y007866D03*
D16*
X049511Y008093D03*
X019913Y004002D03*
D17*
X023249Y001987D03*
X024115Y001987D03*
D18*
X016187Y004628D03*
X015360Y004628D03*
X015382Y005388D03*
X016209Y005388D03*
X015218Y002629D03*
X015218Y001802D03*
X030907Y006078D03*
X030907Y006905D03*
D19*
X027941Y005610D03*
X027941Y004271D03*
D20*
X022401Y004334D02*
X021993Y004334D01*
X022401Y004334D02*
X022401Y004300D01*
X021993Y004300D01*
X021993Y004334D01*
X021993Y004649D02*
X022401Y004649D01*
X022401Y004615D01*
X021993Y004615D01*
X021993Y004649D01*
X021993Y004964D02*
X022401Y004964D01*
X022401Y004930D01*
X021993Y004930D01*
X021993Y004964D01*
X021993Y005279D02*
X022401Y005279D01*
X022401Y005245D01*
X021993Y005245D01*
X021993Y005279D01*
X021993Y005594D02*
X022401Y005594D01*
X022401Y005560D01*
X021993Y005560D01*
X021993Y005594D01*
X021505Y006489D02*
X021471Y006489D01*
X021505Y006489D02*
X021505Y006081D01*
X021471Y006081D01*
X021471Y006489D01*
X021471Y006222D02*
X021505Y006222D01*
X021505Y006363D02*
X021471Y006363D01*
X021190Y006489D02*
X021156Y006489D01*
X021190Y006489D02*
X021190Y006081D01*
X021156Y006081D01*
X021156Y006489D01*
X021156Y006222D02*
X021190Y006222D01*
X021190Y006363D02*
X021156Y006363D01*
X020875Y006489D02*
X020841Y006489D01*
X020875Y006489D02*
X020875Y006081D01*
X020841Y006081D01*
X020841Y006489D01*
X020841Y006222D02*
X020875Y006222D01*
X020875Y006363D02*
X020841Y006363D01*
X020560Y006489D02*
X020526Y006489D01*
X020560Y006489D02*
X020560Y006081D01*
X020526Y006081D01*
X020526Y006489D01*
X020526Y006222D02*
X020560Y006222D01*
X020560Y006363D02*
X020526Y006363D01*
X020245Y006489D02*
X020211Y006489D01*
X020245Y006489D02*
X020245Y006081D01*
X020211Y006081D01*
X020211Y006489D01*
X020211Y006222D02*
X020245Y006222D01*
X020245Y006363D02*
X020211Y006363D01*
X019930Y006489D02*
X019896Y006489D01*
X019930Y006489D02*
X019930Y006081D01*
X019896Y006081D01*
X019896Y006489D01*
X019896Y006222D02*
X019930Y006222D01*
X019930Y006363D02*
X019896Y006363D01*
X019615Y006489D02*
X019581Y006489D01*
X019615Y006489D02*
X019615Y006081D01*
X019581Y006081D01*
X019581Y006489D01*
X019581Y006222D02*
X019615Y006222D01*
X019615Y006363D02*
X019581Y006363D01*
X019300Y006489D02*
X019266Y006489D01*
X019300Y006489D02*
X019300Y006081D01*
X019266Y006081D01*
X019266Y006489D01*
X019266Y006222D02*
X019300Y006222D01*
X019300Y006363D02*
X019266Y006363D01*
X018986Y006489D02*
X018952Y006489D01*
X018986Y006489D02*
X018986Y006081D01*
X018952Y006081D01*
X018952Y006489D01*
X018952Y006222D02*
X018986Y006222D01*
X018986Y006363D02*
X018952Y006363D01*
X018671Y006489D02*
X018637Y006489D01*
X018671Y006489D02*
X018671Y006081D01*
X018637Y006081D01*
X018637Y006489D01*
X018637Y006222D02*
X018671Y006222D01*
X018671Y006363D02*
X018637Y006363D01*
X018356Y006489D02*
X018322Y006489D01*
X018356Y006489D02*
X018356Y006081D01*
X018322Y006081D01*
X018322Y006489D01*
X018322Y006222D02*
X018356Y006222D01*
X018356Y006363D02*
X018322Y006363D01*
X017834Y005594D02*
X017426Y005594D01*
X017834Y005594D02*
X017834Y005560D01*
X017426Y005560D01*
X017426Y005594D01*
X017426Y005279D02*
X017834Y005279D01*
X017834Y005245D01*
X017426Y005245D01*
X017426Y005279D01*
X017426Y004964D02*
X017834Y004964D01*
X017834Y004930D01*
X017426Y004930D01*
X017426Y004964D01*
X017426Y004649D02*
X017834Y004649D01*
X017834Y004615D01*
X017426Y004615D01*
X017426Y004649D01*
X017426Y004334D02*
X017834Y004334D01*
X017834Y004300D01*
X017426Y004300D01*
X017426Y004334D01*
X017426Y004019D02*
X017834Y004019D01*
X017834Y003985D01*
X017426Y003985D01*
X017426Y004019D01*
X017426Y003704D02*
X017834Y003704D01*
X017834Y003670D01*
X017426Y003670D01*
X017426Y003704D01*
X017426Y003389D02*
X017834Y003389D01*
X017834Y003355D01*
X017426Y003355D01*
X017426Y003389D01*
X017426Y003074D02*
X017834Y003074D01*
X017834Y003040D01*
X017426Y003040D01*
X017426Y003074D01*
X017426Y002759D02*
X017834Y002759D01*
X017834Y002725D01*
X017426Y002725D01*
X017426Y002759D01*
X017426Y002444D02*
X017834Y002444D01*
X017834Y002410D01*
X017426Y002410D01*
X017426Y002444D01*
X018322Y001922D02*
X018356Y001922D01*
X018356Y001514D01*
X018322Y001514D01*
X018322Y001922D01*
X018322Y001655D02*
X018356Y001655D01*
X018356Y001796D02*
X018322Y001796D01*
X018637Y001922D02*
X018671Y001922D01*
X018671Y001514D01*
X018637Y001514D01*
X018637Y001922D01*
X018637Y001655D02*
X018671Y001655D01*
X018671Y001796D02*
X018637Y001796D01*
X018952Y001922D02*
X018986Y001922D01*
X018986Y001514D01*
X018952Y001514D01*
X018952Y001922D01*
X018952Y001655D02*
X018986Y001655D01*
X018986Y001796D02*
X018952Y001796D01*
X019266Y001922D02*
X019300Y001922D01*
X019300Y001514D01*
X019266Y001514D01*
X019266Y001922D01*
X019266Y001655D02*
X019300Y001655D01*
X019300Y001796D02*
X019266Y001796D01*
X019581Y001922D02*
X019615Y001922D01*
X019615Y001514D01*
X019581Y001514D01*
X019581Y001922D01*
X019581Y001655D02*
X019615Y001655D01*
X019615Y001796D02*
X019581Y001796D01*
X019896Y001922D02*
X019930Y001922D01*
X019930Y001514D01*
X019896Y001514D01*
X019896Y001922D01*
X019896Y001655D02*
X019930Y001655D01*
X019930Y001796D02*
X019896Y001796D01*
X020211Y001922D02*
X020245Y001922D01*
X020245Y001514D01*
X020211Y001514D01*
X020211Y001922D01*
X020211Y001655D02*
X020245Y001655D01*
X020245Y001796D02*
X020211Y001796D01*
X020526Y001922D02*
X020560Y001922D01*
X020560Y001514D01*
X020526Y001514D01*
X020526Y001922D01*
X020526Y001655D02*
X020560Y001655D01*
X020560Y001796D02*
X020526Y001796D01*
X020841Y001922D02*
X020875Y001922D01*
X020875Y001514D01*
X020841Y001514D01*
X020841Y001922D01*
X020841Y001655D02*
X020875Y001655D01*
X020875Y001796D02*
X020841Y001796D01*
X021156Y001922D02*
X021190Y001922D01*
X021190Y001514D01*
X021156Y001514D01*
X021156Y001922D01*
X021156Y001655D02*
X021190Y001655D01*
X021190Y001796D02*
X021156Y001796D01*
X021471Y001922D02*
X021505Y001922D01*
X021505Y001514D01*
X021471Y001514D01*
X021471Y001922D01*
X021471Y001655D02*
X021505Y001655D01*
X021505Y001796D02*
X021471Y001796D01*
X021993Y002444D02*
X022401Y002444D01*
X022401Y002410D01*
X021993Y002410D01*
X021993Y002444D01*
X021993Y002759D02*
X022401Y002759D01*
X022401Y002725D01*
X021993Y002725D01*
X021993Y002759D01*
X021993Y003074D02*
X022401Y003074D01*
X022401Y003040D01*
X021993Y003040D01*
X021993Y003074D01*
X021993Y003389D02*
X022401Y003389D01*
X022401Y003355D01*
X021993Y003355D01*
X021993Y003389D01*
X021993Y003704D02*
X022401Y003704D01*
X022401Y003670D01*
X021993Y003670D01*
X021993Y003704D01*
X021993Y004019D02*
X022401Y004019D01*
X022401Y003985D01*
X021993Y003985D01*
X021993Y004019D01*
D21*
X013749Y002584D03*
X012568Y002584D03*
D22*
X012270Y006155D03*
X013180Y006155D03*
X014090Y006155D03*
D23*
X013180Y003715D03*
D24*
X017104Y006415D03*
X017484Y007215D03*
X016724Y007215D03*
D25*
X007922Y002292D03*
X002218Y001678D03*
X000809Y001666D03*
X000779Y002917D03*
X000830Y004740D03*
X000829Y006667D03*
D26*
X002378Y004180D03*
X004582Y004180D03*
D27*
X026864Y003995D03*
X026855Y005874D03*
D28*
X030787Y003553D03*
X030798Y002646D03*
X030778Y001581D03*
X007392Y005333D03*
X007389Y006207D03*
X007371Y007047D03*
D29*
X000250Y003460D02*
X000250Y001103D01*
X002831Y001103D01*
X002831Y002947D01*
X001585Y002947D01*
X001090Y003460D01*
X000250Y003460D01*
X000250Y003394D02*
X001153Y003394D01*
X001248Y003296D02*
X000250Y003296D01*
X000250Y003197D02*
X001344Y003197D01*
X001439Y003099D02*
X000250Y003099D01*
X000250Y003000D02*
X001534Y003000D01*
X001845Y003317D02*
X001253Y003960D01*
X000255Y003960D01*
X000250Y004398D01*
X000250Y005364D01*
X002175Y005350D01*
X002175Y004957D01*
X002239Y004893D01*
X002606Y004893D01*
X002671Y004957D01*
X002671Y005347D01*
X002687Y005347D01*
X002687Y004957D01*
X002751Y004893D01*
X003118Y004893D01*
X003182Y004957D01*
X003182Y004960D01*
X003221Y004921D01*
X003588Y004921D01*
X003616Y004949D01*
X003630Y003344D01*
X001845Y003317D01*
X001774Y003394D02*
X003629Y003394D01*
X003628Y003493D02*
X001683Y003493D01*
X001592Y003591D02*
X003628Y003591D01*
X003627Y003690D02*
X001502Y003690D01*
X001411Y003788D02*
X003626Y003788D01*
X003625Y003887D02*
X001321Y003887D01*
X000255Y003985D02*
X003624Y003985D01*
X003623Y004084D02*
X000254Y004084D01*
X000253Y004182D02*
X003622Y004182D01*
X003622Y004281D02*
X000251Y004281D01*
X000250Y004379D02*
X003621Y004379D01*
X003620Y004478D02*
X000250Y004478D01*
X000250Y004576D02*
X003619Y004576D01*
X003618Y004675D02*
X000250Y004675D01*
X000250Y004773D02*
X003617Y004773D01*
X003617Y004872D02*
X000250Y004872D01*
X000250Y004970D02*
X002175Y004970D01*
X002175Y005069D02*
X000250Y005069D01*
X000250Y005167D02*
X002175Y005167D01*
X002175Y005266D02*
X000250Y005266D01*
X000830Y004740D02*
X002378Y004740D01*
X002378Y004180D01*
X002589Y004180D01*
X003087Y003682D01*
X004023Y003690D02*
X006405Y003690D01*
X006405Y003788D02*
X004023Y003788D01*
X004023Y003887D02*
X006405Y003887D01*
X006405Y003985D02*
X004023Y003985D01*
X004023Y004084D02*
X006405Y004084D01*
X006405Y004182D02*
X004023Y004182D01*
X004023Y004281D02*
X006405Y004281D01*
X006405Y004379D02*
X004023Y004379D01*
X004023Y004478D02*
X006405Y004478D01*
X006405Y004576D02*
X004023Y004576D01*
X004023Y004675D02*
X006405Y004675D01*
X006405Y004773D02*
X004023Y004773D01*
X004023Y004872D02*
X006405Y004872D01*
X006405Y004970D02*
X004149Y004970D01*
X004164Y004985D02*
X004164Y005431D01*
X004100Y005495D01*
X004023Y005495D01*
X004023Y007051D01*
X004011Y007395D01*
X006405Y007395D01*
X006405Y003507D01*
X005113Y003507D01*
X005089Y001643D01*
X005075Y001643D01*
X005075Y001869D01*
X005011Y001933D01*
X004420Y001933D01*
X004355Y001869D01*
X004355Y001643D01*
X003119Y001643D01*
X003143Y003031D01*
X004023Y003031D01*
X004023Y003181D01*
X004092Y003250D01*
X004130Y003342D01*
X004130Y003441D01*
X004092Y003533D01*
X004023Y003602D01*
X004023Y004921D01*
X004100Y004921D01*
X004164Y004985D01*
X004164Y005069D02*
X006405Y005069D01*
X006405Y005167D02*
X004164Y005167D01*
X004164Y005266D02*
X006405Y005266D01*
X006405Y005364D02*
X004164Y005364D01*
X004132Y005463D02*
X006405Y005463D01*
X006405Y005561D02*
X004023Y005561D01*
X004023Y005660D02*
X006405Y005660D01*
X006405Y005758D02*
X004023Y005758D01*
X004023Y005857D02*
X006405Y005857D01*
X006405Y005955D02*
X004023Y005955D01*
X004023Y006054D02*
X006405Y006054D01*
X006405Y006152D02*
X004023Y006152D01*
X004023Y006251D02*
X006405Y006251D01*
X006405Y006349D02*
X004023Y006349D01*
X004023Y006448D02*
X006405Y006448D01*
X006405Y006546D02*
X004023Y006546D01*
X004023Y006645D02*
X006405Y006645D01*
X006405Y006743D02*
X004023Y006743D01*
X004023Y006842D02*
X006405Y006842D01*
X006405Y006940D02*
X004023Y006940D01*
X004023Y007039D02*
X006405Y007039D01*
X006405Y007137D02*
X004020Y007137D01*
X004016Y007236D02*
X006405Y007236D01*
X006405Y007334D02*
X004013Y007334D01*
X003826Y007334D02*
X000250Y007334D01*
X000250Y007410D02*
X003828Y007410D01*
X003794Y005938D01*
X000250Y005938D01*
X000250Y007410D01*
X000250Y007236D02*
X003824Y007236D01*
X003821Y007137D02*
X000250Y007137D01*
X000250Y007039D02*
X003819Y007039D01*
X003817Y006940D02*
X000250Y006940D01*
X000250Y006842D02*
X003815Y006842D01*
X003812Y006743D02*
X000250Y006743D01*
X000250Y006645D02*
X003810Y006645D01*
X003808Y006546D02*
X000250Y006546D01*
X000250Y006448D02*
X003805Y006448D01*
X003803Y006349D02*
X000250Y006349D01*
X000250Y006251D02*
X003801Y006251D01*
X003799Y006152D02*
X000250Y006152D01*
X000250Y006054D02*
X003796Y006054D01*
X003794Y005955D02*
X000250Y005955D01*
X000829Y006667D02*
X002404Y006667D01*
X002404Y005180D01*
X002423Y005180D01*
X002671Y005167D02*
X002687Y005167D01*
X002687Y005069D02*
X002671Y005069D01*
X002671Y004970D02*
X002687Y004970D01*
X002935Y005180D02*
X002935Y005208D01*
X003405Y005208D01*
X003405Y005666D01*
X003480Y005666D01*
X002687Y005266D02*
X002671Y005266D01*
X003480Y006166D02*
X003480Y006666D01*
X003480Y007166D01*
X003480Y006667D02*
X002404Y006667D01*
X003480Y006667D02*
X003480Y006666D01*
X006600Y006645D02*
X007028Y006645D01*
X007030Y006642D02*
X007712Y006642D01*
X007777Y006706D01*
X007777Y007388D01*
X007742Y007423D01*
X016459Y007423D01*
X016459Y007375D01*
X014825Y007375D01*
X014751Y007301D01*
X014625Y007301D01*
X014575Y007251D01*
X012542Y007251D01*
X012217Y006926D01*
X012123Y006832D01*
X012123Y006705D01*
X011984Y006705D01*
X011920Y006640D01*
X011920Y005669D01*
X011984Y005605D01*
X012555Y005605D01*
X012620Y005669D01*
X012620Y006640D01*
X012555Y006705D01*
X012448Y006705D01*
X012674Y006931D01*
X014548Y006931D01*
X014521Y006904D01*
X014495Y006865D01*
X014477Y006821D01*
X014468Y006775D01*
X014468Y006741D01*
X014768Y006741D01*
X015068Y006741D01*
X015068Y006775D01*
X015058Y006821D01*
X015040Y006865D01*
X015014Y006904D01*
X014981Y006937D01*
X014972Y006943D01*
X015028Y006998D01*
X015028Y007055D01*
X016459Y007055D01*
X016459Y006994D01*
X016523Y006930D01*
X016918Y006930D01*
X016890Y006861D01*
X016890Y006762D01*
X016916Y006700D01*
X016903Y006700D01*
X016839Y006635D01*
X016839Y006194D01*
X016861Y006172D01*
X016384Y006172D01*
X016267Y006288D01*
X016082Y006288D01*
X015999Y006206D01*
X015917Y006288D01*
X015732Y006288D01*
X015614Y006171D01*
X015614Y005886D01*
X015635Y005865D01*
X015505Y005735D01*
X015100Y005735D01*
X015036Y005670D01*
X015036Y005107D01*
X015100Y005042D01*
X015664Y005042D01*
X015680Y005059D01*
X015680Y004936D01*
X015642Y004974D01*
X015078Y004974D01*
X015014Y004909D01*
X015014Y004346D01*
X015078Y004281D01*
X015440Y004281D01*
X013480Y004281D01*
X013480Y004258D02*
X013480Y005292D01*
X013627Y005292D01*
X013628Y005290D01*
X013698Y005220D01*
X013790Y005182D01*
X013890Y005182D01*
X013982Y005220D01*
X014052Y005290D01*
X014090Y005382D01*
X014090Y005481D01*
X014052Y005573D01*
X014040Y005586D01*
X014040Y006105D01*
X014140Y006105D01*
X014140Y006205D01*
X014480Y006205D01*
X014480Y006615D01*
X014469Y006653D01*
X014450Y006687D01*
X014422Y006715D01*
X014387Y006735D01*
X014349Y006745D01*
X014140Y006745D01*
X014140Y006205D01*
X014040Y006205D01*
X014040Y006745D01*
X013830Y006745D01*
X013792Y006735D01*
X013757Y006715D01*
X013729Y006687D01*
X013710Y006653D01*
X013700Y006615D01*
X013700Y006205D01*
X014040Y006205D01*
X014040Y006105D01*
X013700Y006105D01*
X013700Y005695D01*
X013710Y005657D01*
X013714Y005650D01*
X013698Y005644D01*
X013628Y005573D01*
X013627Y005572D01*
X013476Y005572D01*
X013477Y005617D01*
X013530Y005669D01*
X013530Y006640D01*
X013465Y006705D01*
X012894Y006705D01*
X012830Y006640D01*
X012830Y006316D01*
X012829Y006315D01*
X012771Y006185D01*
X012755Y005553D01*
X012763Y005534D01*
X011887Y005534D01*
X011054Y006367D01*
X007795Y006367D01*
X007795Y006548D01*
X007730Y006612D01*
X007048Y006612D01*
X006984Y006548D01*
X006984Y005866D01*
X007048Y005801D01*
X007730Y005801D01*
X007795Y005866D01*
X007795Y006047D01*
X009137Y006047D01*
X009080Y005990D01*
X009080Y005542D01*
X009144Y005478D01*
X009430Y005478D01*
X009891Y005017D01*
X009891Y003039D01*
X007798Y005132D01*
X007798Y005674D01*
X007733Y005739D01*
X007052Y005739D01*
X006987Y005674D01*
X006987Y004993D01*
X007052Y004928D01*
X007606Y004928D01*
X009574Y002959D01*
X009548Y002933D01*
X009510Y002841D01*
X009510Y002760D01*
X008902Y003368D01*
X008902Y003591D01*
X008679Y003591D01*
X008618Y003652D01*
X006600Y003652D01*
X006600Y006783D01*
X006600Y006794D01*
X006966Y006794D01*
X006966Y006706D01*
X007030Y006642D01*
X006984Y006546D02*
X006600Y006546D01*
X006600Y006448D02*
X006984Y006448D01*
X006984Y006349D02*
X006600Y006349D01*
X006600Y006251D02*
X006984Y006251D01*
X006984Y006152D02*
X006600Y006152D01*
X006600Y006054D02*
X006984Y006054D01*
X006984Y005955D02*
X006600Y005955D01*
X006600Y005857D02*
X006993Y005857D01*
X006987Y005660D02*
X006600Y005660D01*
X006600Y005758D02*
X009080Y005758D01*
X009080Y005660D02*
X007798Y005660D01*
X007798Y005561D02*
X009080Y005561D01*
X009080Y005857D02*
X007785Y005857D01*
X007795Y005955D02*
X009080Y005955D01*
X009368Y005766D02*
X010051Y005083D01*
X010051Y001803D01*
X010033Y001273D01*
X010085Y001239D01*
X010373Y001227D02*
X010441Y001227D01*
X010416Y001252D02*
X010480Y001188D01*
X010847Y001188D01*
X010911Y001252D01*
X010911Y001698D01*
X010847Y001762D01*
X010764Y001762D01*
X010760Y001781D01*
X010763Y001825D01*
X010746Y001844D01*
X010741Y001868D01*
X010704Y001891D01*
X010675Y001924D01*
X010650Y001926D01*
X010629Y001939D01*
X010586Y001930D01*
X010211Y001953D01*
X010211Y005150D01*
X009656Y005704D01*
X009656Y005990D01*
X009599Y006047D01*
X010921Y006047D01*
X011660Y005307D01*
X011754Y005214D01*
X012760Y005214D01*
X012760Y004258D01*
X012425Y004258D01*
X012361Y004193D01*
X012361Y003236D01*
X012420Y003177D01*
X012420Y003166D01*
X012208Y003166D01*
X012143Y003102D01*
X012143Y002066D01*
X012208Y002001D01*
X012929Y002001D01*
X012993Y002066D01*
X012993Y003102D01*
X012929Y003166D01*
X012740Y003166D01*
X012740Y003172D01*
X013338Y003172D01*
X013314Y003148D01*
X013294Y003114D01*
X013284Y003076D01*
X013284Y002634D01*
X013699Y002634D01*
X013699Y002534D01*
X013284Y002534D01*
X013284Y002091D01*
X013294Y002053D01*
X013314Y002019D01*
X013342Y001991D01*
X013376Y001971D01*
X013414Y001961D01*
X013699Y001961D01*
X013699Y002534D01*
X013799Y002534D01*
X013799Y002634D01*
X014214Y002634D01*
X014214Y003076D01*
X014204Y003114D01*
X014184Y003148D01*
X014156Y003176D01*
X014122Y003196D01*
X014084Y003206D01*
X013968Y003206D01*
X013998Y003236D01*
X013998Y004193D01*
X013934Y004258D01*
X013480Y004258D01*
X013480Y004379D02*
X015014Y004379D01*
X015014Y004478D02*
X013480Y004478D01*
X013480Y004576D02*
X015014Y004576D01*
X015014Y004675D02*
X013480Y004675D01*
X013480Y004773D02*
X015014Y004773D01*
X015014Y004872D02*
X013480Y004872D01*
X013480Y004970D02*
X015075Y004970D01*
X015074Y005069D02*
X013480Y005069D01*
X013480Y005167D02*
X015036Y005167D01*
X015036Y005266D02*
X014028Y005266D01*
X014083Y005364D02*
X015036Y005364D01*
X015036Y005463D02*
X014090Y005463D01*
X014057Y005561D02*
X015036Y005561D01*
X015036Y005660D02*
X014470Y005660D01*
X014469Y005657D02*
X014480Y005695D01*
X014480Y006105D01*
X014140Y006105D01*
X014140Y005565D01*
X014349Y005565D01*
X014387Y005575D01*
X014422Y005595D01*
X014450Y005623D01*
X014469Y005657D01*
X014480Y005758D02*
X015529Y005758D01*
X015627Y005857D02*
X014480Y005857D01*
X014480Y005955D02*
X015614Y005955D01*
X015614Y006054D02*
X014480Y006054D01*
X014480Y006251D02*
X015694Y006251D01*
X015614Y006152D02*
X014140Y006152D01*
X014080Y006212D02*
X014633Y006212D01*
X014796Y006375D01*
X014796Y006713D01*
X014768Y006741D01*
X014768Y006741D01*
X015068Y006741D01*
X015068Y006707D01*
X015058Y006661D01*
X015040Y006617D01*
X015014Y006578D01*
X014981Y006545D01*
X014941Y006518D01*
X014898Y006500D01*
X014851Y006491D01*
X014768Y006491D01*
X014768Y006741D01*
X014768Y006741D01*
X014768Y006491D01*
X014684Y006491D01*
X014638Y006500D01*
X014594Y006518D01*
X014555Y006545D01*
X014521Y006578D01*
X014495Y006617D01*
X014477Y006661D01*
X014468Y006707D01*
X014468Y006741D01*
X014768Y006741D01*
X014768Y006741D01*
X014768Y006645D02*
X014768Y006645D01*
X014768Y006546D02*
X014768Y006546D01*
X014982Y006546D02*
X016839Y006546D01*
X016839Y006448D02*
X014480Y006448D01*
X014480Y006546D02*
X014553Y006546D01*
X014484Y006645D02*
X014471Y006645D01*
X014468Y006743D02*
X014355Y006743D01*
X014485Y006842D02*
X012585Y006842D01*
X012487Y006743D02*
X013824Y006743D01*
X013708Y006645D02*
X013525Y006645D01*
X013530Y006546D02*
X013700Y006546D01*
X013700Y006448D02*
X013530Y006448D01*
X013530Y006349D02*
X013700Y006349D01*
X013700Y006251D02*
X013530Y006251D01*
X013530Y006152D02*
X014040Y006152D01*
X014040Y006054D02*
X014140Y006054D01*
X014140Y005955D02*
X014040Y005955D01*
X014040Y005857D02*
X014140Y005857D01*
X014140Y005758D02*
X014040Y005758D01*
X014040Y005660D02*
X014140Y005660D01*
X013709Y005660D02*
X013520Y005660D01*
X013530Y005758D02*
X013700Y005758D01*
X013700Y005857D02*
X013530Y005857D01*
X013530Y005955D02*
X013700Y005955D01*
X013700Y006054D02*
X013530Y006054D01*
X013180Y006155D02*
X013129Y006104D01*
X012800Y006251D02*
X012620Y006251D01*
X012620Y006349D02*
X012830Y006349D01*
X012830Y006448D02*
X012620Y006448D01*
X012620Y006546D02*
X012830Y006546D01*
X012834Y006645D02*
X012615Y006645D01*
X012283Y006766D02*
X012283Y006169D01*
X012270Y006155D01*
X012620Y006152D02*
X012770Y006152D01*
X012768Y006054D02*
X012620Y006054D01*
X012620Y005955D02*
X012765Y005955D01*
X012763Y005857D02*
X012620Y005857D01*
X012620Y005758D02*
X012760Y005758D01*
X012758Y005660D02*
X012610Y005660D01*
X012756Y005561D02*
X011859Y005561D01*
X011929Y005660D02*
X011761Y005660D01*
X011662Y005758D02*
X011920Y005758D01*
X011920Y005857D02*
X011564Y005857D01*
X011465Y005955D02*
X011920Y005955D01*
X011920Y006054D02*
X011367Y006054D01*
X011268Y006152D02*
X011920Y006152D01*
X011920Y006251D02*
X011170Y006251D01*
X011071Y006349D02*
X011920Y006349D01*
X011920Y006448D02*
X007795Y006448D01*
X007795Y006546D02*
X011920Y006546D01*
X011924Y006645D02*
X007715Y006645D01*
X007777Y006743D02*
X012123Y006743D01*
X012133Y006842D02*
X007777Y006842D01*
X007777Y006940D02*
X012231Y006940D01*
X012330Y007039D02*
X007777Y007039D01*
X007777Y007137D02*
X012428Y007137D01*
X012527Y007236D02*
X007777Y007236D01*
X007777Y007334D02*
X014785Y007334D01*
X014891Y007215D02*
X014768Y007091D01*
X012608Y007091D01*
X012283Y006766D01*
X010987Y006207D02*
X011820Y005374D01*
X013029Y005374D01*
X013104Y005448D01*
X013117Y005616D01*
X013480Y005266D02*
X013652Y005266D01*
X012760Y005167D02*
X010193Y005167D01*
X010211Y005069D02*
X012760Y005069D01*
X012760Y004970D02*
X010211Y004970D01*
X010211Y004872D02*
X012760Y004872D01*
X012760Y004773D02*
X010211Y004773D01*
X010211Y004675D02*
X012760Y004675D01*
X012760Y004576D02*
X010211Y004576D01*
X010211Y004478D02*
X012760Y004478D01*
X012760Y004379D02*
X010211Y004379D01*
X010211Y004281D02*
X012760Y004281D01*
X012361Y004182D02*
X010211Y004182D01*
X010211Y004084D02*
X012361Y004084D01*
X012361Y003985D02*
X010211Y003985D01*
X010211Y003887D02*
X012361Y003887D01*
X012361Y003788D02*
X010211Y003788D01*
X010211Y003690D02*
X012361Y003690D01*
X012361Y003591D02*
X010211Y003591D01*
X010211Y003493D02*
X012361Y003493D01*
X012361Y003394D02*
X010211Y003394D01*
X010211Y003296D02*
X012361Y003296D01*
X012400Y003197D02*
X010211Y003197D01*
X010211Y003099D02*
X012143Y003099D01*
X012143Y003000D02*
X010211Y003000D01*
X010211Y002902D02*
X012143Y002902D01*
X012143Y002803D02*
X010211Y002803D01*
X010211Y002705D02*
X012143Y002705D01*
X012143Y002606D02*
X010211Y002606D01*
X010211Y002508D02*
X012143Y002508D01*
X012143Y002409D02*
X010211Y002409D01*
X010211Y002311D02*
X012143Y002311D01*
X012143Y002212D02*
X010211Y002212D01*
X010211Y002114D02*
X012143Y002114D01*
X012193Y002015D02*
X010211Y002015D01*
X010051Y001803D02*
X010599Y001769D01*
X010664Y001475D01*
X010911Y001523D02*
X010928Y001523D01*
X010928Y001621D02*
X010911Y001621D01*
X010928Y001698D02*
X010928Y001252D01*
X010992Y001188D01*
X011359Y001188D01*
X011423Y001252D01*
X011423Y001332D01*
X012028Y001332D01*
X012028Y001274D01*
X012092Y001210D01*
X012344Y001210D01*
X012472Y001082D01*
X010373Y001082D01*
X010373Y001463D01*
X010308Y001527D01*
X010202Y001527D01*
X010205Y001633D01*
X010416Y001620D01*
X010416Y001252D01*
X010416Y001326D02*
X010373Y001326D01*
X010373Y001424D02*
X010416Y001424D01*
X010416Y001523D02*
X010313Y001523D01*
X010394Y001621D02*
X010205Y001621D01*
X009760Y001892D02*
X009160Y001292D01*
X005620Y001292D01*
X005084Y001262D02*
X005079Y001258D01*
X004568Y001258D01*
X004568Y001556D01*
X004715Y001703D01*
X004355Y001720D02*
X003121Y001720D01*
X003122Y001818D02*
X004355Y001818D01*
X004403Y001917D02*
X003124Y001917D01*
X003126Y002015D02*
X005094Y002015D01*
X005093Y001917D02*
X005027Y001917D01*
X005075Y001818D02*
X005092Y001818D01*
X005090Y001720D02*
X005075Y001720D01*
X005334Y001720D02*
X008591Y001720D01*
X008592Y001658D02*
X005334Y001658D01*
X005320Y003082D01*
X005306Y003267D01*
X008577Y003267D01*
X008592Y001658D01*
X008590Y001818D02*
X005333Y001818D01*
X005332Y001917D02*
X008589Y001917D01*
X008588Y002015D02*
X005331Y002015D01*
X005330Y002114D02*
X008588Y002114D01*
X008587Y002212D02*
X005329Y002212D01*
X005328Y002311D02*
X008586Y002311D01*
X008585Y002409D02*
X005327Y002409D01*
X005326Y002508D02*
X008584Y002508D01*
X008583Y002606D02*
X005325Y002606D01*
X005324Y002705D02*
X008582Y002705D01*
X008581Y002803D02*
X005323Y002803D01*
X005322Y002902D02*
X008581Y002902D01*
X008580Y003000D02*
X005321Y003000D01*
X005319Y003099D02*
X008579Y003099D01*
X008578Y003197D02*
X005311Y003197D01*
X005109Y003197D02*
X004039Y003197D01*
X004023Y003099D02*
X005108Y003099D01*
X005107Y003000D02*
X003142Y003000D01*
X003141Y002902D02*
X005105Y002902D01*
X005104Y002803D02*
X003139Y002803D01*
X003137Y002705D02*
X005103Y002705D01*
X005102Y002606D02*
X003136Y002606D01*
X003134Y002508D02*
X005100Y002508D01*
X005099Y002409D02*
X003132Y002409D01*
X003131Y002311D02*
X005098Y002311D01*
X005097Y002212D02*
X003129Y002212D01*
X003127Y002114D02*
X005095Y002114D01*
X004715Y002203D02*
X004187Y002203D01*
X004040Y002056D01*
X004040Y001274D01*
X004057Y001258D01*
X002831Y001227D02*
X000250Y001227D01*
X000250Y001129D02*
X002831Y001129D01*
X002831Y001326D02*
X000250Y001326D01*
X000250Y001424D02*
X002831Y001424D01*
X002831Y001523D02*
X000250Y001523D01*
X000250Y001621D02*
X002831Y001621D01*
X002831Y001720D02*
X000250Y001720D01*
X000250Y001818D02*
X002831Y001818D01*
X002831Y001917D02*
X000250Y001917D01*
X000250Y002015D02*
X002831Y002015D01*
X002831Y002114D02*
X000250Y002114D01*
X000250Y002212D02*
X002831Y002212D01*
X002831Y002311D02*
X000250Y002311D01*
X000250Y002409D02*
X002831Y002409D01*
X002831Y002508D02*
X000250Y002508D01*
X000250Y002606D02*
X002831Y002606D01*
X002831Y002705D02*
X000250Y002705D01*
X000250Y002803D02*
X002831Y002803D01*
X002831Y002902D02*
X000250Y002902D01*
X000779Y002917D02*
X000809Y002917D01*
X000809Y001666D01*
X002218Y001666D01*
X002218Y001678D01*
X004111Y003296D02*
X005110Y003296D01*
X005112Y003394D02*
X004130Y003394D01*
X004109Y003493D02*
X005113Y003493D01*
X004034Y003591D02*
X006405Y003591D01*
X006600Y003690D02*
X008844Y003690D01*
X008746Y003788D02*
X006600Y003788D01*
X006600Y003887D02*
X008647Y003887D01*
X008549Y003985D02*
X006600Y003985D01*
X006600Y004084D02*
X008450Y004084D01*
X008352Y004182D02*
X006600Y004182D01*
X006600Y004281D02*
X008253Y004281D01*
X008155Y004379D02*
X006600Y004379D01*
X006600Y004478D02*
X008056Y004478D01*
X007958Y004576D02*
X006600Y004576D01*
X006600Y004675D02*
X007859Y004675D01*
X007760Y004773D02*
X006600Y004773D01*
X006600Y004872D02*
X007662Y004872D01*
X007861Y005069D02*
X009839Y005069D01*
X009891Y004970D02*
X007959Y004970D01*
X008058Y004872D02*
X009891Y004872D01*
X009891Y004773D02*
X008156Y004773D01*
X008255Y004675D02*
X009891Y004675D01*
X009891Y004576D02*
X008353Y004576D01*
X008452Y004478D02*
X009891Y004478D01*
X009891Y004379D02*
X008550Y004379D01*
X008649Y004281D02*
X009891Y004281D01*
X009891Y004182D02*
X008747Y004182D01*
X008846Y004084D02*
X009891Y004084D01*
X009891Y003985D02*
X008944Y003985D01*
X009043Y003887D02*
X009891Y003887D01*
X009891Y003788D02*
X009141Y003788D01*
X009240Y003690D02*
X009891Y003690D01*
X009891Y003591D02*
X009338Y003591D01*
X009437Y003493D02*
X009891Y003493D01*
X009891Y003394D02*
X009535Y003394D01*
X009634Y003296D02*
X009891Y003296D01*
X009891Y003197D02*
X009732Y003197D01*
X009831Y003099D02*
X009891Y003099D01*
X009534Y003000D02*
X009269Y003000D01*
X009171Y003099D02*
X009435Y003099D01*
X009337Y003197D02*
X009072Y003197D01*
X008974Y003296D02*
X009238Y003296D01*
X009140Y003394D02*
X008902Y003394D01*
X008902Y003493D02*
X009041Y003493D01*
X008943Y003591D02*
X008678Y003591D01*
X009368Y002902D02*
X009535Y002902D01*
X009510Y002803D02*
X009466Y002803D01*
X010682Y001917D02*
X014832Y001917D01*
X014832Y001852D02*
X015168Y001852D01*
X015168Y001752D01*
X015268Y001752D01*
X015268Y001416D01*
X015474Y001416D01*
X015512Y001426D01*
X015546Y001446D01*
X015574Y001474D01*
X015594Y001508D01*
X015604Y001546D01*
X015604Y001752D01*
X015268Y001752D01*
X015268Y001852D01*
X015604Y001852D01*
X015604Y002058D01*
X015594Y002097D01*
X015574Y002131D01*
X015546Y002159D01*
X015512Y002178D01*
X015474Y002189D01*
X015268Y002189D01*
X015268Y001852D01*
X015168Y001852D01*
X015168Y002189D01*
X014962Y002189D01*
X014924Y002178D01*
X014890Y002159D01*
X014862Y002131D01*
X014842Y002097D01*
X014832Y002058D01*
X014832Y001852D01*
X014832Y001752D02*
X014832Y001546D01*
X014842Y001508D01*
X014862Y001474D01*
X014890Y001446D01*
X014924Y001426D01*
X014962Y001416D01*
X015168Y001416D01*
X015168Y001752D01*
X014832Y001752D01*
X014832Y001720D02*
X013068Y001720D01*
X013065Y001732D02*
X013045Y001766D01*
X013017Y001794D01*
X012983Y001814D01*
X012945Y001824D01*
X012806Y001824D01*
X012806Y001516D01*
X012768Y001516D01*
X012768Y001824D01*
X012630Y001824D01*
X012592Y001814D01*
X012557Y001794D01*
X012529Y001766D01*
X012510Y001733D01*
X012459Y001784D01*
X012092Y001784D01*
X012028Y001720D01*
X012028Y001612D01*
X011423Y001612D01*
X011423Y001698D01*
X011359Y001762D01*
X010992Y001762D01*
X010928Y001698D01*
X010950Y001720D02*
X010889Y001720D01*
X010762Y001818D02*
X012607Y001818D01*
X012768Y001818D02*
X012806Y001818D01*
X012806Y001720D02*
X012768Y001720D01*
X012768Y001621D02*
X012806Y001621D01*
X012806Y001523D02*
X012768Y001523D01*
X012806Y001516D02*
X013075Y001516D01*
X013075Y001694D01*
X013065Y001732D01*
X013075Y001621D02*
X014832Y001621D01*
X014838Y001523D02*
X013075Y001523D01*
X013075Y001478D02*
X012806Y001478D01*
X012806Y001516D01*
X013075Y001478D02*
X013075Y001312D01*
X017253Y001312D01*
X017208Y001321D01*
X017164Y001339D01*
X017125Y001365D01*
X017091Y001398D01*
X017065Y001438D01*
X017047Y001481D01*
X017038Y001528D01*
X017038Y001611D01*
X017288Y001611D01*
X017288Y001611D01*
X017288Y001611D01*
X017288Y001911D01*
X017321Y001911D01*
X017368Y001902D01*
X017411Y001884D01*
X017451Y001858D01*
X017484Y001824D01*
X017490Y001816D01*
X017545Y001871D01*
X017731Y001871D01*
X017810Y001792D01*
X018139Y001792D01*
X018137Y001823D01*
X018140Y001826D01*
X018140Y004714D01*
X018019Y004835D01*
X018003Y004841D01*
X017951Y004789D01*
X018016Y004724D01*
X018016Y004539D01*
X017951Y004474D01*
X018016Y004409D01*
X018016Y004224D01*
X017951Y004159D01*
X018016Y004094D01*
X018016Y003909D01*
X017951Y003844D01*
X018016Y003779D01*
X018016Y003594D01*
X017951Y003529D01*
X018016Y003464D01*
X018016Y003279D01*
X017951Y003214D01*
X018016Y003149D01*
X018016Y002964D01*
X017951Y002899D01*
X018016Y002835D01*
X018016Y002649D01*
X017951Y002584D01*
X018016Y002520D01*
X018016Y002334D01*
X017910Y002228D01*
X017675Y002228D01*
X017498Y002052D01*
X017222Y002052D01*
X017222Y002039D01*
X017105Y001922D01*
X016919Y001922D01*
X016864Y001977D01*
X016858Y001969D01*
X016825Y001936D01*
X016786Y001909D01*
X016742Y001891D01*
X016696Y001882D01*
X016662Y001882D01*
X016662Y002182D01*
X016662Y002182D01*
X016662Y001882D01*
X016628Y001882D01*
X016582Y001891D01*
X016538Y001909D01*
X016499Y001936D01*
X016466Y001969D01*
X016439Y002008D01*
X016421Y002052D01*
X016412Y002098D01*
X016412Y002182D01*
X016662Y002182D01*
X016662Y002182D01*
X016412Y002182D01*
X016412Y002266D01*
X016421Y002312D01*
X016439Y002356D01*
X016466Y002395D01*
X016490Y002419D01*
X016350Y002419D01*
X016237Y002532D01*
X015564Y002532D01*
X015564Y002347D01*
X015500Y002283D01*
X014936Y002283D01*
X014872Y002347D01*
X014872Y002911D01*
X014936Y002975D01*
X015500Y002975D01*
X015564Y002911D01*
X015564Y002812D01*
X016232Y002812D01*
X016232Y002822D01*
X016350Y002939D01*
X016535Y002939D01*
X016617Y002857D01*
X016700Y002939D01*
X016885Y002939D01*
X016924Y002900D01*
X016890Y002982D01*
X016890Y003081D01*
X016928Y003173D01*
X016998Y003244D01*
X017090Y003282D01*
X017190Y003282D01*
X017191Y003281D01*
X017244Y003334D01*
X017244Y003464D01*
X017272Y003492D01*
X014533Y003492D01*
X014532Y003490D01*
X014462Y003420D01*
X014370Y003382D01*
X014270Y003382D01*
X014178Y003420D01*
X014108Y003490D01*
X014070Y003582D01*
X014070Y003681D01*
X014108Y003773D01*
X014178Y003844D01*
X014270Y003882D01*
X014370Y003882D01*
X014462Y003844D01*
X014532Y003773D01*
X014533Y003772D01*
X015433Y003772D01*
X015401Y003804D01*
X015401Y004090D01*
X015440Y004129D01*
X015440Y004281D01*
X015440Y004182D02*
X013998Y004182D01*
X013998Y004084D02*
X015401Y004084D01*
X015401Y003985D02*
X013998Y003985D01*
X013998Y003887D02*
X015401Y003887D01*
X015417Y003788D02*
X014517Y003788D01*
X014123Y003788D02*
X013998Y003788D01*
X013998Y003690D02*
X014073Y003690D01*
X014070Y003591D02*
X013998Y003591D01*
X013998Y003493D02*
X014107Y003493D01*
X013998Y003394D02*
X014240Y003394D01*
X014400Y003394D02*
X017244Y003394D01*
X017206Y003296D02*
X013998Y003296D01*
X014117Y003197D02*
X016952Y003197D01*
X016897Y003099D02*
X014208Y003099D01*
X014214Y003000D02*
X016890Y003000D01*
X016923Y002902D02*
X016923Y002902D01*
X016662Y002902D02*
X016573Y002902D01*
X016312Y002902D02*
X015564Y002902D01*
X015564Y002508D02*
X016261Y002508D01*
X016480Y002409D02*
X015564Y002409D01*
X015527Y002311D02*
X016421Y002311D01*
X016412Y002212D02*
X014214Y002212D01*
X014214Y002114D02*
X014852Y002114D01*
X014832Y002015D02*
X014180Y002015D01*
X014184Y002019D02*
X014204Y002053D01*
X014214Y002091D01*
X014214Y002534D01*
X013799Y002534D01*
X013799Y001961D01*
X014084Y001961D01*
X014122Y001971D01*
X014156Y001991D01*
X014184Y002019D01*
X014214Y002311D02*
X014908Y002311D01*
X014872Y002409D02*
X014214Y002409D01*
X014214Y002508D02*
X014872Y002508D01*
X014872Y002606D02*
X013799Y002606D01*
X013799Y002508D02*
X013699Y002508D01*
X013699Y002606D02*
X012993Y002606D01*
X012993Y002508D02*
X013284Y002508D01*
X013284Y002409D02*
X012993Y002409D01*
X012993Y002311D02*
X013284Y002311D01*
X013284Y002212D02*
X012993Y002212D01*
X012993Y002114D02*
X013284Y002114D01*
X013318Y002015D02*
X012943Y002015D01*
X012967Y001818D02*
X015168Y001818D01*
X015168Y001720D02*
X015268Y001720D01*
X015268Y001818D02*
X017087Y001818D01*
X017091Y001824D02*
X017065Y001785D01*
X017047Y001741D01*
X017038Y001695D01*
X017038Y001611D01*
X017288Y001611D01*
X017288Y001911D01*
X017254Y001911D01*
X017208Y001902D01*
X017164Y001884D01*
X017125Y001858D01*
X017091Y001824D01*
X017043Y001720D02*
X015604Y001720D01*
X015604Y001621D02*
X017038Y001621D01*
X017039Y001523D02*
X015598Y001523D01*
X015504Y001424D02*
X017074Y001424D01*
X017196Y001326D02*
X013075Y001326D01*
X013075Y001424D02*
X014932Y001424D01*
X015168Y001424D02*
X015268Y001424D01*
X015268Y001523D02*
X015168Y001523D01*
X015168Y001621D02*
X015268Y001621D01*
X015268Y001917D02*
X015168Y001917D01*
X015168Y002015D02*
X015268Y002015D01*
X015268Y002114D02*
X015168Y002114D01*
X015584Y002114D02*
X016412Y002114D01*
X016436Y002015D02*
X015604Y002015D01*
X015604Y001917D02*
X016527Y001917D01*
X016662Y001917D02*
X016662Y001917D01*
X016662Y002015D02*
X016662Y002015D01*
X016662Y002114D02*
X016662Y002114D01*
X016797Y001917D02*
X018140Y001917D01*
X018140Y002015D02*
X017198Y002015D01*
X017288Y001818D02*
X017288Y001818D01*
X017288Y001720D02*
X017288Y001720D01*
X017288Y001621D02*
X017288Y001621D01*
X017488Y001818D02*
X017492Y001818D01*
X017784Y001818D02*
X018138Y001818D01*
X018140Y002114D02*
X017560Y002114D01*
X017658Y002212D02*
X018140Y002212D01*
X018140Y002311D02*
X017992Y002311D01*
X018016Y002409D02*
X018140Y002409D01*
X018140Y002508D02*
X018016Y002508D01*
X017972Y002606D02*
X018140Y002606D01*
X018140Y002705D02*
X018016Y002705D01*
X018016Y002803D02*
X018140Y002803D01*
X018140Y002902D02*
X017953Y002902D01*
X018016Y003000D02*
X018140Y003000D01*
X018140Y003099D02*
X018016Y003099D01*
X017968Y003197D02*
X018140Y003197D01*
X018140Y003296D02*
X018016Y003296D01*
X018016Y003394D02*
X018140Y003394D01*
X018140Y003493D02*
X017987Y003493D01*
X018013Y003591D02*
X018140Y003591D01*
X018140Y003690D02*
X018016Y003690D01*
X018007Y003788D02*
X018140Y003788D01*
X018140Y003887D02*
X017993Y003887D01*
X018016Y003985D02*
X018140Y003985D01*
X018140Y004084D02*
X018016Y004084D01*
X017974Y004182D02*
X018140Y004182D01*
X018140Y004281D02*
X018016Y004281D01*
X018016Y004379D02*
X018140Y004379D01*
X018140Y004478D02*
X017954Y004478D01*
X018016Y004576D02*
X018140Y004576D01*
X018140Y004675D02*
X018016Y004675D01*
X017967Y004773D02*
X018080Y004773D01*
X018314Y004935D02*
X018350Y005022D01*
X018350Y005121D01*
X018312Y005213D01*
X018242Y005284D01*
X018150Y005322D01*
X018050Y005322D01*
X018016Y005307D01*
X018016Y005354D01*
X017979Y005391D01*
X018011Y005423D01*
X018040Y005474D01*
X018056Y005530D01*
X018056Y005577D01*
X018056Y005623D01*
X018040Y005679D01*
X018011Y005730D01*
X017970Y005771D01*
X017920Y005800D01*
X017864Y005815D01*
X017630Y005815D01*
X017630Y005577D01*
X017630Y005577D01*
X017630Y005815D01*
X017601Y005815D01*
X017918Y006132D01*
X018140Y006132D01*
X018140Y006006D01*
X018246Y005900D01*
X018431Y005900D01*
X018496Y005964D01*
X018561Y005900D01*
X018746Y005900D01*
X018811Y005964D01*
X018876Y005900D01*
X019061Y005900D01*
X019126Y005964D01*
X019191Y005900D01*
X019376Y005900D01*
X019441Y005964D01*
X019506Y005900D01*
X019691Y005900D01*
X019756Y005964D01*
X019768Y005953D01*
X019748Y005933D01*
X019710Y005841D01*
X019710Y005742D01*
X019748Y005650D01*
X019818Y005580D01*
X019910Y005542D01*
X020010Y005542D01*
X020102Y005580D01*
X020120Y005598D01*
X020120Y005344D01*
X020118Y005344D01*
X020048Y005273D01*
X020010Y005181D01*
X020010Y005082D01*
X020048Y004990D01*
X020118Y004920D01*
X020210Y004882D01*
X020310Y004882D01*
X020402Y004920D01*
X020472Y004990D01*
X020510Y005082D01*
X020510Y005181D01*
X020472Y005273D01*
X020402Y005344D01*
X020400Y005344D01*
X020400Y005898D01*
X020440Y005875D01*
X020497Y005860D01*
X020543Y005860D01*
X020543Y006285D01*
X020427Y006285D01*
X020427Y006285D01*
X020543Y006285D01*
X020543Y006285D01*
X020543Y006285D01*
X020543Y005860D01*
X020590Y005860D01*
X020646Y005875D01*
X020697Y005904D01*
X020729Y005936D01*
X020766Y005900D01*
X020951Y005900D01*
X021016Y005964D01*
X021081Y005900D01*
X021266Y005900D01*
X021331Y005964D01*
X021396Y005900D01*
X021581Y005900D01*
X021687Y006006D01*
X021687Y006565D01*
X021581Y006671D01*
X021577Y006671D01*
X021578Y006672D01*
X024065Y006672D01*
X023950Y006557D01*
X023950Y006412D01*
X024362Y006412D01*
X024362Y006325D01*
X024362Y006003D01*
X024372Y005993D01*
X024410Y005901D01*
X024410Y005802D01*
X024403Y005784D01*
X024577Y005784D01*
X024820Y005541D01*
X024820Y005197D01*
X024715Y005092D01*
X024942Y005092D01*
X025019Y005168D01*
X024990Y005197D01*
X024990Y005541D01*
X025233Y005784D01*
X025577Y005784D01*
X025820Y005541D01*
X025820Y005197D01*
X025577Y004954D01*
X025233Y004954D01*
X025217Y004970D01*
X025216Y004970D01*
X025217Y004970D02*
X025108Y004862D01*
X025210Y004760D01*
X025233Y004784D01*
X025577Y004784D01*
X025820Y004541D01*
X025820Y004197D01*
X025577Y003954D01*
X025416Y003954D01*
X025538Y003832D01*
X026360Y003832D01*
X026360Y003956D01*
X026825Y003956D01*
X026825Y004034D01*
X026825Y004322D01*
X026490Y004322D01*
X026452Y004312D01*
X026418Y004292D01*
X026390Y004264D01*
X026370Y004230D01*
X026360Y004192D01*
X026360Y004034D01*
X026825Y004034D01*
X026903Y004034D01*
X026903Y004322D01*
X027238Y004322D01*
X027276Y004312D01*
X027310Y004292D01*
X027338Y004264D01*
X027358Y004230D01*
X027368Y004192D01*
X027368Y004034D01*
X026903Y004034D01*
X026903Y003956D01*
X027368Y003956D01*
X027368Y003832D01*
X029582Y003832D01*
X029082Y004332D01*
X029000Y004414D01*
X029000Y004549D01*
X028738Y004549D01*
X028715Y004572D01*
X028478Y004572D01*
X028405Y004499D01*
X028405Y003950D01*
X028341Y003886D01*
X027541Y003886D01*
X027476Y003950D01*
X027476Y004592D01*
X027541Y004657D01*
X027917Y004657D01*
X026987Y005587D01*
X026455Y005587D01*
X026390Y005651D01*
X026390Y005772D01*
X025782Y005772D01*
X025589Y005965D01*
X025577Y005954D01*
X025233Y005954D01*
X024990Y006197D01*
X024990Y006541D01*
X025002Y006552D01*
X024882Y006672D01*
X024746Y006672D01*
X024860Y006557D01*
X024860Y006412D01*
X024449Y006412D01*
X024449Y006325D01*
X024860Y006325D01*
X024860Y006180D01*
X024594Y005914D01*
X024449Y005914D01*
X024449Y006325D01*
X024362Y006325D01*
X023950Y006325D01*
X023950Y006232D01*
X023833Y006232D01*
X023832Y006233D01*
X023762Y006304D01*
X023670Y006342D01*
X023570Y006342D01*
X023478Y006304D01*
X023408Y006233D01*
X023370Y006141D01*
X023370Y006042D01*
X023408Y005950D01*
X023478Y005880D01*
X023570Y005842D01*
X023670Y005842D01*
X023762Y005880D01*
X023832Y005950D01*
X023833Y005952D01*
X023862Y005952D01*
X023911Y005903D01*
X023910Y005901D01*
X023910Y005802D01*
X023948Y005710D01*
X024018Y005640D01*
X024068Y005619D01*
X023990Y005541D01*
X023990Y005452D01*
X023009Y005452D01*
X023030Y005502D01*
X023030Y005601D01*
X022992Y005693D01*
X022922Y005764D01*
X022830Y005802D01*
X022730Y005802D01*
X022638Y005764D01*
X022568Y005693D01*
X022567Y005692D01*
X022560Y005692D01*
X022477Y005775D01*
X021917Y005775D01*
X021811Y005669D01*
X021811Y005484D01*
X021876Y005419D01*
X021811Y005354D01*
X021811Y005169D01*
X021876Y005104D01*
X021811Y005039D01*
X021811Y004854D01*
X021874Y004792D01*
X019993Y004792D01*
X019992Y004793D01*
X019922Y004864D01*
X019830Y004902D01*
X019730Y004902D01*
X019638Y004864D01*
X019568Y004793D01*
X019530Y004701D01*
X019530Y004602D01*
X019568Y004510D01*
X019638Y004440D01*
X019730Y004402D01*
X019830Y004402D01*
X019922Y004440D01*
X019992Y004510D01*
X019993Y004512D01*
X021839Y004512D01*
X021876Y004474D01*
X021811Y004409D01*
X021811Y004224D01*
X021876Y004159D01*
X021811Y004094D01*
X021811Y003909D01*
X021848Y003873D01*
X021815Y003840D01*
X021786Y003790D01*
X021771Y003734D01*
X021771Y003687D01*
X022197Y003687D01*
X022197Y003687D01*
X021771Y003687D01*
X021771Y003640D01*
X021786Y003584D01*
X021815Y003533D01*
X021848Y003501D01*
X021811Y003464D01*
X021811Y003341D01*
X021751Y003281D01*
X021750Y003282D01*
X021650Y003282D01*
X021558Y003244D01*
X021488Y003173D01*
X021450Y003081D01*
X021450Y002982D01*
X021488Y002890D01*
X021558Y002820D01*
X021650Y002782D01*
X021750Y002782D01*
X021811Y002807D01*
X021811Y002649D01*
X021876Y002584D01*
X021811Y002520D01*
X021811Y002334D01*
X021917Y002228D01*
X022477Y002228D01*
X022582Y002334D01*
X022582Y002520D01*
X022518Y002584D01*
X022525Y002592D01*
X023022Y002592D01*
X023320Y002293D01*
X022967Y002293D01*
X022902Y002229D01*
X022902Y002092D01*
X022182Y002092D01*
X021883Y001792D01*
X021770Y001792D01*
X021709Y001732D01*
X021698Y001732D01*
X021687Y001743D01*
X021687Y001998D01*
X021581Y002104D01*
X021396Y002104D01*
X021359Y002067D01*
X021327Y002100D01*
X021276Y002129D01*
X021220Y002144D01*
X021173Y002144D01*
X021126Y002144D01*
X021070Y002129D01*
X021020Y002100D01*
X020987Y002067D01*
X020951Y002104D01*
X020766Y002104D01*
X020701Y002039D01*
X020636Y002104D01*
X020451Y002104D01*
X020386Y002039D01*
X020321Y002104D01*
X020136Y002104D01*
X020071Y002039D01*
X020006Y002104D01*
X019821Y002104D01*
X019756Y002039D01*
X019691Y002104D01*
X019586Y002104D01*
X019189Y002500D01*
X019190Y002502D01*
X019190Y002601D01*
X019152Y002693D01*
X019082Y002764D01*
X018990Y002802D01*
X018890Y002802D01*
X018798Y002764D01*
X018728Y002693D01*
X018690Y002601D01*
X018690Y002502D01*
X018728Y002410D01*
X018798Y002340D01*
X018890Y002302D01*
X018990Y002302D01*
X018991Y002302D01*
X019190Y002103D01*
X019126Y002039D01*
X019061Y002104D01*
X018876Y002104D01*
X018839Y002067D01*
X018807Y002100D01*
X018757Y002129D01*
X018700Y002144D01*
X018654Y002144D01*
X018654Y001718D01*
X018654Y001718D01*
X018654Y002144D01*
X018607Y002144D01*
X018551Y002129D01*
X018500Y002100D01*
X018468Y002067D01*
X018431Y002104D01*
X018420Y002104D01*
X018420Y004830D01*
X018338Y004912D01*
X018314Y004935D01*
X018329Y004970D02*
X020068Y004970D01*
X020015Y005069D02*
X018350Y005069D01*
X018331Y005167D02*
X020010Y005167D01*
X020045Y005266D02*
X018260Y005266D01*
X018006Y005364D02*
X020120Y005364D01*
X020120Y005463D02*
X018034Y005463D01*
X018056Y005561D02*
X019863Y005561D01*
X019744Y005660D02*
X018046Y005660D01*
X018056Y005577D02*
X017630Y005577D01*
X017630Y005577D01*
X017630Y005577D01*
X017204Y005577D01*
X017204Y005592D01*
X016595Y005592D01*
X016595Y005438D01*
X016259Y005438D01*
X016259Y005338D01*
X016595Y005338D01*
X016595Y005132D01*
X016585Y005094D01*
X016565Y005060D01*
X016537Y005032D01*
X016503Y005012D01*
X016476Y005005D01*
X016481Y005004D01*
X016515Y004984D01*
X016543Y004956D01*
X016563Y004922D01*
X016573Y004884D01*
X016573Y004678D01*
X016237Y004678D01*
X016137Y004678D01*
X016137Y005002D01*
X016159Y005002D01*
X016159Y005338D01*
X016259Y005338D01*
X016259Y005014D01*
X016237Y005014D01*
X016237Y004678D01*
X016237Y004578D01*
X016573Y004578D01*
X016573Y004372D01*
X016563Y004334D01*
X016543Y004299D01*
X016515Y004271D01*
X016481Y004252D01*
X016443Y004241D01*
X016237Y004241D01*
X016237Y004578D01*
X016137Y004578D01*
X016137Y004241D01*
X016080Y004241D01*
X016080Y004181D01*
X016171Y004090D01*
X016171Y003804D01*
X016138Y003772D01*
X016911Y003772D01*
X016890Y003822D01*
X016890Y003921D01*
X016928Y004013D01*
X016998Y004084D01*
X017090Y004122D01*
X017190Y004122D01*
X017248Y004098D01*
X017309Y004159D01*
X017244Y004224D01*
X017244Y004409D01*
X017309Y004474D01*
X017244Y004539D01*
X017244Y004724D01*
X017309Y004789D01*
X017244Y004854D01*
X017244Y005039D01*
X017309Y005104D01*
X017244Y005169D01*
X017244Y005354D01*
X017281Y005391D01*
X017248Y005423D01*
X017219Y005474D01*
X017204Y005530D01*
X017204Y005577D01*
X017630Y005577D01*
X018056Y005577D01*
X017983Y005758D02*
X019710Y005758D01*
X019716Y005857D02*
X017643Y005857D01*
X017630Y005758D02*
X017630Y005758D01*
X017630Y005660D02*
X017630Y005660D01*
X017204Y005561D02*
X016595Y005561D01*
X016595Y005463D02*
X017226Y005463D01*
X017254Y005364D02*
X016259Y005364D01*
X016259Y005266D02*
X016159Y005266D01*
X016159Y005167D02*
X016259Y005167D01*
X016259Y005069D02*
X016159Y005069D01*
X016137Y004970D02*
X016237Y004970D01*
X016237Y004872D02*
X016137Y004872D01*
X016137Y004773D02*
X016237Y004773D01*
X016237Y004675D02*
X017244Y004675D01*
X017244Y004576D02*
X016573Y004576D01*
X016573Y004478D02*
X017306Y004478D01*
X017244Y004379D02*
X016573Y004379D01*
X016524Y004281D02*
X017244Y004281D01*
X017286Y004182D02*
X016080Y004182D01*
X016137Y004281D02*
X016237Y004281D01*
X016237Y004379D02*
X016137Y004379D01*
X016137Y004478D02*
X016237Y004478D01*
X016237Y004576D02*
X016137Y004576D01*
X016573Y004773D02*
X017293Y004773D01*
X017244Y004872D02*
X016573Y004872D01*
X016529Y004970D02*
X017244Y004970D01*
X017274Y005069D02*
X016570Y005069D01*
X016595Y005167D02*
X017246Y005167D01*
X017244Y005266D02*
X016595Y005266D01*
X015680Y004970D02*
X015646Y004970D01*
X016171Y004084D02*
X016999Y004084D01*
X016916Y003985D02*
X016171Y003985D01*
X016171Y003887D02*
X016890Y003887D01*
X016904Y003788D02*
X016155Y003788D01*
X018420Y003788D02*
X019639Y003788D01*
X019644Y003781D02*
X019692Y003732D01*
X019749Y003694D01*
X019812Y003668D01*
X019865Y003658D01*
X019865Y003953D01*
X019962Y003953D01*
X019962Y003658D01*
X020015Y003668D01*
X020078Y003694D01*
X020135Y003732D01*
X020183Y003781D01*
X020221Y003837D01*
X020247Y003901D01*
X020257Y003953D01*
X019962Y003953D01*
X019962Y004050D01*
X020257Y004050D01*
X020247Y004103D01*
X020221Y004166D01*
X020183Y004223D01*
X020135Y004271D01*
X020078Y004309D01*
X020015Y004335D01*
X019962Y004346D01*
X019962Y004050D01*
X019865Y004050D01*
X019865Y003953D01*
X019569Y003953D01*
X019580Y003901D01*
X019606Y003837D01*
X019644Y003781D01*
X019586Y003887D02*
X018420Y003887D01*
X018420Y003985D02*
X019865Y003985D01*
X019865Y004050D02*
X019569Y004050D01*
X019580Y004103D01*
X019606Y004166D01*
X019644Y004223D01*
X019692Y004271D01*
X019749Y004309D01*
X019812Y004335D01*
X019865Y004346D01*
X019865Y004050D01*
X019865Y004084D02*
X019962Y004084D01*
X019962Y004182D02*
X019865Y004182D01*
X019865Y004281D02*
X019962Y004281D01*
X020120Y004281D02*
X021811Y004281D01*
X021811Y004379D02*
X018420Y004379D01*
X018420Y004281D02*
X019707Y004281D01*
X019617Y004182D02*
X018420Y004182D01*
X018420Y004084D02*
X019576Y004084D01*
X019865Y003887D02*
X019962Y003887D01*
X019962Y003985D02*
X021811Y003985D01*
X021811Y004084D02*
X020251Y004084D01*
X020210Y004182D02*
X021853Y004182D01*
X021834Y003887D02*
X020241Y003887D01*
X020188Y003788D02*
X021786Y003788D01*
X021771Y003690D02*
X020067Y003690D01*
X019962Y003690D02*
X019865Y003690D01*
X019865Y003788D02*
X019962Y003788D01*
X019760Y003690D02*
X018420Y003690D01*
X018420Y003591D02*
X021784Y003591D01*
X021840Y003493D02*
X018420Y003493D01*
X018420Y003394D02*
X021811Y003394D01*
X021766Y003296D02*
X018420Y003296D01*
X018420Y003197D02*
X021512Y003197D01*
X021457Y003099D02*
X018420Y003099D01*
X018420Y003000D02*
X021450Y003000D01*
X021483Y002902D02*
X018420Y002902D01*
X018420Y002803D02*
X021598Y002803D01*
X021802Y002803D02*
X021811Y002803D01*
X021811Y002705D02*
X019141Y002705D01*
X019188Y002606D02*
X021854Y002606D01*
X021811Y002508D02*
X019190Y002508D01*
X019280Y002409D02*
X021811Y002409D01*
X021835Y002311D02*
X019379Y002311D01*
X019477Y002212D02*
X022902Y002212D01*
X022902Y002114D02*
X021302Y002114D01*
X021173Y002114D02*
X021173Y002114D01*
X021173Y002144D02*
X021173Y001718D01*
X021173Y002144D01*
X021173Y002015D02*
X021173Y002015D01*
X021173Y001917D02*
X021173Y001917D01*
X021173Y001818D02*
X021173Y001818D01*
X021173Y001720D02*
X021173Y001720D01*
X021173Y001718D02*
X021173Y001718D01*
X021687Y001818D02*
X021909Y001818D01*
X022007Y001917D02*
X021687Y001917D01*
X021669Y002015D02*
X022106Y002015D01*
X022321Y001812D02*
X022902Y001812D01*
X022902Y001744D01*
X022967Y001680D01*
X023530Y001680D01*
X023595Y001744D01*
X023595Y002019D01*
X023768Y001845D01*
X023768Y001818D01*
X023448Y001498D01*
X023426Y001498D01*
X023371Y001442D01*
X023365Y001451D01*
X023332Y001484D01*
X023293Y001510D01*
X023249Y001528D01*
X023203Y001538D01*
X023169Y001538D01*
X023135Y001538D01*
X023089Y001528D01*
X023045Y001510D01*
X023006Y001484D01*
X022973Y001451D01*
X022946Y001411D01*
X022928Y001368D01*
X022919Y001321D01*
X022919Y001238D01*
X023169Y001238D01*
X023169Y001538D01*
X023169Y001238D01*
X023169Y001238D01*
X023169Y001238D01*
X022919Y001238D01*
X022919Y001154D01*
X022928Y001108D01*
X022939Y001082D01*
X022896Y001082D01*
X022896Y001233D01*
X022841Y001288D01*
X022849Y001293D01*
X022883Y001327D01*
X022909Y001366D01*
X022927Y001410D01*
X022936Y001456D01*
X022936Y001490D01*
X022936Y001523D01*
X023075Y001523D01*
X023169Y001523D02*
X023169Y001523D01*
X023263Y001523D02*
X023473Y001523D01*
X023572Y001621D02*
X022904Y001621D01*
X022909Y001614D02*
X022883Y001653D01*
X022849Y001686D01*
X022810Y001713D01*
X022766Y001731D01*
X022720Y001740D01*
X022636Y001740D01*
X022553Y001740D01*
X022506Y001731D01*
X022462Y001713D01*
X022439Y001697D01*
X022435Y001706D01*
X022409Y001745D01*
X022376Y001779D01*
X022336Y001805D01*
X022321Y001812D01*
X022426Y001720D02*
X022480Y001720D01*
X022636Y001720D02*
X022636Y001720D01*
X022636Y001740D02*
X022636Y001490D01*
X022636Y001490D01*
X022636Y001740D01*
X022636Y001621D02*
X022636Y001621D01*
X022636Y001523D02*
X022636Y001523D01*
X022636Y001490D02*
X022936Y001490D01*
X022636Y001490D01*
X022636Y001490D01*
X022793Y001720D02*
X022927Y001720D01*
X022909Y001614D02*
X022927Y001570D01*
X022936Y001523D01*
X022930Y001424D02*
X022955Y001424D01*
X022920Y001326D02*
X022881Y001326D01*
X022896Y001227D02*
X022919Y001227D01*
X022924Y001129D02*
X022896Y001129D01*
X023169Y001326D02*
X023169Y001326D01*
X023169Y001424D02*
X023169Y001424D01*
X023728Y001382D02*
X024026Y001680D01*
X024396Y001680D01*
X024461Y001744D01*
X024461Y002229D01*
X024396Y002293D01*
X023833Y002293D01*
X023775Y002235D01*
X023220Y002790D01*
X023220Y002974D01*
X024217Y003970D01*
X024233Y003954D01*
X024577Y003954D01*
X024799Y004175D01*
X025340Y003634D01*
X025422Y003552D01*
X026978Y003552D01*
X026958Y003544D01*
X026888Y003473D01*
X026850Y003381D01*
X026850Y003282D01*
X026888Y003190D01*
X026958Y003120D01*
X027050Y003082D01*
X027150Y003082D01*
X027151Y003082D01*
X028116Y002117D01*
X028116Y001951D01*
X028233Y001834D01*
X028519Y001834D01*
X028636Y001951D01*
X028636Y002137D01*
X028581Y002192D01*
X028589Y002198D01*
X028623Y002231D01*
X028649Y002270D01*
X028667Y002314D01*
X028676Y002360D01*
X028676Y002394D01*
X028676Y002428D01*
X028667Y002474D01*
X028649Y002518D01*
X028623Y002557D01*
X028589Y002590D01*
X028550Y002617D01*
X028506Y002635D01*
X028460Y002644D01*
X028376Y002644D01*
X028293Y002644D01*
X028246Y002635D01*
X028203Y002617D01*
X028163Y002590D01*
X028130Y002557D01*
X028107Y002523D01*
X027349Y003280D01*
X027350Y003282D01*
X027350Y003381D01*
X027312Y003473D01*
X027242Y003544D01*
X027222Y003552D01*
X029862Y003552D01*
X030410Y003004D01*
X030392Y002986D01*
X030392Y002305D01*
X030457Y002240D01*
X031138Y002240D01*
X031203Y002305D01*
X031203Y002986D01*
X031138Y003051D01*
X030759Y003051D01*
X030702Y003107D01*
X030737Y003107D01*
X030737Y003503D01*
X030342Y003503D01*
X030342Y003468D01*
X030060Y003750D01*
X029978Y003832D01*
X029280Y004530D01*
X029280Y004890D01*
X029140Y005029D01*
X029140Y005202D01*
X029023Y005319D01*
X028738Y005319D01*
X028690Y005272D01*
X028478Y005272D01*
X028405Y005345D01*
X028405Y005519D01*
X029595Y006709D01*
X029714Y006709D01*
X029796Y006791D01*
X029879Y006709D01*
X030064Y006709D01*
X030147Y006792D01*
X030561Y006792D01*
X030561Y006623D01*
X030625Y006558D01*
X031189Y006558D01*
X031253Y006623D01*
X031253Y007186D01*
X031189Y007251D01*
X030625Y007251D01*
X030561Y007186D01*
X030561Y007072D01*
X030181Y007072D01*
X030181Y007112D01*
X030064Y007229D01*
X029879Y007229D01*
X029796Y007147D01*
X029714Y007229D01*
X029529Y007229D01*
X029411Y007112D01*
X029411Y006921D01*
X028405Y005915D01*
X028405Y005931D01*
X028341Y005995D01*
X027754Y005995D01*
X026558Y007192D01*
X021103Y007192D01*
X021103Y007212D01*
X020986Y007329D01*
X020841Y007329D01*
X020747Y007423D01*
X031423Y007423D01*
X031423Y001082D01*
X030484Y001082D01*
X030492Y001090D01*
X030493Y001092D01*
X030518Y001092D01*
X030602Y001176D01*
X031118Y001176D01*
X031183Y001240D01*
X031183Y001922D01*
X031118Y001986D01*
X030437Y001986D01*
X030372Y001922D01*
X030372Y001464D01*
X030330Y001482D01*
X030230Y001482D01*
X030138Y001444D01*
X030068Y001373D01*
X030030Y001281D01*
X030030Y001182D01*
X030068Y001090D01*
X030076Y001082D01*
X023716Y001082D01*
X023729Y001095D01*
X023729Y001380D01*
X023728Y001382D01*
X023729Y001326D02*
X030048Y001326D01*
X030030Y001227D02*
X023729Y001227D01*
X023729Y001129D02*
X030052Y001129D01*
X030119Y001424D02*
X023770Y001424D01*
X023869Y001523D02*
X030372Y001523D01*
X030372Y001621D02*
X023967Y001621D01*
X023768Y001818D02*
X023595Y001818D01*
X023595Y001917D02*
X023697Y001917D01*
X023599Y002015D02*
X023595Y002015D01*
X023699Y002311D02*
X027923Y002311D01*
X027825Y002409D02*
X023600Y002409D01*
X023502Y002508D02*
X027726Y002508D01*
X027628Y002606D02*
X023403Y002606D01*
X023305Y002705D02*
X027529Y002705D01*
X027431Y002803D02*
X023220Y002803D01*
X023220Y002902D02*
X027332Y002902D01*
X027234Y003000D02*
X023246Y003000D01*
X023345Y003099D02*
X027009Y003099D01*
X026885Y003197D02*
X023443Y003197D01*
X023542Y003296D02*
X026850Y003296D01*
X026855Y003394D02*
X023640Y003394D01*
X023739Y003493D02*
X026907Y003493D01*
X027293Y003493D02*
X029921Y003493D01*
X030020Y003394D02*
X027345Y003394D01*
X027350Y003296D02*
X030118Y003296D01*
X030217Y003197D02*
X027432Y003197D01*
X027531Y003099D02*
X030315Y003099D01*
X030406Y003000D02*
X027629Y003000D01*
X027728Y002902D02*
X030392Y002902D01*
X030392Y002803D02*
X027826Y002803D01*
X027925Y002705D02*
X030392Y002705D01*
X030392Y002606D02*
X028566Y002606D01*
X028653Y002508D02*
X030392Y002508D01*
X030392Y002409D02*
X028676Y002409D01*
X028676Y002394D02*
X028376Y002394D01*
X028376Y002644D01*
X028376Y002394D01*
X028376Y002394D01*
X028376Y002394D01*
X028676Y002394D01*
X028666Y002311D02*
X030392Y002311D01*
X030372Y001917D02*
X028602Y001917D01*
X028636Y002015D02*
X031423Y002015D01*
X031423Y001917D02*
X031183Y001917D01*
X031183Y001818D02*
X031423Y001818D01*
X031423Y001720D02*
X031183Y001720D01*
X031183Y001621D02*
X031423Y001621D01*
X031423Y001523D02*
X031183Y001523D01*
X031183Y001424D02*
X031423Y001424D01*
X031423Y001326D02*
X031183Y001326D01*
X031170Y001227D02*
X031423Y001227D01*
X031423Y001129D02*
X030555Y001129D01*
X030372Y001720D02*
X024436Y001720D01*
X024461Y001818D02*
X030372Y001818D01*
X031203Y002311D02*
X031423Y002311D01*
X031423Y002409D02*
X031203Y002409D01*
X031203Y002508D02*
X031423Y002508D01*
X031423Y002606D02*
X031203Y002606D01*
X031203Y002705D02*
X031423Y002705D01*
X031423Y002803D02*
X031203Y002803D01*
X031203Y002902D02*
X031423Y002902D01*
X031423Y003000D02*
X031189Y003000D01*
X031140Y003117D02*
X031175Y003137D01*
X031203Y003165D01*
X031222Y003199D01*
X031233Y003238D01*
X031233Y003503D01*
X030837Y003503D01*
X030837Y003603D01*
X030737Y003603D01*
X030737Y003998D01*
X030472Y003998D01*
X030434Y003988D01*
X030400Y003968D01*
X030372Y003940D01*
X030352Y003906D01*
X030342Y003868D01*
X030342Y003603D01*
X030737Y003603D01*
X030737Y003503D01*
X030837Y003503D01*
X030837Y003107D01*
X031102Y003107D01*
X031140Y003117D01*
X031221Y003197D02*
X031423Y003197D01*
X031423Y003099D02*
X030711Y003099D01*
X030737Y003197D02*
X030837Y003197D01*
X030837Y003296D02*
X030737Y003296D01*
X030737Y003394D02*
X030837Y003394D01*
X030837Y003493D02*
X030737Y003493D01*
X030737Y003591D02*
X030218Y003591D01*
X030120Y003690D02*
X030342Y003690D01*
X030342Y003788D02*
X030021Y003788D01*
X030060Y003750D02*
X030060Y003750D01*
X029978Y003832D02*
X029978Y003832D01*
X029923Y003887D02*
X030347Y003887D01*
X030430Y003985D02*
X029824Y003985D01*
X029726Y004084D02*
X031423Y004084D01*
X031423Y004182D02*
X029627Y004182D01*
X029529Y004281D02*
X031423Y004281D01*
X031423Y004379D02*
X029430Y004379D01*
X029332Y004478D02*
X031423Y004478D01*
X031423Y004576D02*
X029280Y004576D01*
X029280Y004675D02*
X031423Y004675D01*
X031423Y004773D02*
X029280Y004773D01*
X029280Y004872D02*
X031423Y004872D01*
X031423Y004970D02*
X029199Y004970D01*
X029140Y005069D02*
X031423Y005069D01*
X031423Y005167D02*
X029140Y005167D01*
X029077Y005266D02*
X031423Y005266D01*
X031423Y005364D02*
X028405Y005364D01*
X028405Y005463D02*
X031423Y005463D01*
X031423Y005561D02*
X028448Y005561D01*
X028546Y005660D02*
X031423Y005660D01*
X031423Y005758D02*
X031268Y005758D01*
X031263Y005750D02*
X031283Y005784D01*
X031293Y005822D01*
X031293Y006028D01*
X030957Y006028D01*
X030957Y006128D01*
X030857Y006128D01*
X030857Y006464D01*
X030651Y006464D01*
X030613Y006454D01*
X030579Y006434D01*
X030551Y006406D01*
X030531Y006372D01*
X030521Y006334D01*
X030521Y006128D01*
X030857Y006128D01*
X030857Y006028D01*
X030521Y006028D01*
X030521Y005822D01*
X030531Y005784D01*
X030551Y005750D01*
X030579Y005722D01*
X030613Y005702D01*
X030651Y005692D01*
X030857Y005692D01*
X030857Y006028D01*
X030957Y006028D01*
X030957Y005692D01*
X031163Y005692D01*
X031201Y005702D01*
X031235Y005722D01*
X031263Y005750D01*
X031293Y005857D02*
X031423Y005857D01*
X031423Y005955D02*
X031293Y005955D01*
X031423Y006054D02*
X030957Y006054D01*
X030957Y006128D02*
X031293Y006128D01*
X031293Y006334D01*
X031283Y006372D01*
X031263Y006406D01*
X031235Y006434D01*
X031201Y006454D01*
X031163Y006464D01*
X030957Y006464D01*
X030957Y006128D01*
X030957Y006152D02*
X030857Y006152D01*
X030857Y006054D02*
X028940Y006054D01*
X029039Y006152D02*
X030521Y006152D01*
X030521Y006251D02*
X029137Y006251D01*
X029236Y006349D02*
X030525Y006349D01*
X030602Y006448D02*
X029334Y006448D01*
X029433Y006546D02*
X031423Y006546D01*
X031423Y006448D02*
X031212Y006448D01*
X031289Y006349D02*
X031423Y006349D01*
X031423Y006251D02*
X031293Y006251D01*
X031293Y006152D02*
X031423Y006152D01*
X030957Y006251D02*
X030857Y006251D01*
X030857Y006349D02*
X030957Y006349D01*
X030957Y006448D02*
X030857Y006448D01*
X030561Y006645D02*
X029531Y006645D01*
X029748Y006743D02*
X029844Y006743D01*
X030098Y006743D02*
X030561Y006743D01*
X031253Y006743D02*
X031423Y006743D01*
X031423Y006645D02*
X031253Y006645D01*
X031253Y006842D02*
X031423Y006842D01*
X031423Y006940D02*
X031253Y006940D01*
X031253Y007039D02*
X031423Y007039D01*
X031423Y007137D02*
X031253Y007137D01*
X031204Y007236D02*
X031423Y007236D01*
X031423Y007334D02*
X020835Y007334D01*
X021079Y007236D02*
X030610Y007236D01*
X030561Y007137D02*
X030156Y007137D01*
X029437Y007137D02*
X026612Y007137D01*
X026711Y007039D02*
X029411Y007039D01*
X029411Y006940D02*
X026809Y006940D01*
X026908Y006842D02*
X029332Y006842D01*
X029234Y006743D02*
X027006Y006743D01*
X027105Y006645D02*
X029135Y006645D01*
X029037Y006546D02*
X027203Y006546D01*
X027302Y006448D02*
X028938Y006448D01*
X028840Y006349D02*
X027400Y006349D01*
X027499Y006251D02*
X028741Y006251D01*
X028643Y006152D02*
X027597Y006152D01*
X027696Y006054D02*
X028544Y006054D01*
X028446Y005955D02*
X028381Y005955D01*
X028645Y005758D02*
X030546Y005758D01*
X030521Y005857D02*
X028743Y005857D01*
X028842Y005955D02*
X030521Y005955D01*
X030857Y005955D02*
X030957Y005955D01*
X030957Y005857D02*
X030857Y005857D01*
X030857Y005758D02*
X030957Y005758D01*
X027899Y004675D02*
X025686Y004675D01*
X025588Y004773D02*
X027800Y004773D01*
X027702Y004872D02*
X025118Y004872D01*
X025196Y004773D02*
X025223Y004773D01*
X025594Y004970D02*
X027603Y004970D01*
X027505Y005069D02*
X025692Y005069D01*
X025791Y005167D02*
X027406Y005167D01*
X027308Y005266D02*
X025820Y005266D01*
X025820Y005364D02*
X027209Y005364D01*
X027111Y005463D02*
X025820Y005463D01*
X025800Y005561D02*
X027012Y005561D01*
X026390Y005660D02*
X025701Y005660D01*
X025603Y005758D02*
X026390Y005758D01*
X025697Y005857D02*
X024410Y005857D01*
X024388Y005955D02*
X024449Y005955D01*
X024449Y006054D02*
X024362Y006054D01*
X024362Y006152D02*
X024449Y006152D01*
X024449Y006251D02*
X024362Y006251D01*
X024362Y006349D02*
X021687Y006349D01*
X021687Y006251D02*
X023425Y006251D01*
X023374Y006152D02*
X021687Y006152D01*
X021687Y006054D02*
X023370Y006054D01*
X023406Y005955D02*
X021636Y005955D01*
X021340Y005955D02*
X021322Y005955D01*
X021025Y005955D02*
X021007Y005955D01*
X020543Y005955D02*
X020543Y005955D01*
X020543Y006054D02*
X020543Y006054D01*
X020543Y006152D02*
X020543Y006152D01*
X020543Y006251D02*
X020543Y006251D01*
X020543Y006285D02*
X020543Y006285D01*
X020543Y006711D01*
X020497Y006711D01*
X020440Y006696D01*
X020390Y006667D01*
X020358Y006634D01*
X020321Y006671D01*
X020136Y006671D01*
X020071Y006606D01*
X020006Y006671D01*
X019821Y006671D01*
X019756Y006606D01*
X019691Y006671D01*
X019506Y006671D01*
X019441Y006606D01*
X019376Y006671D01*
X019191Y006671D01*
X019126Y006606D01*
X019061Y006671D01*
X018876Y006671D01*
X018811Y006606D01*
X018746Y006671D01*
X018561Y006671D01*
X018496Y006606D01*
X018431Y006671D01*
X018246Y006671D01*
X018160Y006585D01*
X018132Y006653D01*
X018062Y006724D01*
X017970Y006762D01*
X017870Y006762D01*
X017778Y006724D01*
X017728Y006674D01*
X017712Y006713D01*
X017642Y006784D01*
X017640Y006784D01*
X017640Y006930D01*
X017684Y006930D01*
X017749Y006994D01*
X017749Y007092D01*
X020293Y007092D01*
X020293Y007069D01*
X020293Y006985D01*
X020302Y006939D01*
X020321Y006895D01*
X020347Y006856D01*
X020380Y006823D01*
X020420Y006796D01*
X020463Y006778D01*
X020510Y006769D01*
X020543Y006769D01*
X020543Y007069D01*
X020293Y007069D01*
X020543Y007069D01*
X020543Y007069D01*
X020543Y007069D01*
X020543Y006769D01*
X020577Y006769D01*
X020623Y006778D01*
X020667Y006796D01*
X020706Y006823D01*
X020720Y006836D01*
X020720Y006643D01*
X020697Y006667D01*
X020646Y006696D01*
X020590Y006711D01*
X020543Y006711D01*
X020543Y006285D01*
X020543Y006285D01*
X020660Y006285D01*
X020660Y006285D01*
X020543Y006285D01*
X020543Y006349D02*
X020543Y006349D01*
X020543Y006448D02*
X020543Y006448D01*
X020543Y006546D02*
X020543Y006546D01*
X020543Y006645D02*
X020543Y006645D01*
X020368Y006645D02*
X020347Y006645D01*
X020361Y006842D02*
X017640Y006842D01*
X017682Y006743D02*
X017826Y006743D01*
X018014Y006743D02*
X020720Y006743D01*
X020719Y006645D02*
X020720Y006645D01*
X020543Y006842D02*
X020543Y006842D01*
X020543Y006940D02*
X020543Y006940D01*
X020543Y007039D02*
X020543Y007039D01*
X020293Y007039D02*
X017749Y007039D01*
X017695Y006940D02*
X020302Y006940D01*
X020110Y006645D02*
X020032Y006645D01*
X019795Y006645D02*
X019717Y006645D01*
X019480Y006645D02*
X019402Y006645D01*
X019165Y006645D02*
X019087Y006645D01*
X018850Y006645D02*
X018772Y006645D01*
X018535Y006645D02*
X018457Y006645D01*
X018220Y006645D02*
X018136Y006645D01*
X017140Y006812D02*
X017140Y006452D01*
X016839Y006349D02*
X014480Y006349D01*
X014140Y006349D02*
X014040Y006349D01*
X014040Y006251D02*
X014140Y006251D01*
X014140Y006448D02*
X014040Y006448D01*
X014040Y006546D02*
X014140Y006546D01*
X014140Y006645D02*
X014040Y006645D01*
X014040Y006743D02*
X014140Y006743D01*
X014976Y006940D02*
X016513Y006940D01*
X016459Y007039D02*
X015028Y007039D01*
X015050Y006842D02*
X016890Y006842D01*
X016898Y006743D02*
X015068Y006743D01*
X015052Y006645D02*
X016848Y006645D01*
X016839Y006251D02*
X016305Y006251D01*
X016044Y006251D02*
X015955Y006251D01*
X017742Y005955D02*
X018190Y005955D01*
X018140Y006054D02*
X017840Y006054D01*
X018487Y005955D02*
X018505Y005955D01*
X018802Y005955D02*
X018820Y005955D01*
X019117Y005955D02*
X019135Y005955D01*
X019432Y005955D02*
X019450Y005955D01*
X019747Y005955D02*
X019765Y005955D01*
X020400Y005857D02*
X023534Y005857D01*
X023706Y005857D02*
X023910Y005857D01*
X023928Y005758D02*
X022927Y005758D01*
X023006Y005660D02*
X023998Y005660D01*
X024011Y005561D02*
X023030Y005561D01*
X023014Y005463D02*
X023990Y005463D01*
X024603Y005758D02*
X025208Y005758D01*
X025109Y005660D02*
X024701Y005660D01*
X024800Y005561D02*
X025011Y005561D01*
X024990Y005463D02*
X024820Y005463D01*
X024820Y005364D02*
X024990Y005364D01*
X024990Y005266D02*
X024820Y005266D01*
X024791Y005167D02*
X025018Y005167D01*
X025785Y004576D02*
X027476Y004576D01*
X027476Y004478D02*
X025820Y004478D01*
X025820Y004379D02*
X027476Y004379D01*
X027476Y004281D02*
X027322Y004281D01*
X027368Y004182D02*
X027476Y004182D01*
X027476Y004084D02*
X027368Y004084D01*
X027476Y003985D02*
X026903Y003985D01*
X026825Y003985D02*
X025609Y003985D01*
X025707Y004084D02*
X026360Y004084D01*
X026360Y004182D02*
X025806Y004182D01*
X025820Y004281D02*
X026406Y004281D01*
X026825Y004281D02*
X026903Y004281D01*
X026903Y004182D02*
X026825Y004182D01*
X026825Y004084D02*
X026903Y004084D01*
X027368Y003887D02*
X027540Y003887D01*
X028342Y003887D02*
X029527Y003887D01*
X029429Y003985D02*
X028405Y003985D01*
X028405Y004084D02*
X029330Y004084D01*
X029232Y004182D02*
X028405Y004182D01*
X028405Y004281D02*
X029133Y004281D01*
X029035Y004379D02*
X028405Y004379D01*
X028405Y004478D02*
X029000Y004478D01*
X030737Y003985D02*
X030837Y003985D01*
X030837Y003998D02*
X030837Y003603D01*
X031233Y003603D01*
X031233Y003868D01*
X031222Y003906D01*
X031203Y003940D01*
X031175Y003968D01*
X031140Y003988D01*
X031102Y003998D01*
X030837Y003998D01*
X030837Y003887D02*
X030737Y003887D01*
X030737Y003788D02*
X030837Y003788D01*
X030837Y003690D02*
X030737Y003690D01*
X030837Y003591D02*
X031423Y003591D01*
X031423Y003493D02*
X031233Y003493D01*
X031233Y003394D02*
X031423Y003394D01*
X031423Y003296D02*
X031233Y003296D01*
X031233Y003690D02*
X031423Y003690D01*
X031423Y003788D02*
X031233Y003788D01*
X031227Y003887D02*
X031423Y003887D01*
X031423Y003985D02*
X031145Y003985D01*
X030342Y003493D02*
X030317Y003493D01*
X028376Y002606D02*
X028376Y002606D01*
X028376Y002508D02*
X028376Y002508D01*
X028376Y002409D02*
X028376Y002409D01*
X028187Y002606D02*
X028023Y002606D01*
X028022Y002212D02*
X024461Y002212D01*
X024461Y002114D02*
X028116Y002114D01*
X028116Y002015D02*
X024461Y002015D01*
X024461Y001917D02*
X028151Y001917D01*
X028636Y002114D02*
X031423Y002114D01*
X031423Y002212D02*
X028604Y002212D01*
X025383Y003591D02*
X023837Y003591D01*
X023936Y003690D02*
X025284Y003690D01*
X025186Y003788D02*
X024034Y003788D01*
X024133Y003887D02*
X025087Y003887D01*
X024989Y003985D02*
X024609Y003985D01*
X024707Y004084D02*
X024890Y004084D01*
X025483Y003887D02*
X026360Y003887D01*
X023892Y004042D02*
X022941Y003091D01*
X022932Y003113D01*
X022862Y003184D01*
X022770Y003222D01*
X022670Y003222D01*
X022578Y003184D01*
X022563Y003169D01*
X022518Y003214D01*
X022582Y003279D01*
X022582Y003464D01*
X022546Y003501D01*
X022578Y003533D01*
X022607Y003584D01*
X022621Y003634D01*
X022621Y003633D01*
X022630Y003586D01*
X022648Y003543D01*
X022674Y003503D01*
X022708Y003470D01*
X022747Y003444D01*
X022791Y003425D01*
X022837Y003416D01*
X022921Y003416D01*
X023005Y003416D01*
X023051Y003425D01*
X023095Y003444D01*
X023134Y003470D01*
X023167Y003503D01*
X023194Y003543D01*
X023212Y003586D01*
X023221Y003633D01*
X023221Y003666D01*
X022921Y003666D01*
X022921Y003416D01*
X022921Y003666D01*
X022921Y003666D01*
X022921Y003666D01*
X023221Y003666D01*
X023221Y003700D01*
X023212Y003746D01*
X023194Y003790D01*
X023167Y003829D01*
X023134Y003863D01*
X023126Y003868D01*
X023181Y003923D01*
X023181Y004109D01*
X023138Y004152D01*
X023647Y004152D01*
X023648Y004150D01*
X023718Y004080D01*
X023810Y004042D01*
X023892Y004042D01*
X023836Y003985D02*
X023181Y003985D01*
X023181Y004084D02*
X023714Y004084D01*
X023737Y003887D02*
X023144Y003887D01*
X023194Y003788D02*
X023639Y003788D01*
X023540Y003690D02*
X023221Y003690D01*
X023213Y003591D02*
X023442Y003591D01*
X023343Y003493D02*
X023157Y003493D01*
X023245Y003394D02*
X022582Y003394D01*
X022582Y003296D02*
X023146Y003296D01*
X023048Y003197D02*
X022829Y003197D01*
X022938Y003099D02*
X022949Y003099D01*
X022611Y003197D02*
X022535Y003197D01*
X022554Y003493D02*
X022685Y003493D01*
X022629Y003591D02*
X022609Y003591D01*
X022921Y003591D02*
X022921Y003591D01*
X022921Y003493D02*
X022921Y003493D01*
X023106Y002508D02*
X022582Y002508D01*
X022582Y002409D02*
X023205Y002409D01*
X023303Y002311D02*
X022559Y002311D01*
X023570Y001720D02*
X023670Y001720D01*
X021044Y002114D02*
X019576Y002114D01*
X019180Y002114D02*
X018783Y002114D01*
X018654Y002114D02*
X018654Y002114D01*
X018654Y002015D02*
X018654Y002015D01*
X018654Y001917D02*
X018654Y001917D01*
X018654Y001818D02*
X018654Y001818D01*
X018654Y001720D02*
X018654Y001720D01*
X018140Y001512D02*
X018140Y001439D01*
X018246Y001333D01*
X018431Y001333D01*
X018468Y001369D01*
X018500Y001337D01*
X018530Y001320D01*
X018522Y001312D01*
X017323Y001312D01*
X017368Y001321D01*
X017411Y001339D01*
X017451Y001365D01*
X017484Y001398D01*
X017490Y001407D01*
X017545Y001351D01*
X017731Y001351D01*
X017848Y001469D01*
X017848Y001512D01*
X018140Y001512D01*
X018154Y001424D02*
X017803Y001424D01*
X017380Y001326D02*
X018519Y001326D01*
X018524Y002114D02*
X018420Y002114D01*
X018420Y002212D02*
X019082Y002212D01*
X018869Y002311D02*
X018420Y002311D01*
X018420Y002409D02*
X018729Y002409D01*
X018690Y002508D02*
X018420Y002508D01*
X018420Y002606D02*
X018692Y002606D01*
X018739Y002705D02*
X018420Y002705D01*
X014872Y002705D02*
X014214Y002705D01*
X014214Y002803D02*
X014872Y002803D01*
X014872Y002902D02*
X014214Y002902D01*
X013284Y002902D02*
X012993Y002902D01*
X012993Y003000D02*
X013284Y003000D01*
X013290Y003099D02*
X012993Y003099D01*
X012580Y003328D02*
X012959Y003707D01*
X013171Y003707D01*
X013180Y003715D01*
X012580Y003328D02*
X012580Y002612D01*
X012993Y002705D02*
X013284Y002705D01*
X013284Y002803D02*
X012993Y002803D01*
X013699Y002409D02*
X013799Y002409D01*
X013799Y002311D02*
X013699Y002311D01*
X013699Y002212D02*
X013799Y002212D01*
X013799Y002114D02*
X013699Y002114D01*
X013699Y002015D02*
X013799Y002015D01*
X012028Y001720D02*
X011401Y001720D01*
X011423Y001621D02*
X012028Y001621D01*
X012028Y001326D02*
X011423Y001326D01*
X011398Y001227D02*
X012075Y001227D01*
X012425Y001129D02*
X010373Y001129D01*
X010886Y001227D02*
X010952Y001227D01*
X010928Y001326D02*
X010911Y001326D01*
X010911Y001424D02*
X010928Y001424D01*
X018420Y004478D02*
X019600Y004478D01*
X019541Y004576D02*
X018420Y004576D01*
X018420Y004675D02*
X019530Y004675D01*
X019560Y004773D02*
X018420Y004773D01*
X018378Y004872D02*
X019658Y004872D01*
X019902Y004872D02*
X021811Y004872D01*
X021811Y004970D02*
X020452Y004970D01*
X020505Y005069D02*
X021841Y005069D01*
X021813Y005167D02*
X020510Y005167D01*
X020475Y005266D02*
X021811Y005266D01*
X021821Y005364D02*
X020400Y005364D01*
X020400Y005463D02*
X021832Y005463D01*
X021811Y005561D02*
X020400Y005561D01*
X020400Y005660D02*
X021811Y005660D01*
X021900Y005758D02*
X020400Y005758D01*
X020120Y005561D02*
X020057Y005561D01*
X022493Y005758D02*
X022633Y005758D01*
X023815Y006251D02*
X023950Y006251D01*
X024449Y006349D02*
X024990Y006349D01*
X024990Y006251D02*
X024860Y006251D01*
X024832Y006152D02*
X025035Y006152D01*
X025133Y006054D02*
X024734Y006054D01*
X024635Y005955D02*
X025232Y005955D01*
X025579Y005955D02*
X025598Y005955D01*
X024990Y006448D02*
X024860Y006448D01*
X024860Y006546D02*
X024996Y006546D01*
X024909Y006645D02*
X024773Y006645D01*
X024038Y006645D02*
X021607Y006645D01*
X021687Y006546D02*
X023950Y006546D01*
X023950Y006448D02*
X021687Y006448D01*
X016724Y007215D02*
X014891Y007215D01*
X011013Y005955D02*
X009656Y005955D01*
X009656Y005857D02*
X011111Y005857D01*
X011210Y005758D02*
X009656Y005758D01*
X009701Y005660D02*
X011308Y005660D01*
X011407Y005561D02*
X009799Y005561D01*
X009898Y005463D02*
X011505Y005463D01*
X011604Y005364D02*
X009996Y005364D01*
X010095Y005266D02*
X011702Y005266D01*
X009740Y005167D02*
X007798Y005167D01*
X007798Y005266D02*
X009642Y005266D01*
X009543Y005364D02*
X007798Y005364D01*
X007798Y005463D02*
X009445Y005463D01*
X010987Y006207D02*
X007389Y006207D01*
X006966Y006743D02*
X006600Y006743D01*
X006777Y007047D02*
X006742Y007082D01*
X006777Y007047D02*
X007371Y007047D01*
X006987Y005561D02*
X006600Y005561D01*
X006600Y005463D02*
X006987Y005463D01*
X006987Y005364D02*
X006600Y005364D01*
X006600Y005266D02*
X006987Y005266D01*
X006987Y005167D02*
X006600Y005167D01*
X006600Y005069D02*
X006987Y005069D01*
X007009Y004970D02*
X006600Y004970D01*
X019960Y004478D02*
X021873Y004478D01*
D30*
X010085Y001239D03*
X003087Y003682D03*
X009368Y005766D03*
X006742Y007082D03*
D31*
X007392Y005333D02*
X007420Y005312D01*
X009760Y002972D01*
X009760Y002792D01*
X010600Y003032D02*
X011200Y003032D01*
X012760Y001472D01*
X012787Y001497D01*
X012820Y001532D01*
X012820Y001652D01*
X013720Y002552D01*
X013749Y002584D01*
X013780Y002612D01*
X014080Y002912D01*
X015160Y001832D01*
X015218Y001802D01*
X015220Y001832D01*
X016960Y001832D01*
X017140Y001652D01*
X017260Y001652D01*
X017288Y001611D01*
X017320Y001592D01*
X017560Y001352D01*
X018460Y001352D01*
X018640Y001532D01*
X018640Y001712D01*
X018654Y001718D01*
X018700Y001772D01*
X018700Y002792D01*
X019540Y003632D01*
X019540Y004772D01*
X018760Y005552D01*
X017680Y005552D01*
X017630Y005577D01*
X017620Y005552D01*
X016360Y005552D01*
X016240Y005432D01*
X016209Y005388D01*
X016240Y005372D01*
X016240Y004652D01*
X016187Y004628D01*
X015820Y004352D02*
X015820Y005612D01*
X015940Y005732D01*
X017320Y005732D01*
X017860Y006272D01*
X018280Y006272D01*
X018339Y006285D01*
X017920Y006512D02*
X017440Y006032D01*
X016180Y006032D01*
X016174Y006028D01*
X015824Y006028D02*
X015820Y005972D01*
X015820Y005852D01*
X015400Y005432D01*
X015382Y005388D01*
X013840Y005432D02*
X013120Y005432D01*
X013104Y005448D01*
X014080Y006152D02*
X014090Y006155D01*
X014080Y006212D01*
X014080Y006152D02*
X014080Y002912D01*
X015220Y002672D02*
X015218Y002629D01*
X015220Y002672D02*
X016420Y002672D01*
X016442Y002679D01*
X016792Y002679D02*
X016840Y002732D01*
X017620Y002732D01*
X017630Y002742D01*
X017140Y003032D02*
X017440Y003332D01*
X017620Y003332D01*
X017630Y003372D01*
X017620Y003632D02*
X017630Y003687D01*
X017620Y003632D02*
X014320Y003632D01*
X013180Y003715D02*
X013120Y003752D01*
X013120Y003692D02*
X013180Y003715D01*
X015360Y004628D02*
X015400Y004592D01*
X015580Y004412D01*
X015580Y003992D01*
X015611Y003947D01*
X015940Y003992D02*
X015961Y003947D01*
X015940Y003992D02*
X015940Y004232D01*
X015820Y004352D01*
X017140Y003872D02*
X017500Y003872D01*
X017620Y003992D01*
X017630Y004002D01*
X018280Y004772D02*
X018280Y001772D01*
X018339Y001718D01*
X018280Y001712D01*
X018220Y001652D01*
X017680Y001652D01*
X017638Y001611D01*
X016960Y001832D02*
X016660Y002132D01*
X016662Y002182D01*
X017012Y002182D02*
X017020Y002192D01*
X017440Y002192D01*
X017620Y002372D01*
X017630Y002427D01*
X018940Y002552D02*
X019540Y001952D01*
X019540Y001772D01*
X019598Y001718D01*
X019300Y001712D02*
X019283Y001718D01*
X019300Y001712D02*
X019300Y001232D01*
X018940Y001532D02*
X018580Y001172D01*
X012580Y001172D01*
X012280Y001472D01*
X012275Y001497D01*
X012220Y001472D01*
X011200Y001472D01*
X011175Y001475D01*
X009760Y002312D02*
X008560Y003512D01*
X006400Y003512D01*
X003880Y003392D02*
X003880Y005192D01*
X003916Y005208D01*
X012568Y002584D02*
X012580Y002612D01*
X018040Y005012D02*
X018280Y004772D01*
X018040Y005012D02*
X018100Y005072D01*
X018040Y005012D02*
X017800Y005252D01*
X017680Y005252D01*
X017630Y005262D01*
X019540Y004772D02*
X019660Y004892D01*
X020380Y004892D01*
X020500Y005012D01*
X020500Y005912D01*
X021580Y005912D01*
X022000Y006332D01*
X024400Y006332D01*
X024405Y006369D01*
X024460Y006332D01*
X024820Y005972D01*
X025420Y005972D01*
X026860Y004532D01*
X026860Y004052D01*
X026864Y003995D01*
X027941Y004271D02*
X028000Y004292D01*
X028240Y004532D01*
X027941Y004271D01*
X028240Y004532D02*
X026860Y005912D01*
X026855Y005874D01*
X026800Y005912D01*
X025840Y005912D01*
X025420Y006332D01*
X025405Y006369D01*
X025360Y006392D01*
X024940Y006812D01*
X021520Y006812D01*
X021220Y006512D01*
X021220Y006332D01*
X021173Y006285D01*
X020858Y006285D02*
X020860Y006332D01*
X020860Y007052D01*
X020893Y007069D01*
X020920Y007052D01*
X026500Y007052D01*
X027940Y005612D01*
X027941Y005610D01*
X028120Y005432D01*
X029620Y006932D01*
X029621Y006969D01*
X029971Y006969D02*
X029980Y006932D01*
X030880Y006932D01*
X030907Y006905D01*
X030907Y006078D02*
X030880Y006032D01*
X030880Y005072D01*
X030220Y005072D01*
X030880Y005072D02*
X030880Y003452D01*
X030787Y003553D01*
X030820Y003512D01*
X030880Y003452D01*
X031240Y003092D01*
X031240Y002312D01*
X031180Y002252D01*
X030460Y002252D01*
X030340Y002372D01*
X028420Y002372D01*
X028376Y002394D01*
X028360Y002072D02*
X028376Y002044D01*
X028360Y002072D02*
X027100Y003332D01*
X025480Y003692D02*
X029920Y003692D01*
X030760Y002852D01*
X030760Y002672D01*
X030798Y002646D01*
X030778Y001581D02*
X030760Y001532D01*
X030460Y001232D01*
X030280Y001232D01*
X024115Y001987D02*
X024100Y001952D01*
X023980Y001832D01*
X024115Y001987D01*
X023980Y001832D02*
X023080Y002732D01*
X023080Y003032D01*
X024400Y004352D01*
X024405Y004369D01*
X024460Y004352D01*
X024820Y004352D01*
X025480Y003692D01*
X025405Y004369D02*
X025360Y004412D01*
X025000Y004772D01*
X024220Y004772D01*
X024160Y004712D01*
X023620Y004712D01*
X023860Y004292D02*
X022240Y004292D01*
X022197Y004317D01*
X022197Y004632D02*
X022180Y004652D01*
X019780Y004652D01*
X020260Y005132D02*
X020260Y006272D01*
X020228Y006285D01*
X019960Y006272D02*
X019913Y006285D01*
X019960Y006272D02*
X019960Y005792D01*
X020500Y005912D02*
X020500Y006272D01*
X020543Y006285D01*
X020560Y006332D01*
X020560Y007052D01*
X020543Y007069D01*
X020380Y007232D02*
X020500Y007352D01*
X020620Y007352D01*
X020860Y007112D01*
X020893Y007069D01*
X020380Y007232D02*
X017500Y007232D01*
X017484Y007215D01*
X017500Y007172D01*
X017500Y006572D01*
X017140Y006452D02*
X017104Y006415D01*
X022197Y005577D02*
X022240Y005552D01*
X022780Y005552D01*
X022240Y005312D02*
X022197Y005262D01*
X022240Y005312D02*
X024400Y005312D01*
X024405Y005369D01*
X024160Y005852D02*
X023920Y006092D01*
X023620Y006092D01*
X025360Y005312D02*
X025405Y005369D01*
X025360Y005312D02*
X025000Y004952D01*
X022240Y004952D01*
X022197Y004947D01*
X022240Y004052D02*
X022197Y004002D01*
X022240Y004052D02*
X022900Y004052D01*
X022921Y004016D01*
X022900Y003692D02*
X022240Y003692D01*
X022197Y003687D01*
X022180Y003692D01*
X022000Y003692D01*
X021700Y003992D01*
X021160Y003992D01*
X021160Y001772D01*
X021173Y001718D01*
X021220Y001712D01*
X021220Y001532D01*
X021460Y001292D01*
X022000Y001292D01*
X022060Y001352D01*
X022060Y001412D01*
X022180Y001532D01*
X022213Y001532D01*
X022240Y001532D01*
X022600Y001532D01*
X022636Y001490D01*
X022660Y001472D01*
X022840Y001292D01*
X023140Y001292D01*
X023169Y001238D01*
X023519Y001238D02*
X023560Y001292D01*
X023560Y001412D01*
X023980Y001832D01*
X023249Y001987D02*
X023200Y001952D01*
X022240Y001952D01*
X021880Y001592D01*
X021863Y001532D01*
X021820Y001592D01*
X021640Y001592D01*
X021520Y001712D01*
X021488Y001718D01*
X021220Y001172D02*
X020860Y001532D01*
X020860Y001712D01*
X020858Y001718D01*
X020860Y001772D01*
X021220Y001172D02*
X022600Y001172D01*
X022636Y001140D01*
X018969Y001718D02*
X018940Y001712D01*
X018940Y001532D01*
X022197Y002742D02*
X022240Y002732D01*
X023080Y002732D01*
X022720Y002972D02*
X022300Y002972D01*
X022240Y003032D01*
X022197Y003057D01*
X022180Y003332D02*
X022000Y003332D01*
X021700Y003032D01*
X022180Y003332D02*
X022197Y003372D01*
X022900Y003692D02*
X022921Y003666D01*
X021160Y003992D02*
X019960Y003992D01*
X019913Y004002D01*
X019900Y003992D01*
X019540Y003632D01*
X027941Y005610D02*
X028000Y005552D01*
X028120Y005432D01*
X028420Y005132D01*
X028840Y005132D01*
X028880Y005109D01*
X028900Y005072D01*
X029140Y004832D01*
X029140Y004472D01*
X029920Y003692D01*
X028420Y004712D02*
X028240Y004532D01*
X028420Y004712D02*
X028840Y004712D01*
X028880Y004759D01*
X005620Y001292D02*
X005595Y001262D01*
D32*
X009760Y001892D03*
X009760Y002312D03*
X009760Y002792D03*
X010600Y003032D03*
X014320Y003632D03*
X017140Y003872D03*
X017140Y003032D03*
X018940Y002552D03*
X021700Y003032D03*
X022720Y002972D03*
X023860Y004292D03*
X023620Y004712D03*
X022780Y005552D03*
X023620Y006092D03*
X024160Y005852D03*
X020260Y005132D03*
X019780Y004652D03*
X018100Y005072D03*
X019960Y005792D03*
X017920Y006512D03*
X017500Y006572D03*
X017140Y006812D03*
X013840Y005432D03*
X003880Y003392D03*
X019300Y001232D03*
X027100Y003332D03*
X030220Y005072D03*
X030280Y001232D03*
D33*
X013120Y003752D02*
X013120Y005432D01*
X013117Y005616D02*
X013129Y006104D01*
M02*
