%
M48
M72
T01C0.0160
T02C0.0236
T03C0.0374
T04C0.0630
%
T01
X3880Y3392
X9760Y2792
X10600Y3032
X9760Y2312
X9760Y1892
X14320Y3632
X17140Y3872
X17140Y3032
X18940Y2552
X21700Y3032
X22720Y2972
X23860Y4292
X23620Y4712
X22780Y5552
X23620Y6092
X24160Y5852
X20260Y5132
X19780Y4652
X18100Y5072
X19960Y5792
X17920Y6512
X17500Y6572
X17140Y6812
X13840Y5432
X19300Y1232
X27100Y3332
X30220Y5072
X30280Y1232
T02
X10085Y1239
X3087Y3682
X9368Y5766
X6742Y7082
T03
X24405Y6369
X25405Y6369
X25405Y5369
X24405Y5369
X24405Y4369
X25405Y4369
T04
X809Y1666
X2218Y1678
X779Y2917
X830Y4740
X829Y6667
X7922Y2292
M30
