G75*
G70*
%OFA0B0*%
%FSLAX24Y24*%
%IPPOS*%
%LPD*%
%AMOC8*
5,1,8,0,0,1.08239X$1,22.5*
%
%ADD10R,0.0500X0.0240*%
%ADD11R,0.1780X0.1740*%
%ADD12R,0.0276X0.0354*%
%ADD13C,0.0945*%
%ADD14R,0.0354X0.0276*%
%ADD15R,0.0402X0.0161*%
%ADD16R,0.0591X0.0512*%
%ADD17R,0.0394X0.0118*%
%ADD18R,0.1063X0.1063*%
%ADD19R,0.0171X0.0171*%
%ADD20R,0.0118X0.0394*%
%ADD21C,0.0472*%
%ADD22C,0.0080*%
%ADD23C,0.0280*%
%ADD24C,0.0060*%
D10*
X004881Y003469D03*
X004881Y003969D03*
X004881Y004469D03*
X004881Y004969D03*
D11*
X006344Y004219D03*
D12*
X005416Y002998D03*
X004904Y002998D03*
X004374Y006132D03*
X003862Y006132D03*
X005086Y008229D03*
X005598Y008229D03*
X007232Y008146D03*
X007243Y008610D03*
X007755Y008610D03*
X007744Y008146D03*
D13*
X008947Y008322D03*
X008053Y009350D03*
X009446Y007194D03*
X007784Y003564D03*
X003982Y003901D03*
X003291Y004756D03*
D14*
X004227Y004780D03*
X004227Y005292D03*
X007801Y005801D03*
X008247Y005809D03*
X008247Y006321D03*
X007801Y006312D03*
X007217Y009098D03*
X007217Y009610D03*
D15*
X006717Y009465D03*
X006717Y009209D03*
X006717Y008953D03*
X006717Y008697D03*
X004827Y008697D03*
X004827Y008953D03*
X004827Y009209D03*
X004827Y009465D03*
D16*
X004144Y009327D03*
X004144Y008579D03*
D17*
X005091Y007257D03*
X005091Y007060D03*
X005091Y006863D03*
X005091Y006666D03*
X005091Y006469D03*
X005091Y006272D03*
X005091Y006076D03*
X007060Y006076D03*
X007060Y006272D03*
X007060Y006469D03*
X007060Y006666D03*
X007060Y006863D03*
X007060Y007060D03*
X007060Y007257D03*
D18*
X006076Y006666D03*
D19*
X005248Y007494D03*
D20*
X005485Y007650D03*
X005682Y007650D03*
X005879Y007650D03*
X006076Y007650D03*
X006272Y007650D03*
X006469Y007650D03*
X006666Y007650D03*
X006666Y005682D03*
X006469Y005682D03*
X006272Y005682D03*
X006076Y005682D03*
X005879Y005682D03*
X005682Y005682D03*
X005485Y005682D03*
D21*
X007083Y002940D03*
X006480Y002851D03*
X009201Y004448D03*
X009489Y005039D03*
X009717Y005679D03*
X006610Y010009D03*
X006035Y010005D03*
X005445Y010008D03*
X002864Y008346D03*
X002613Y007815D03*
X002448Y007261D03*
X002409Y006676D03*
D22*
X002465Y006621D01*
X002465Y005724D01*
X003162Y005027D01*
X003291Y005027D01*
X003291Y004756D01*
X004011Y004036D01*
X004011Y003929D01*
X003982Y003901D01*
X004372Y003143D02*
X004795Y002998D01*
X005095Y003374D02*
X005439Y003036D01*
X004881Y003969D02*
X004881Y004469D01*
X004881Y004969D01*
X004849Y004883D01*
X004227Y004780D01*
X004227Y005292D02*
X005095Y005292D01*
X005485Y005682D01*
X005091Y006076D01*
X005091Y006272D02*
X004515Y006272D01*
X004374Y006132D01*
X003998Y006472D02*
X004873Y006472D01*
X005091Y006469D01*
X005091Y006666D02*
X004049Y006669D01*
X003206Y007469D01*
X002885Y007466D01*
X002613Y007815D01*
X002864Y008285D02*
X003232Y007917D01*
X003456Y007610D02*
X004340Y006863D01*
X005091Y006863D01*
X005881Y006854D01*
X006076Y006666D01*
X005248Y007494D02*
X005082Y007495D01*
X004791Y007586D01*
X004144Y008233D01*
X004144Y008579D01*
X004144Y009327D02*
X003851Y009327D01*
X003325Y008800D01*
X003325Y008691D01*
X004565Y007451D01*
X005041Y007833D02*
X005054Y008107D01*
X005086Y008229D01*
X005496Y008171D02*
X005598Y008229D01*
X005496Y008171D02*
X005485Y007650D01*
X005879Y007650D02*
X005879Y008508D01*
X005471Y008915D01*
X005469Y008922D01*
X005474Y008907D01*
X005966Y008950D02*
X006076Y008841D01*
X006076Y007650D01*
X006679Y008151D02*
X007160Y008151D01*
X007255Y008192D01*
X007243Y008610D01*
X007243Y008315D02*
X007243Y008255D01*
X007196Y008206D02*
X007160Y008151D01*
X006679Y008151D02*
X006379Y008539D01*
X006379Y008942D01*
X005657Y009573D01*
X005314Y009569D01*
X005445Y010008D02*
X004715Y010008D01*
X004174Y009467D01*
X004824Y009467D01*
X004827Y009465D01*
X004174Y009467D02*
X004144Y009437D01*
X004144Y009327D01*
X005445Y010008D02*
X005449Y010033D01*
X006035Y010005D02*
X006173Y009401D01*
X006352Y009222D01*
X006703Y009222D01*
X006717Y009209D01*
X006730Y009222D01*
X007077Y009222D01*
X007255Y009044D01*
X007217Y009098D01*
X007297Y009041D01*
X007297Y009109D01*
X007203Y009465D02*
X007217Y009610D01*
X007799Y009610D01*
X008053Y009350D01*
X008584Y008641D01*
X008584Y008480D01*
X008947Y008322D01*
X009449Y007173D01*
X009446Y007194D01*
X008656Y006643D02*
X008006Y007166D01*
X008006Y007597D01*
X007970Y007641D02*
X007742Y008041D01*
X007744Y008146D02*
X007785Y008254D01*
X007755Y008610D02*
X008573Y008609D01*
X007203Y009465D02*
X006717Y009465D01*
X008571Y006637D02*
X008580Y005786D01*
X009489Y005039D01*
X007784Y003564D02*
X007363Y004012D01*
X006344Y004219D01*
X004890Y005765D02*
X004832Y005769D01*
X003629Y005769D01*
X003122Y006263D01*
X003122Y006452D01*
X002858Y006693D02*
X002853Y006027D01*
X003400Y005443D01*
X003999Y005443D01*
X004227Y005292D01*
X003862Y006132D02*
X003862Y006200D01*
X003101Y006984D01*
X003079Y006958D01*
X003201Y006900D01*
X003149Y006954D01*
X002692Y006957D01*
X002409Y006676D01*
X002448Y007261D02*
X003171Y007261D01*
X003998Y006472D01*
X003862Y006253D02*
X003862Y006132D01*
X003201Y006900D02*
X003101Y006984D01*
X002864Y008285D02*
X002864Y008346D01*
D23*
X003232Y007917D03*
X003456Y007610D03*
X003101Y006984D03*
X002858Y006693D03*
X003122Y006452D03*
X004565Y007451D03*
X005041Y007833D03*
X005471Y008915D03*
X005966Y008950D03*
X005314Y009569D03*
X007997Y007594D03*
X008118Y006744D03*
X008571Y006637D03*
X006937Y005496D03*
X004890Y005765D03*
X005977Y003073D03*
D24*
X003514Y003519D02*
X002994Y004064D01*
X002837Y004307D01*
X002837Y005054D01*
X005094Y005054D01*
X005094Y003837D01*
X004419Y003837D01*
X004419Y002949D01*
X004127Y003082D01*
X003514Y003519D01*
X003539Y003501D02*
X004419Y003501D01*
X004419Y003559D02*
X003475Y003559D01*
X003419Y003618D02*
X004419Y003618D01*
X004419Y003676D02*
X003364Y003676D01*
X003308Y003735D02*
X004419Y003735D01*
X004419Y003793D02*
X003252Y003793D01*
X003196Y003852D02*
X005094Y003852D01*
X005094Y003910D02*
X003141Y003910D01*
X003085Y003969D02*
X005094Y003969D01*
X005094Y004027D02*
X003029Y004027D01*
X002980Y004086D02*
X005094Y004086D01*
X005094Y004144D02*
X002942Y004144D01*
X002905Y004203D02*
X005094Y004203D01*
X005094Y004261D02*
X002867Y004261D01*
X002837Y004320D02*
X005094Y004320D01*
X005094Y004378D02*
X002837Y004378D01*
X002837Y004437D02*
X005094Y004437D01*
X005094Y004495D02*
X002837Y004495D01*
X002837Y004554D02*
X005094Y004554D01*
X005094Y004612D02*
X002837Y004612D01*
X002837Y004671D02*
X005094Y004671D01*
X005094Y004729D02*
X002837Y004729D01*
X002837Y004788D02*
X005094Y004788D01*
X005094Y004846D02*
X002837Y004846D01*
X002837Y004905D02*
X005094Y004905D01*
X005094Y004963D02*
X002837Y004963D01*
X002837Y005022D02*
X005094Y005022D01*
X006086Y005000D02*
X006086Y003379D01*
X006195Y003348D01*
X008319Y003348D01*
X008319Y005000D01*
X006086Y005000D01*
X006086Y004963D02*
X008319Y004963D01*
X008319Y004905D02*
X006086Y004905D01*
X006086Y004846D02*
X008319Y004846D01*
X008319Y004788D02*
X006086Y004788D01*
X006086Y004729D02*
X008319Y004729D01*
X008319Y004671D02*
X006086Y004671D01*
X006086Y004612D02*
X008319Y004612D01*
X008319Y004554D02*
X006086Y004554D01*
X006086Y004495D02*
X008319Y004495D01*
X008319Y004437D02*
X006086Y004437D01*
X006086Y004378D02*
X008319Y004378D01*
X008319Y004320D02*
X006086Y004320D01*
X006086Y004261D02*
X008319Y004261D01*
X008319Y004203D02*
X006086Y004203D01*
X006086Y004144D02*
X008319Y004144D01*
X008319Y004086D02*
X006086Y004086D01*
X006086Y004027D02*
X008319Y004027D01*
X008319Y003969D02*
X006086Y003969D01*
X006086Y003910D02*
X008319Y003910D01*
X008319Y003852D02*
X006086Y003852D01*
X006086Y003793D02*
X008319Y003793D01*
X008319Y003735D02*
X006086Y003735D01*
X006086Y003676D02*
X008319Y003676D01*
X008319Y003618D02*
X006086Y003618D01*
X006086Y003559D02*
X008319Y003559D01*
X008319Y003501D02*
X006086Y003501D01*
X006086Y003442D02*
X008319Y003442D01*
X008319Y003384D02*
X006086Y003384D01*
X005977Y003073D02*
X005439Y003021D01*
X005439Y003036D01*
X005439Y003021D02*
X005416Y002998D01*
X005095Y003374D02*
X004987Y003369D01*
X004881Y003469D01*
X004419Y003442D02*
X003621Y003442D01*
X003704Y003384D02*
X004419Y003384D01*
X004419Y003325D02*
X003786Y003325D01*
X003868Y003267D02*
X004419Y003267D01*
X004419Y003208D02*
X003950Y003208D01*
X004032Y003150D02*
X004419Y003150D01*
X004386Y003149D02*
X004254Y003281D01*
X004254Y003629D01*
X003982Y003901D01*
X004050Y003969D01*
X004881Y003969D01*
X004386Y003149D02*
X004372Y003143D01*
X004419Y003091D02*
X004114Y003091D01*
X004235Y003033D02*
X004419Y003033D01*
X004419Y002974D02*
X004363Y002974D01*
X004795Y002998D02*
X004904Y002998D01*
X006344Y004219D02*
X006344Y004848D01*
X006901Y004844D01*
X006937Y005496D01*
X007801Y005801D02*
X007861Y005809D01*
X008247Y005809D01*
X008198Y005779D01*
X008580Y005786D01*
X008247Y006321D02*
X008247Y006615D01*
X008118Y006744D01*
X008217Y006320D02*
X007801Y006312D01*
X008217Y006320D02*
X008247Y006321D01*
X008571Y006637D02*
X008656Y006643D01*
X009106Y006952D02*
X010031Y006952D01*
X010037Y006894D02*
X009139Y006894D01*
X009171Y006835D02*
X010043Y006835D01*
X010048Y006777D02*
X009204Y006777D01*
X009237Y006718D02*
X010054Y006718D01*
X010059Y006660D02*
X009269Y006660D01*
X009274Y006651D02*
X007736Y009409D01*
X006541Y009409D01*
X006537Y009574D01*
X008602Y009576D01*
X008978Y009250D01*
X009444Y008658D01*
X009789Y007988D01*
X010002Y007265D01*
X010062Y006631D01*
X009274Y006651D01*
X009074Y007011D02*
X010026Y007011D01*
X010020Y007069D02*
X009041Y007069D01*
X009008Y007128D02*
X010015Y007128D01*
X010009Y007186D02*
X008976Y007186D01*
X008943Y007245D02*
X010004Y007245D01*
X009990Y007303D02*
X008910Y007303D01*
X008878Y007362D02*
X009973Y007362D01*
X009956Y007420D02*
X008845Y007420D01*
X008813Y007479D02*
X009939Y007479D01*
X009922Y007537D02*
X008780Y007537D01*
X008747Y007596D02*
X009904Y007596D01*
X009887Y007654D02*
X008715Y007654D01*
X008682Y007713D02*
X009870Y007713D01*
X009853Y007771D02*
X008650Y007771D01*
X008617Y007830D02*
X009836Y007830D01*
X009819Y007888D02*
X008584Y007888D01*
X008552Y007947D02*
X009801Y007947D01*
X009780Y008005D02*
X008519Y008005D01*
X008486Y008064D02*
X009750Y008064D01*
X009720Y008122D02*
X008454Y008122D01*
X008421Y008181D02*
X009690Y008181D01*
X009660Y008239D02*
X008389Y008239D01*
X008356Y008298D02*
X009630Y008298D01*
X009599Y008356D02*
X008323Y008356D01*
X008291Y008415D02*
X009569Y008415D01*
X009539Y008473D02*
X008258Y008473D01*
X008225Y008532D02*
X009509Y008532D01*
X009479Y008590D02*
X008193Y008590D01*
X008160Y008649D02*
X009449Y008649D01*
X009405Y008707D02*
X008128Y008707D01*
X008095Y008766D02*
X009359Y008766D01*
X009313Y008824D02*
X008062Y008824D01*
X008030Y008883D02*
X009267Y008883D01*
X009221Y008941D02*
X007997Y008941D01*
X007965Y009000D02*
X009175Y009000D01*
X009129Y009058D02*
X007932Y009058D01*
X007899Y009117D02*
X009083Y009117D01*
X009037Y009175D02*
X007867Y009175D01*
X007834Y009234D02*
X008991Y009234D01*
X008929Y009292D02*
X007801Y009292D01*
X007769Y009351D02*
X008862Y009351D01*
X008794Y009409D02*
X006541Y009409D01*
X006539Y009468D02*
X008727Y009468D01*
X008659Y009526D02*
X006538Y009526D01*
X007217Y009098D02*
X007438Y009044D01*
X007501Y008990D01*
X007501Y008318D01*
X007550Y008259D01*
X007751Y008259D01*
X007744Y008146D01*
X007770Y008221D01*
X007770Y008014D01*
X007742Y008041D01*
X007698Y007998D01*
X007655Y007968D01*
X007294Y007607D01*
X007019Y007607D01*
X006078Y006666D01*
X006076Y006666D01*
X005881Y006854D02*
X005248Y007494D01*
X007160Y008151D02*
X007243Y008315D01*
X007243Y008255D02*
X007232Y008146D01*
X007970Y007641D02*
X007997Y007594D01*
X008006Y007597D01*
X008573Y008609D02*
X008584Y008641D01*
M02*
