G75*
G70*
%OFA0B0*%
%FSLAX24Y24*%
%IPPOS*%
%LPD*%
%AMOC8*
5,1,8,0,0,1.08239X$1,22.5*
%
%ADD10R,0.0120X0.0350*%
%ADD11R,0.1120X0.0650*%
%ADD12R,0.0591X0.1063*%
%ADD13R,0.0276X0.0354*%
%ADD14R,0.0354X0.0276*%
%ADD15R,0.0512X0.0591*%
%ADD16C,0.0945*%
%ADD17C,0.0059*%
%ADD18C,0.0315*%
%ADD19C,0.0394*%
%ADD20R,0.0450X0.0450*%
%ADD21C,0.0180*%
%ADD22R,0.0413X0.0512*%
%ADD23R,0.1260X0.0709*%
%ADD24C,0.0060*%
%ADD25C,0.0280*%
%ADD26C,0.0413*%
%ADD27C,0.0120*%
%ADD28C,0.0100*%
%ADD29C,0.0270*%
%ADD30C,0.0160*%
D10*
X009680Y005502D03*
X010074Y005502D03*
X010467Y005502D03*
X010664Y005502D03*
X010861Y005502D03*
X011058Y005502D03*
X011058Y007211D03*
X010861Y007211D03*
X010664Y007211D03*
X010467Y007211D03*
X010074Y007211D03*
X009680Y007211D03*
D11*
X010369Y006357D03*
D12*
X009639Y008237D03*
X008478Y008237D03*
D13*
X007936Y008081D03*
X007931Y008547D03*
X007419Y008547D03*
X007424Y008081D03*
X011333Y007652D03*
X011845Y007652D03*
X011869Y006355D03*
X011357Y006355D03*
D14*
X011389Y006740D03*
X011389Y007252D03*
X007460Y007178D03*
X007460Y007690D03*
X006027Y009220D03*
X006027Y009732D03*
D15*
X010306Y008199D03*
X011054Y008199D03*
D16*
X005416Y005073D03*
X004879Y006050D03*
X008149Y003754D03*
X009995Y010223D03*
X008944Y010645D03*
X007852Y010722D03*
D17*
X006638Y008808D02*
X006578Y008808D01*
X006638Y008808D02*
X006638Y008590D01*
X006578Y008590D01*
X006578Y008808D01*
X006578Y008648D02*
X006638Y008648D01*
X006638Y008706D02*
X006578Y008706D01*
X006578Y008764D02*
X006638Y008764D01*
X006441Y008808D02*
X006381Y008808D01*
X006441Y008808D02*
X006441Y008590D01*
X006381Y008590D01*
X006381Y008808D01*
X006381Y008648D02*
X006441Y008648D01*
X006441Y008706D02*
X006381Y008706D01*
X006381Y008764D02*
X006441Y008764D01*
X006244Y008808D02*
X006184Y008808D01*
X006244Y008808D02*
X006244Y008590D01*
X006184Y008590D01*
X006184Y008808D01*
X006184Y008648D02*
X006244Y008648D01*
X006244Y008706D02*
X006184Y008706D01*
X006184Y008764D02*
X006244Y008764D01*
X006047Y008808D02*
X005987Y008808D01*
X006047Y008808D02*
X006047Y008590D01*
X005987Y008590D01*
X005987Y008808D01*
X005987Y008648D02*
X006047Y008648D01*
X006047Y008706D02*
X005987Y008706D01*
X005987Y008764D02*
X006047Y008764D01*
X005850Y008808D02*
X005790Y008808D01*
X005850Y008808D02*
X005850Y008590D01*
X005790Y008590D01*
X005790Y008808D01*
X005790Y008648D02*
X005850Y008648D01*
X005850Y008706D02*
X005790Y008706D01*
X005790Y008764D02*
X005850Y008764D01*
X005654Y008808D02*
X005594Y008808D01*
X005654Y008808D02*
X005654Y008590D01*
X005594Y008590D01*
X005594Y008808D01*
X005594Y008648D02*
X005654Y008648D01*
X005654Y008706D02*
X005594Y008706D01*
X005594Y008764D02*
X005654Y008764D01*
X005457Y008808D02*
X005397Y008808D01*
X005457Y008808D02*
X005457Y008590D01*
X005397Y008590D01*
X005397Y008808D01*
X005397Y008648D02*
X005457Y008648D01*
X005457Y008706D02*
X005397Y008706D01*
X005397Y008764D02*
X005457Y008764D01*
X005260Y008808D02*
X005200Y008808D01*
X005260Y008808D02*
X005260Y008590D01*
X005200Y008590D01*
X005200Y008808D01*
X005200Y008648D02*
X005260Y008648D01*
X005260Y008706D02*
X005200Y008706D01*
X005200Y008764D02*
X005260Y008764D01*
X005103Y008493D02*
X004885Y008493D01*
X005103Y008493D02*
X005103Y008433D01*
X004885Y008433D01*
X004885Y008493D01*
X004885Y008491D02*
X005103Y008491D01*
X005103Y008296D02*
X004885Y008296D01*
X005103Y008296D02*
X005103Y008236D01*
X004885Y008236D01*
X004885Y008296D01*
X004885Y008294D02*
X005103Y008294D01*
X005103Y008099D02*
X004885Y008099D01*
X005103Y008099D02*
X005103Y008039D01*
X004885Y008039D01*
X004885Y008099D01*
X004885Y008097D02*
X005103Y008097D01*
X005103Y007902D02*
X004885Y007902D01*
X005103Y007902D02*
X005103Y007842D01*
X004885Y007842D01*
X004885Y007902D01*
X004885Y007900D02*
X005103Y007900D01*
X005103Y007706D02*
X004885Y007706D01*
X005103Y007706D02*
X005103Y007646D01*
X004885Y007646D01*
X004885Y007706D01*
X004885Y007704D02*
X005103Y007704D01*
X005103Y007509D02*
X004885Y007509D01*
X005103Y007509D02*
X005103Y007449D01*
X004885Y007449D01*
X004885Y007509D01*
X004885Y007507D02*
X005103Y007507D01*
X005103Y007312D02*
X004885Y007312D01*
X005103Y007312D02*
X005103Y007252D01*
X004885Y007252D01*
X004885Y007312D01*
X004885Y007310D02*
X005103Y007310D01*
X005103Y007115D02*
X004885Y007115D01*
X005103Y007115D02*
X005103Y007055D01*
X004885Y007055D01*
X004885Y007115D01*
X004885Y007113D02*
X005103Y007113D01*
X005200Y006958D02*
X005260Y006958D01*
X005260Y006740D01*
X005200Y006740D01*
X005200Y006958D01*
X005200Y006798D02*
X005260Y006798D01*
X005260Y006856D02*
X005200Y006856D01*
X005200Y006914D02*
X005260Y006914D01*
X005397Y006958D02*
X005457Y006958D01*
X005457Y006740D01*
X005397Y006740D01*
X005397Y006958D01*
X005397Y006798D02*
X005457Y006798D01*
X005457Y006856D02*
X005397Y006856D01*
X005397Y006914D02*
X005457Y006914D01*
X005594Y006958D02*
X005654Y006958D01*
X005654Y006740D01*
X005594Y006740D01*
X005594Y006958D01*
X005594Y006798D02*
X005654Y006798D01*
X005654Y006856D02*
X005594Y006856D01*
X005594Y006914D02*
X005654Y006914D01*
X005790Y006958D02*
X005850Y006958D01*
X005850Y006740D01*
X005790Y006740D01*
X005790Y006958D01*
X005790Y006798D02*
X005850Y006798D01*
X005850Y006856D02*
X005790Y006856D01*
X005790Y006914D02*
X005850Y006914D01*
X005987Y006958D02*
X006047Y006958D01*
X006047Y006740D01*
X005987Y006740D01*
X005987Y006958D01*
X005987Y006798D02*
X006047Y006798D01*
X006047Y006856D02*
X005987Y006856D01*
X005987Y006914D02*
X006047Y006914D01*
X006184Y006958D02*
X006244Y006958D01*
X006244Y006740D01*
X006184Y006740D01*
X006184Y006958D01*
X006184Y006798D02*
X006244Y006798D01*
X006244Y006856D02*
X006184Y006856D01*
X006184Y006914D02*
X006244Y006914D01*
X006381Y006958D02*
X006441Y006958D01*
X006441Y006740D01*
X006381Y006740D01*
X006381Y006958D01*
X006381Y006798D02*
X006441Y006798D01*
X006441Y006856D02*
X006381Y006856D01*
X006381Y006914D02*
X006441Y006914D01*
X006578Y006958D02*
X006638Y006958D01*
X006638Y006740D01*
X006578Y006740D01*
X006578Y006958D01*
X006578Y006798D02*
X006638Y006798D01*
X006638Y006856D02*
X006578Y006856D01*
X006578Y006914D02*
X006638Y006914D01*
X006735Y007115D02*
X006953Y007115D01*
X006953Y007055D01*
X006735Y007055D01*
X006735Y007115D01*
X006735Y007113D02*
X006953Y007113D01*
X006953Y007312D02*
X006735Y007312D01*
X006953Y007312D02*
X006953Y007252D01*
X006735Y007252D01*
X006735Y007312D01*
X006735Y007310D02*
X006953Y007310D01*
X006953Y007509D02*
X006735Y007509D01*
X006953Y007509D02*
X006953Y007449D01*
X006735Y007449D01*
X006735Y007509D01*
X006735Y007507D02*
X006953Y007507D01*
X006953Y007706D02*
X006735Y007706D01*
X006953Y007706D02*
X006953Y007646D01*
X006735Y007646D01*
X006735Y007706D01*
X006735Y007704D02*
X006953Y007704D01*
X006953Y007902D02*
X006735Y007902D01*
X006953Y007902D02*
X006953Y007842D01*
X006735Y007842D01*
X006735Y007902D01*
X006735Y007900D02*
X006953Y007900D01*
X006953Y008099D02*
X006735Y008099D01*
X006953Y008099D02*
X006953Y008039D01*
X006735Y008039D01*
X006735Y008099D01*
X006735Y008097D02*
X006953Y008097D01*
X006953Y008296D02*
X006735Y008296D01*
X006953Y008296D02*
X006953Y008236D01*
X006735Y008236D01*
X006735Y008296D01*
X006735Y008294D02*
X006953Y008294D01*
X006953Y008493D02*
X006735Y008493D01*
X006953Y008493D02*
X006953Y008433D01*
X006735Y008433D01*
X006735Y008493D01*
X006735Y008491D02*
X006953Y008491D01*
D18*
X004641Y007551D03*
X004351Y007306D03*
X004359Y006926D03*
X004397Y006544D03*
D19*
X005589Y009174D03*
D20*
X006686Y009652D03*
X008036Y009652D03*
D21*
X007120Y004886D02*
X007100Y004886D01*
X007120Y004886D02*
X007120Y004766D01*
X007100Y004766D01*
X007100Y004886D01*
X006770Y004886D02*
X006750Y004886D01*
X006770Y004886D02*
X006770Y004766D01*
X006750Y004766D01*
X006750Y004886D01*
D22*
X006837Y005300D03*
X007565Y005300D03*
X007565Y006206D03*
X006837Y006206D03*
D23*
X008507Y005558D03*
X008507Y007211D03*
D24*
X008536Y007442D02*
X007314Y007442D01*
X007241Y007450D01*
X006844Y007479D01*
X006819Y007454D01*
X006626Y007452D01*
X006482Y007089D01*
X005469Y007089D01*
X005173Y007279D01*
X004994Y007282D01*
X004749Y007282D01*
X004630Y007401D01*
X004630Y007544D01*
X004641Y007551D01*
X004641Y007898D01*
X004453Y007951D01*
X004755Y008266D02*
X004579Y008442D01*
X004755Y008266D02*
X004994Y008266D01*
X004994Y008463D02*
X004994Y008748D01*
X004816Y008934D01*
X005153Y009119D02*
X005153Y009244D01*
X005106Y009369D01*
X005153Y009119D02*
X005427Y008846D01*
X005427Y008699D01*
X005624Y008699D02*
X005624Y008480D01*
X006227Y007876D01*
X006227Y007841D01*
X006126Y007601D02*
X006335Y007601D01*
X006336Y007601D01*
X006471Y007727D01*
X006467Y008303D01*
X006599Y008488D01*
X006599Y008685D01*
X006608Y008699D01*
X006411Y008699D02*
X006415Y008877D01*
X006488Y008950D01*
X006613Y008952D01*
X007049Y009340D01*
X007052Y009892D01*
X006944Y009999D01*
X006776Y010127D01*
X006588Y010640D01*
X007016Y010422D02*
X007003Y010363D01*
X007868Y009656D02*
X008036Y009652D01*
X007312Y009297D02*
X007312Y008815D01*
X007594Y008815D01*
X007647Y008762D01*
X007647Y008333D01*
X007630Y008317D01*
X007652Y008295D01*
X007652Y007918D01*
X007674Y007918D01*
X007727Y007865D01*
X007727Y007515D01*
X007674Y007462D01*
X007312Y007462D01*
X007312Y007406D01*
X007674Y007406D01*
X007727Y007353D01*
X007727Y007003D01*
X007674Y006950D01*
X007531Y006950D01*
X007531Y006552D01*
X007809Y006552D01*
X007862Y006499D01*
X007862Y006446D01*
X009219Y006451D01*
X009219Y007626D01*
X009173Y007620D01*
X009152Y009019D01*
X011661Y009019D01*
X011661Y005408D01*
X011847Y005769D01*
X012060Y006492D01*
X012060Y006492D01*
X012131Y007243D01*
X012060Y007993D01*
X011847Y008716D01*
X011538Y009316D01*
X010754Y009313D01*
X010712Y009265D01*
X010712Y009259D01*
X010672Y009219D01*
X010634Y009176D01*
X010628Y009175D01*
X010624Y009171D01*
X010567Y009171D01*
X010510Y009167D01*
X010506Y009171D01*
X008999Y009168D01*
X008978Y009157D01*
X008939Y009168D01*
X008900Y009168D01*
X008882Y009185D01*
X008859Y009192D01*
X008840Y009228D01*
X008812Y009256D01*
X008811Y009280D01*
X008799Y009304D01*
X007312Y009297D01*
X007312Y009260D02*
X008811Y009260D01*
X008854Y009201D02*
X007312Y009201D01*
X007312Y009143D02*
X011627Y009143D01*
X011597Y009201D02*
X010657Y009201D01*
X010712Y009260D02*
X011567Y009260D01*
X011657Y009084D02*
X007312Y009084D01*
X007312Y009026D02*
X011688Y009026D01*
X011661Y008967D02*
X011718Y008967D01*
X011748Y008909D02*
X011661Y008909D01*
X011661Y008850D02*
X011778Y008850D01*
X011808Y008792D02*
X011661Y008792D01*
X011661Y008733D02*
X011838Y008733D01*
X011859Y008675D02*
X011661Y008675D01*
X011661Y008616D02*
X011877Y008616D01*
X011894Y008558D02*
X011661Y008558D01*
X011661Y008499D02*
X011911Y008499D01*
X011928Y008441D02*
X011661Y008441D01*
X011661Y008382D02*
X011945Y008382D01*
X011962Y008324D02*
X011661Y008324D01*
X011661Y008265D02*
X011980Y008265D01*
X011997Y008207D02*
X011661Y008207D01*
X011661Y008148D02*
X012014Y008148D01*
X012031Y008090D02*
X011661Y008090D01*
X011661Y008031D02*
X012048Y008031D01*
X012062Y007973D02*
X011661Y007973D01*
X011661Y007914D02*
X012067Y007914D01*
X012073Y007856D02*
X011661Y007856D01*
X011661Y007797D02*
X012078Y007797D01*
X012084Y007739D02*
X011661Y007739D01*
X011661Y007680D02*
X012089Y007680D01*
X012095Y007622D02*
X011661Y007622D01*
X011661Y007563D02*
X012101Y007563D01*
X012106Y007505D02*
X011661Y007505D01*
X011661Y007446D02*
X012112Y007446D01*
X012117Y007388D02*
X011661Y007388D01*
X011661Y007329D02*
X012123Y007329D01*
X012129Y007271D02*
X011661Y007271D01*
X011661Y007212D02*
X012128Y007212D01*
X012123Y007154D02*
X011661Y007154D01*
X011661Y007095D02*
X012117Y007095D01*
X012112Y007037D02*
X011661Y007037D01*
X011661Y006978D02*
X012106Y006978D01*
X012100Y006920D02*
X011661Y006920D01*
X011661Y006861D02*
X012095Y006861D01*
X012089Y006803D02*
X011661Y006803D01*
X011661Y006744D02*
X012084Y006744D01*
X012078Y006686D02*
X011661Y006686D01*
X011661Y006627D02*
X012072Y006627D01*
X012067Y006569D02*
X011661Y006569D01*
X011661Y006510D02*
X012061Y006510D01*
X012048Y006452D02*
X011661Y006452D01*
X011661Y006393D02*
X012030Y006393D01*
X012013Y006335D02*
X011661Y006335D01*
X011661Y006276D02*
X011996Y006276D01*
X011979Y006218D02*
X011661Y006218D01*
X011661Y006159D02*
X011962Y006159D01*
X011945Y006101D02*
X011661Y006101D01*
X011661Y006042D02*
X011927Y006042D01*
X011910Y005984D02*
X011661Y005984D01*
X011661Y005925D02*
X011893Y005925D01*
X011876Y005867D02*
X011661Y005867D01*
X011661Y005808D02*
X011859Y005808D01*
X011837Y005750D02*
X011661Y005750D01*
X011661Y005691D02*
X011807Y005691D01*
X011777Y005633D02*
X011661Y005633D01*
X011661Y005574D02*
X011747Y005574D01*
X011716Y005516D02*
X011661Y005516D01*
X011661Y005457D02*
X011686Y005457D01*
X011420Y005574D02*
X011405Y005574D01*
X011405Y005565D02*
X011405Y005594D01*
X011467Y005767D01*
X011483Y005784D01*
X011483Y005812D01*
X011493Y005839D01*
X011483Y005860D01*
X011480Y006088D01*
X011520Y006088D01*
X011520Y005820D01*
X011148Y004910D01*
X011097Y004866D01*
X011026Y004866D01*
X011026Y004889D01*
X010891Y005023D01*
X010701Y005023D01*
X010566Y004889D01*
X010566Y004866D01*
X010565Y004866D01*
X007312Y004866D01*
X007312Y005869D01*
X007321Y005860D01*
X007809Y005860D01*
X007862Y005913D01*
X007862Y006312D01*
X009467Y006312D01*
X009467Y006880D01*
X010601Y006864D01*
X010602Y006984D01*
X010617Y006999D01*
X010617Y007424D01*
X010604Y007437D01*
X010606Y007771D01*
X010714Y007777D01*
X010716Y008262D01*
X011519Y008268D01*
X011520Y006968D01*
X011175Y006968D01*
X011122Y006915D01*
X011122Y006565D01*
X011129Y006558D01*
X011129Y006140D01*
X011182Y006088D01*
X011240Y006088D01*
X011243Y005852D01*
X011197Y005726D01*
X011155Y005767D01*
X010961Y005767D01*
X010959Y005766D01*
X010958Y005767D01*
X010764Y005767D01*
X010763Y005766D01*
X010761Y005767D01*
X010567Y005767D01*
X010566Y005766D01*
X010565Y005767D01*
X010370Y005767D01*
X010317Y005715D01*
X010317Y005290D01*
X010370Y005237D01*
X010565Y005237D01*
X010566Y005239D01*
X010567Y005237D01*
X010761Y005237D01*
X010763Y005239D01*
X010764Y005237D01*
X010958Y005237D01*
X010959Y005239D01*
X010961Y005237D01*
X011155Y005237D01*
X011208Y005290D01*
X011208Y005389D01*
X011229Y005389D01*
X011232Y005392D01*
X011236Y005392D01*
X011267Y005427D01*
X011355Y005515D01*
X011381Y005527D01*
X011389Y005549D01*
X011405Y005565D01*
X011396Y005516D02*
X011356Y005516D01*
X011372Y005457D02*
X011297Y005457D01*
X011348Y005399D02*
X011241Y005399D01*
X011208Y005340D02*
X011324Y005340D01*
X011300Y005282D02*
X011199Y005282D01*
X011276Y005223D02*
X007312Y005223D01*
X007312Y005165D02*
X011252Y005165D01*
X011229Y005106D02*
X007312Y005106D01*
X007312Y005048D02*
X011205Y005048D01*
X011181Y004989D02*
X010925Y004989D01*
X010984Y004931D02*
X011157Y004931D01*
X011104Y004872D02*
X011026Y004872D01*
X011110Y005045D02*
X010963Y005062D01*
X011058Y005093D01*
X011248Y004837D02*
X011869Y006355D01*
X011520Y006042D02*
X011480Y006042D01*
X011481Y005984D02*
X011520Y005984D01*
X011520Y005925D02*
X011482Y005925D01*
X011482Y005867D02*
X011520Y005867D01*
X011516Y005808D02*
X011483Y005808D01*
X011492Y005750D02*
X011461Y005750D01*
X011468Y005691D02*
X011440Y005691D01*
X011444Y005633D02*
X011419Y005633D01*
X011285Y005615D02*
X011363Y005832D01*
X011357Y006355D01*
X011399Y006197D01*
X011389Y006740D01*
X011122Y006744D02*
X009467Y006744D01*
X009467Y006686D02*
X011122Y006686D01*
X011122Y006627D02*
X009467Y006627D01*
X009467Y006569D02*
X011122Y006569D01*
X011129Y006510D02*
X009467Y006510D01*
X009467Y006452D02*
X011129Y006452D01*
X011129Y006393D02*
X009467Y006393D01*
X009467Y006335D02*
X011129Y006335D01*
X011129Y006276D02*
X007862Y006276D01*
X007862Y006218D02*
X011129Y006218D01*
X011129Y006159D02*
X007862Y006159D01*
X007862Y006101D02*
X011169Y006101D01*
X011240Y006042D02*
X007862Y006042D01*
X007862Y005984D02*
X011241Y005984D01*
X011242Y005925D02*
X007862Y005925D01*
X007816Y005867D02*
X011242Y005867D01*
X011227Y005808D02*
X007312Y005808D01*
X007312Y005750D02*
X010352Y005750D01*
X010317Y005691D02*
X007312Y005691D01*
X007312Y005633D02*
X010317Y005633D01*
X010317Y005574D02*
X007312Y005574D01*
X007312Y005516D02*
X010317Y005516D01*
X010317Y005457D02*
X007312Y005457D01*
X007312Y005399D02*
X010317Y005399D01*
X010317Y005340D02*
X007312Y005340D01*
X007312Y005282D02*
X010326Y005282D01*
X010666Y004989D02*
X007312Y004989D01*
X007312Y004931D02*
X010608Y004931D01*
X010566Y004872D02*
X007312Y004872D01*
X007141Y004857D02*
X007110Y004826D01*
X007092Y004808D01*
X006837Y004903D02*
X006760Y004826D01*
X006837Y004903D02*
X006837Y005300D01*
X007157Y005621D01*
X007157Y006565D01*
X006844Y006878D01*
X006844Y007085D01*
X006844Y007282D02*
X007031Y007288D01*
X007455Y007203D01*
X007441Y007175D01*
X007443Y007178D01*
X007460Y007178D01*
X007441Y007175D02*
X007411Y007119D01*
X007411Y006360D01*
X007565Y006206D01*
X007595Y006236D01*
X007862Y006452D02*
X009219Y006452D01*
X009219Y006510D02*
X007851Y006510D01*
X007531Y006569D02*
X009219Y006569D01*
X009219Y006627D02*
X007531Y006627D01*
X007531Y006686D02*
X009219Y006686D01*
X009219Y006744D02*
X007531Y006744D01*
X007531Y006803D02*
X009219Y006803D01*
X009219Y006861D02*
X007531Y006861D01*
X007531Y006920D02*
X009219Y006920D01*
X009219Y006978D02*
X007702Y006978D01*
X007727Y007037D02*
X009219Y007037D01*
X009219Y007095D02*
X007727Y007095D01*
X007727Y007154D02*
X009219Y007154D01*
X009219Y007212D02*
X007727Y007212D01*
X007727Y007271D02*
X009219Y007271D01*
X009219Y007329D02*
X007727Y007329D01*
X007693Y007388D02*
X009219Y007388D01*
X009219Y007446D02*
X007312Y007446D01*
X007405Y007688D02*
X007424Y008081D01*
X007436Y008137D01*
X007419Y008547D01*
X007637Y008324D02*
X009162Y008324D01*
X009161Y008382D02*
X007647Y008382D01*
X007647Y008441D02*
X009160Y008441D01*
X009159Y008499D02*
X007647Y008499D01*
X007647Y008558D02*
X009159Y008558D01*
X009158Y008616D02*
X007647Y008616D01*
X007647Y008675D02*
X009157Y008675D01*
X009156Y008733D02*
X007647Y008733D01*
X007617Y008792D02*
X009155Y008792D01*
X009154Y008850D02*
X007312Y008850D01*
X007312Y008909D02*
X009153Y008909D01*
X009153Y008967D02*
X007312Y008967D01*
X007318Y008942D02*
X007122Y008747D01*
X007122Y007920D01*
X007074Y007872D01*
X006844Y007872D01*
X006844Y007676D02*
X006686Y007669D01*
X006640Y007669D01*
X006330Y007359D01*
X006159Y007359D01*
X005898Y007620D01*
X005529Y007620D01*
X005275Y007874D01*
X004995Y007874D01*
X004994Y007872D01*
X004994Y007676D02*
X005204Y007676D01*
X005558Y007323D01*
X005841Y007323D01*
X006126Y007601D02*
X005898Y007829D01*
X005574Y007829D01*
X005242Y008156D01*
X005242Y008339D01*
X005118Y008463D01*
X004994Y008463D01*
X005238Y008540D02*
X005480Y008280D01*
X005238Y008540D02*
X005230Y008699D01*
X005589Y009174D02*
X005969Y009222D01*
X006027Y009220D01*
X006024Y008732D01*
X006017Y008699D01*
X006214Y008699D02*
X006214Y008900D01*
X006302Y008988D01*
X006302Y009482D01*
X005468Y009484D01*
X005370Y009795D01*
X006027Y009732D02*
X006100Y009844D01*
X006027Y009732D02*
X006141Y009652D01*
X006686Y008046D02*
X006597Y007997D01*
X006597Y007693D01*
X006686Y007669D01*
X006844Y007676D02*
X006981Y007676D01*
X006844Y007676D02*
X007382Y007701D01*
X007445Y007699D01*
X007454Y007690D01*
X007460Y007690D01*
X007405Y007688D02*
X006844Y007676D01*
X006861Y008052D02*
X006686Y008046D01*
X006844Y008069D02*
X006861Y008052D01*
X007652Y008031D02*
X009166Y008031D01*
X009167Y007973D02*
X007652Y007973D01*
X007678Y007914D02*
X009168Y007914D01*
X009169Y007856D02*
X007727Y007856D01*
X007727Y007797D02*
X009170Y007797D01*
X009171Y007739D02*
X007727Y007739D01*
X007727Y007680D02*
X009172Y007680D01*
X009173Y007622D02*
X007727Y007622D01*
X007727Y007563D02*
X009219Y007563D01*
X009219Y007505D02*
X007717Y007505D01*
X007652Y008090D02*
X009166Y008090D01*
X009165Y008148D02*
X007652Y008148D01*
X007652Y008207D02*
X009164Y008207D01*
X009163Y008265D02*
X007652Y008265D01*
X007936Y008219D02*
X007931Y008547D01*
X007936Y008219D02*
X008467Y008227D01*
X008478Y008237D01*
X007936Y008219D02*
X007936Y008081D01*
X009187Y007622D02*
X009219Y007622D01*
X009491Y007973D02*
X009921Y007973D01*
X009921Y008031D02*
X009490Y008031D01*
X009489Y008090D02*
X009921Y008090D01*
X009921Y008148D02*
X009488Y008148D01*
X009487Y008207D02*
X009921Y008207D01*
X009921Y008265D02*
X009486Y008265D01*
X009485Y008324D02*
X009920Y008324D01*
X009920Y008382D02*
X009485Y008382D01*
X009484Y008441D02*
X009920Y008441D01*
X009920Y008499D02*
X009483Y008499D01*
X009482Y008558D02*
X009920Y008558D01*
X009920Y008616D02*
X009481Y008616D01*
X009480Y008675D02*
X009920Y008675D01*
X009920Y008733D02*
X009479Y008733D01*
X009478Y008781D02*
X009563Y008735D01*
X009920Y008735D01*
X009921Y007061D01*
X009505Y007065D01*
X009478Y008781D01*
X010081Y008792D02*
X010522Y008792D01*
X010521Y008850D02*
X010081Y008850D01*
X010081Y008860D02*
X010081Y007072D01*
X010202Y007067D01*
X010317Y007067D01*
X010317Y007424D01*
X010370Y007476D01*
X010455Y007476D01*
X010455Y007908D01*
X010539Y007911D01*
X010520Y008854D01*
X010081Y008860D01*
X010081Y008733D02*
X010523Y008733D01*
X010524Y008675D02*
X010081Y008675D01*
X010081Y008616D02*
X010525Y008616D01*
X010526Y008558D02*
X010081Y008558D01*
X010081Y008499D02*
X010528Y008499D01*
X010529Y008441D02*
X010081Y008441D01*
X010081Y008382D02*
X010530Y008382D01*
X010531Y008324D02*
X010081Y008324D01*
X010081Y008265D02*
X010532Y008265D01*
X010533Y008207D02*
X010081Y008207D01*
X010081Y008148D02*
X010534Y008148D01*
X010536Y008090D02*
X010081Y008090D01*
X010081Y008031D02*
X010537Y008031D01*
X010538Y007973D02*
X010081Y007973D01*
X010081Y007914D02*
X010539Y007914D01*
X010455Y007856D02*
X010081Y007856D01*
X010081Y007797D02*
X010455Y007797D01*
X010455Y007739D02*
X010081Y007739D01*
X010081Y007680D02*
X010455Y007680D01*
X010455Y007622D02*
X010081Y007622D01*
X010081Y007563D02*
X010455Y007563D01*
X010455Y007505D02*
X010081Y007505D01*
X010081Y007446D02*
X010340Y007446D01*
X010317Y007388D02*
X010081Y007388D01*
X010081Y007329D02*
X010317Y007329D01*
X010317Y007271D02*
X010081Y007271D01*
X010081Y007212D02*
X010317Y007212D01*
X010317Y007154D02*
X010081Y007154D01*
X010081Y007095D02*
X010317Y007095D01*
X010617Y007095D02*
X011520Y007095D01*
X011520Y007037D02*
X010617Y007037D01*
X010602Y006978D02*
X011520Y006978D01*
X011520Y007154D02*
X010617Y007154D01*
X010617Y007212D02*
X011520Y007212D01*
X011520Y007271D02*
X010617Y007271D01*
X010617Y007329D02*
X011519Y007329D01*
X011519Y007388D02*
X010617Y007388D01*
X010604Y007446D02*
X011519Y007446D01*
X011519Y007505D02*
X010605Y007505D01*
X010605Y007563D02*
X011519Y007563D01*
X011519Y007622D02*
X010605Y007622D01*
X010606Y007680D02*
X011519Y007680D01*
X011519Y007739D02*
X010606Y007739D01*
X010715Y007797D02*
X011519Y007797D01*
X011519Y007856D02*
X010715Y007856D01*
X010715Y007914D02*
X011519Y007914D01*
X011519Y007973D02*
X010715Y007973D01*
X010715Y008031D02*
X011519Y008031D01*
X011519Y008090D02*
X010716Y008090D01*
X010716Y008148D02*
X011519Y008148D01*
X011519Y008207D02*
X010716Y008207D01*
X011102Y008265D02*
X011519Y008265D01*
X011293Y008780D02*
X011268Y008783D01*
X009921Y007914D02*
X009492Y007914D01*
X009493Y007856D02*
X009921Y007856D01*
X009921Y007797D02*
X009494Y007797D01*
X009494Y007739D02*
X009921Y007739D01*
X009921Y007680D02*
X009495Y007680D01*
X009496Y007622D02*
X009921Y007622D01*
X009921Y007563D02*
X009497Y007563D01*
X009498Y007505D02*
X009921Y007505D01*
X009921Y007446D02*
X009499Y007446D01*
X009500Y007388D02*
X009921Y007388D01*
X009921Y007329D02*
X009501Y007329D01*
X009502Y007271D02*
X009921Y007271D01*
X009921Y007212D02*
X009503Y007212D01*
X009503Y007154D02*
X009921Y007154D01*
X009921Y007095D02*
X009504Y007095D01*
X009467Y006861D02*
X011122Y006861D01*
X011122Y006803D02*
X009467Y006803D01*
X010601Y006920D02*
X011126Y006920D01*
X011173Y005750D02*
X011206Y005750D01*
X011285Y005615D02*
X011179Y005509D01*
X011058Y005502D01*
X011248Y004837D02*
X010895Y004538D01*
X010722Y004440D01*
X010681Y004418D01*
X010438Y004319D01*
X010343Y004281D01*
X010351Y004261D01*
X010446Y004713D02*
X010749Y004788D01*
X010769Y004781D01*
X010779Y004806D01*
X010796Y004793D01*
X010446Y004713D02*
X009162Y004714D01*
X007766Y004714D01*
X007385Y004309D01*
X006559Y004306D01*
X006298Y004718D01*
X006299Y005474D01*
X005824Y005889D01*
X005821Y006287D01*
X005977Y006403D01*
X006387Y006403D01*
X006608Y006631D01*
X006608Y006849D01*
X006411Y006849D02*
X006411Y006647D01*
X006294Y006529D01*
X005882Y006529D01*
X005684Y006402D01*
X005681Y005830D01*
X006139Y005435D01*
X006139Y005431D01*
X006160Y005410D01*
X006160Y004471D01*
X006112Y004424D01*
X005859Y004527D02*
X006039Y004707D01*
X006039Y005333D01*
X005542Y005795D01*
X005542Y006479D01*
X005820Y006676D01*
X005820Y006849D01*
X005427Y006849D02*
X005427Y006662D01*
X005379Y006614D01*
X004406Y006614D01*
X004397Y006544D01*
X004436Y006849D02*
X004359Y006926D01*
X004436Y006849D02*
X005230Y006849D01*
X004994Y007085D02*
X004586Y007085D01*
X004351Y007306D01*
X006772Y006264D02*
X006837Y006206D01*
X006828Y006354D01*
X007312Y005867D02*
X007314Y005867D01*
X007565Y005300D02*
X007565Y005180D01*
X007819Y004544D02*
X009223Y004544D01*
X009877Y004024D01*
X007819Y004544D02*
X007264Y003990D01*
X006216Y003990D01*
X005859Y004251D01*
X005859Y004527D01*
X008630Y010614D02*
X008944Y010645D01*
D25*
X009115Y009761D03*
X010754Y010038D03*
X010849Y009654D03*
X011293Y008780D03*
X011058Y005093D03*
X010796Y004793D03*
X006330Y007359D03*
X006125Y005965D03*
X006112Y004424D03*
X007003Y010363D03*
D26*
X007084Y010832D03*
X006588Y010640D03*
X006167Y010401D03*
X005750Y010139D03*
X005370Y009795D03*
X005106Y009369D03*
X004816Y008934D03*
X004579Y008442D03*
X004453Y007951D03*
X009397Y003819D03*
X009877Y004024D03*
X010351Y004261D03*
D27*
X007565Y005180D02*
X007242Y004857D01*
X007141Y004857D01*
X007092Y004808D02*
X007092Y004555D01*
X007039Y004502D01*
X006670Y004502D01*
X006492Y004709D01*
X006483Y005971D01*
X006828Y006354D01*
X006772Y006264D02*
X006486Y006002D01*
X006125Y005965D01*
X007680Y009033D02*
X007328Y009446D01*
X007323Y009840D01*
X007058Y010291D01*
X007016Y010422D01*
X007287Y010416D02*
X007673Y009658D01*
X007868Y009656D01*
X007287Y010416D02*
X007084Y010832D01*
X006167Y010401D02*
X006100Y009844D01*
X006141Y009652D02*
X006686Y009652D01*
X008630Y009936D02*
X008630Y010614D01*
X008630Y009936D02*
X008961Y009318D01*
X010562Y009321D01*
X010844Y009645D01*
X010849Y009654D01*
X010754Y010038D02*
X010424Y009568D01*
X009557Y009564D01*
X009311Y009761D01*
X009115Y009761D01*
X010441Y008779D02*
X010306Y008611D01*
X010306Y008199D01*
D28*
X008557Y007556D02*
X008557Y007261D01*
X008457Y007261D01*
X008457Y007607D01*
X008528Y007607D01*
X008528Y007556D01*
X008557Y007556D01*
X008557Y007539D02*
X008457Y007539D01*
X008457Y007440D02*
X008557Y007440D01*
X008557Y007342D02*
X008457Y007342D01*
D29*
X006227Y007841D03*
X005841Y007323D03*
X005480Y008280D03*
D30*
X010441Y008779D02*
X011268Y008783D01*
M02*
