G75*
G70*
%OFA0B0*%
%FSLAX24Y24*%
%IPPOS*%
%LPD*%
%AMOC8*
5,1,8,0,0,1.08239X$1,22.5*
%
%ADD10C,0.0010*%
%ADD11C,0.0080*%
%ADD12C,0.0050*%
%ADD13C,0.0040*%
D10*
X005856Y006063D02*
X005956Y006063D01*
X005981Y006088D01*
X005981Y006138D01*
X005956Y006163D01*
X005981Y006210D02*
X005881Y006310D01*
X005856Y006310D01*
X005831Y006285D01*
X005831Y006235D01*
X005856Y006210D01*
X005856Y006163D02*
X005831Y006138D01*
X005831Y006088D01*
X005856Y006063D01*
X005981Y006210D02*
X005981Y006310D01*
X005956Y006358D02*
X005981Y006383D01*
X005981Y006433D01*
X005956Y006458D01*
X005931Y006458D01*
X005906Y006433D01*
X005906Y006408D01*
X005906Y006433D02*
X005881Y006458D01*
X005856Y006458D01*
X005831Y006433D01*
X005831Y006383D01*
X005856Y006358D01*
X006199Y006402D02*
X006199Y006552D01*
X006275Y006552D01*
X006300Y006527D01*
X006300Y006477D01*
X006275Y006452D01*
X006199Y006452D01*
X006249Y006452D02*
X006300Y006402D01*
X006347Y006402D02*
X006447Y006402D01*
X006397Y006402D02*
X006397Y006552D01*
X006347Y006502D01*
X006494Y006527D02*
X006519Y006552D01*
X006569Y006552D01*
X006594Y006527D01*
X006594Y006502D01*
X006569Y006477D01*
X006594Y006452D01*
X006594Y006427D01*
X006569Y006402D01*
X006519Y006402D01*
X006494Y006427D01*
X006544Y006477D02*
X006569Y006477D01*
X006527Y005709D02*
X006527Y005559D01*
X006477Y005559D02*
X006577Y005559D01*
X006624Y005584D02*
X006649Y005559D01*
X006699Y005559D01*
X006724Y005584D01*
X006724Y005684D01*
X006699Y005709D01*
X006649Y005709D01*
X006624Y005684D01*
X006624Y005659D01*
X006649Y005634D01*
X006724Y005634D01*
X006527Y005709D02*
X006477Y005659D01*
X006430Y005634D02*
X006405Y005609D01*
X006329Y005609D01*
X006329Y005559D02*
X006329Y005709D01*
X006405Y005709D01*
X006430Y005684D01*
X006430Y005634D01*
X006379Y005609D02*
X006430Y005559D01*
X006528Y004138D02*
X006603Y004138D01*
X006628Y004113D01*
X006628Y004063D01*
X006603Y004038D01*
X006528Y004038D01*
X006578Y004038D02*
X006628Y003988D01*
X006675Y003988D02*
X006775Y003988D01*
X006823Y003988D02*
X006823Y004013D01*
X006923Y004113D01*
X006923Y004138D01*
X006823Y004138D01*
X006725Y004138D02*
X006725Y003988D01*
X006675Y004088D02*
X006725Y004138D01*
X006528Y004138D02*
X006528Y003988D01*
X009642Y005049D02*
X009642Y005124D01*
X009667Y005149D01*
X009717Y005149D01*
X009742Y005124D01*
X009742Y005049D01*
X009742Y005099D02*
X009792Y005149D01*
X009792Y005196D02*
X009792Y005296D01*
X009792Y005246D02*
X009642Y005246D01*
X009692Y005196D01*
X009667Y005343D02*
X009642Y005369D01*
X009642Y005419D01*
X009667Y005444D01*
X009767Y005343D01*
X009792Y005369D01*
X009792Y005419D01*
X009767Y005444D01*
X009667Y005444D01*
X009667Y005343D02*
X009767Y005343D01*
X009792Y005049D02*
X009642Y005049D01*
X009635Y005970D02*
X009635Y006046D01*
X009660Y006071D01*
X009710Y006071D01*
X009735Y006046D01*
X009735Y005970D01*
X009785Y005970D02*
X009635Y005970D01*
X009735Y006021D02*
X009785Y006071D01*
X009785Y006118D02*
X009685Y006218D01*
X009660Y006218D01*
X009635Y006193D01*
X009635Y006143D01*
X009660Y006118D01*
X009785Y006118D02*
X009785Y006218D01*
X009785Y006265D02*
X009785Y006365D01*
X009785Y006315D02*
X009635Y006315D01*
X009685Y006265D01*
X010472Y006662D02*
X010472Y006812D01*
X010547Y006812D01*
X010572Y006787D01*
X010572Y006737D01*
X010547Y006712D01*
X010472Y006712D01*
X010522Y006712D02*
X010572Y006662D01*
X010619Y006687D02*
X010644Y006662D01*
X010695Y006662D01*
X010720Y006687D01*
X010720Y006787D01*
X010695Y006812D01*
X010644Y006812D01*
X010619Y006787D01*
X010619Y006762D01*
X010644Y006737D01*
X010720Y006737D01*
X011641Y006095D02*
X011666Y006120D01*
X011717Y006120D01*
X011742Y006095D01*
X011742Y005995D01*
X011717Y005970D01*
X011666Y005970D01*
X011641Y005995D01*
X011641Y006095D01*
X011691Y006020D02*
X011742Y005970D01*
X011789Y005970D02*
X011889Y005970D01*
X011839Y005970D02*
X011839Y006120D01*
X011789Y006070D01*
X011798Y006315D02*
X011948Y006315D01*
X011898Y006315D02*
X011798Y006415D01*
X011848Y006463D02*
X011923Y006463D01*
X011948Y006488D01*
X011948Y006563D01*
X011973Y006563D02*
X011998Y006538D01*
X011998Y006513D01*
X011973Y006563D02*
X011848Y006563D01*
X011798Y006610D02*
X011798Y006635D01*
X011948Y006635D01*
X011948Y006610D02*
X011948Y006660D01*
X011923Y006708D02*
X011873Y006708D01*
X011848Y006733D01*
X011848Y006783D01*
X011873Y006808D01*
X011898Y006808D01*
X011898Y006708D01*
X011923Y006708D02*
X011948Y006733D01*
X011948Y006783D01*
X011948Y007003D02*
X011798Y007003D01*
X011873Y007003D02*
X011873Y007103D01*
X011923Y007150D02*
X011898Y007175D01*
X011898Y007250D01*
X011873Y007250D02*
X011948Y007250D01*
X011948Y007175D01*
X011923Y007150D01*
X011948Y007103D02*
X011798Y007103D01*
X011848Y007175D02*
X011848Y007225D01*
X011873Y007250D01*
X011873Y007297D02*
X011923Y007297D01*
X011948Y007322D01*
X011948Y007398D01*
X011973Y007398D02*
X011848Y007398D01*
X011848Y007322D01*
X011873Y007297D01*
X011998Y007348D02*
X011998Y007373D01*
X011973Y007398D01*
X011948Y007445D02*
X011948Y007495D01*
X011948Y007470D02*
X011848Y007470D01*
X011848Y007445D01*
X011798Y007470D02*
X011773Y007470D01*
X011848Y007543D02*
X011848Y007618D01*
X011873Y007643D01*
X011948Y007643D01*
X011948Y007543D02*
X011848Y007543D01*
X011823Y007838D02*
X011798Y007863D01*
X011798Y007913D01*
X011823Y007938D01*
X011848Y007938D01*
X011948Y007838D01*
X011948Y007938D01*
X011923Y007985D02*
X011823Y008085D01*
X011923Y008085D01*
X011948Y008060D01*
X011948Y008010D01*
X011923Y007985D01*
X011823Y007985D01*
X011798Y008010D01*
X011798Y008060D01*
X011823Y008085D01*
X011848Y008132D02*
X011798Y008182D01*
X011948Y008182D01*
X011948Y008132D02*
X011948Y008232D01*
X011923Y008280D02*
X011948Y008305D01*
X011948Y008355D01*
X011923Y008380D01*
X011873Y008380D01*
X011848Y008355D01*
X011848Y008330D01*
X011873Y008280D01*
X011798Y008280D01*
X011798Y008380D01*
X011948Y006415D02*
X011873Y006340D01*
X008872Y007496D02*
X008772Y007496D01*
X008822Y007496D02*
X008822Y007646D01*
X008772Y007596D01*
X008725Y007621D02*
X008700Y007646D01*
X008650Y007646D01*
X008625Y007621D01*
X008625Y007596D01*
X008650Y007571D01*
X008700Y007571D01*
X008725Y007546D01*
X008725Y007521D01*
X008700Y007496D01*
X008650Y007496D01*
X008625Y007521D01*
X008578Y007521D02*
X008578Y007646D01*
X008478Y007646D02*
X008478Y007521D01*
X008503Y007496D01*
X008553Y007496D01*
X008578Y007521D01*
X008675Y007471D02*
X008675Y007671D01*
X007786Y007762D02*
X007686Y007762D01*
X007786Y007862D01*
X007786Y007887D01*
X007761Y007912D01*
X007711Y007912D01*
X007686Y007887D01*
X007639Y007887D02*
X007614Y007912D01*
X007564Y007912D01*
X007539Y007887D01*
X007539Y007862D01*
X007564Y007837D01*
X007614Y007837D01*
X007639Y007812D01*
X007639Y007787D01*
X007614Y007762D01*
X007564Y007762D01*
X007539Y007787D01*
X007491Y007787D02*
X007491Y007912D01*
X007391Y007912D02*
X007391Y007787D01*
X007416Y007762D01*
X007466Y007762D01*
X007491Y007787D01*
X007589Y007737D02*
X007589Y007938D01*
X005571Y008956D02*
X005471Y008956D01*
X005521Y008956D02*
X005521Y009106D01*
X005471Y009056D01*
X005424Y009031D02*
X005424Y008981D01*
X005399Y008956D01*
X005349Y008956D01*
X005324Y008981D01*
X005324Y009031D02*
X005374Y009056D01*
X005399Y009056D01*
X005424Y009031D01*
X005424Y009106D02*
X005324Y009106D01*
X005324Y009031D01*
X005276Y009031D02*
X005251Y009006D01*
X005176Y009006D01*
X005176Y008956D02*
X005176Y009106D01*
X005251Y009106D01*
X005276Y009081D01*
X005276Y009031D01*
X005226Y009006D02*
X005276Y008956D01*
X005236Y008658D02*
X005236Y008583D01*
X005286Y008608D01*
X005311Y008608D01*
X005336Y008583D01*
X005336Y008533D01*
X005311Y008508D01*
X005261Y008508D01*
X005236Y008533D01*
X005189Y008508D02*
X005139Y008558D01*
X005164Y008558D02*
X005089Y008558D01*
X005089Y008508D02*
X005089Y008658D01*
X005164Y008658D01*
X005189Y008633D01*
X005189Y008583D01*
X005164Y008558D01*
X005236Y008658D02*
X005336Y008658D01*
X005383Y008633D02*
X005408Y008658D01*
X005458Y008658D01*
X005483Y008633D01*
X005383Y008533D01*
X005408Y008508D01*
X005458Y008508D01*
X005483Y008533D01*
X005483Y008633D01*
X005383Y008633D02*
X005383Y008533D01*
D11*
X004033Y007243D02*
X004038Y007446D01*
X004053Y007648D01*
X004078Y007850D01*
X004112Y008050D01*
X004157Y008247D01*
X004211Y008443D01*
X004275Y008636D01*
X004348Y008825D01*
X004430Y009011D01*
X004521Y009192D01*
X004621Y009368D01*
X004730Y009540D01*
X004847Y009706D01*
X004971Y009866D01*
X005104Y010019D01*
X005244Y010166D01*
X005391Y010306D01*
X005544Y010439D01*
X005704Y010563D01*
X005870Y010680D01*
X006042Y010789D01*
X006218Y010889D01*
X006399Y010980D01*
X006585Y011062D01*
X006774Y011135D01*
X006967Y011199D01*
X007163Y011253D01*
X007360Y011298D01*
X007560Y011332D01*
X007762Y011357D01*
X007964Y011372D01*
X008167Y011377D01*
X008370Y011372D01*
X008572Y011357D01*
X008774Y011332D01*
X008974Y011298D01*
X009171Y011253D01*
X009367Y011199D01*
X009560Y011135D01*
X009749Y011062D01*
X009935Y010980D01*
X010116Y010889D01*
X010292Y010789D01*
X010464Y010680D01*
X010630Y010563D01*
X010790Y010439D01*
X010943Y010306D01*
X011090Y010166D01*
X011230Y010019D01*
X011363Y009866D01*
X011487Y009706D01*
X011604Y009540D01*
X011713Y009368D01*
X011813Y009192D01*
X011904Y009011D01*
X011986Y008825D01*
X012059Y008636D01*
X012123Y008443D01*
X012177Y008247D01*
X012222Y008050D01*
X012256Y007850D01*
X012281Y007648D01*
X012296Y007446D01*
X012301Y007243D01*
X012296Y007040D01*
X012281Y006838D01*
X012256Y006636D01*
X012222Y006436D01*
X012177Y006239D01*
X012123Y006043D01*
X012059Y005850D01*
X011986Y005661D01*
X011904Y005475D01*
X011813Y005294D01*
X011713Y005118D01*
X011604Y004946D01*
X011487Y004780D01*
X011363Y004620D01*
X011230Y004467D01*
X011090Y004320D01*
X010943Y004180D01*
X010790Y004047D01*
X010630Y003923D01*
X010464Y003806D01*
X010292Y003697D01*
X010116Y003597D01*
X009935Y003506D01*
X009749Y003424D01*
X009560Y003351D01*
X009367Y003287D01*
X009171Y003233D01*
X008974Y003188D01*
X008774Y003154D01*
X008572Y003129D01*
X008370Y003114D01*
X008167Y003109D01*
X007964Y003114D01*
X007762Y003129D01*
X007560Y003154D01*
X007360Y003188D01*
X007163Y003233D01*
X006967Y003287D01*
X006774Y003351D01*
X006585Y003424D01*
X006399Y003506D01*
X006218Y003597D01*
X006042Y003697D01*
X005870Y003806D01*
X005704Y003923D01*
X005544Y004047D01*
X005391Y004180D01*
X005244Y004320D01*
X005104Y004467D01*
X004971Y004620D01*
X004847Y004780D01*
X004730Y004946D01*
X004621Y005118D01*
X004521Y005294D01*
X004430Y005475D01*
X004348Y005661D01*
X004275Y005850D01*
X004211Y006043D01*
X004157Y006239D01*
X004112Y006436D01*
X004078Y006636D01*
X004053Y006838D01*
X004038Y007040D01*
X004033Y007243D01*
D12*
X004379Y006050D02*
X004381Y006094D01*
X004387Y006138D01*
X004397Y006181D01*
X004410Y006223D01*
X004427Y006264D01*
X004448Y006303D01*
X004472Y006340D01*
X004499Y006375D01*
X004529Y006407D01*
X004562Y006437D01*
X004598Y006463D01*
X004635Y006487D01*
X004675Y006506D01*
X004716Y006523D01*
X004759Y006535D01*
X004802Y006544D01*
X004846Y006549D01*
X004890Y006550D01*
X004934Y006547D01*
X004978Y006540D01*
X005021Y006529D01*
X005063Y006515D01*
X005103Y006497D01*
X005142Y006475D01*
X005178Y006451D01*
X005212Y006423D01*
X005244Y006392D01*
X005273Y006358D01*
X005299Y006322D01*
X005321Y006284D01*
X005340Y006244D01*
X005355Y006202D01*
X005367Y006160D01*
X005375Y006116D01*
X005379Y006072D01*
X005379Y006028D01*
X005375Y005984D01*
X005367Y005940D01*
X005355Y005898D01*
X005340Y005856D01*
X005321Y005816D01*
X005299Y005778D01*
X005273Y005742D01*
X005244Y005708D01*
X005212Y005677D01*
X005178Y005649D01*
X005142Y005625D01*
X005103Y005603D01*
X005063Y005585D01*
X005021Y005571D01*
X004978Y005560D01*
X004934Y005553D01*
X004890Y005550D01*
X004846Y005551D01*
X004802Y005556D01*
X004759Y005565D01*
X004716Y005577D01*
X004675Y005594D01*
X004635Y005613D01*
X004598Y005637D01*
X004562Y005663D01*
X004529Y005693D01*
X004499Y005725D01*
X004472Y005760D01*
X004448Y005797D01*
X004427Y005836D01*
X004410Y005877D01*
X004397Y005919D01*
X004387Y005962D01*
X004381Y006006D01*
X004379Y006050D01*
X007649Y003754D02*
X007651Y003798D01*
X007657Y003842D01*
X007667Y003885D01*
X007680Y003927D01*
X007697Y003968D01*
X007718Y004007D01*
X007742Y004044D01*
X007769Y004079D01*
X007799Y004111D01*
X007832Y004141D01*
X007868Y004167D01*
X007905Y004191D01*
X007945Y004210D01*
X007986Y004227D01*
X008029Y004239D01*
X008072Y004248D01*
X008116Y004253D01*
X008160Y004254D01*
X008204Y004251D01*
X008248Y004244D01*
X008291Y004233D01*
X008333Y004219D01*
X008373Y004201D01*
X008412Y004179D01*
X008448Y004155D01*
X008482Y004127D01*
X008514Y004096D01*
X008543Y004062D01*
X008569Y004026D01*
X008591Y003988D01*
X008610Y003948D01*
X008625Y003906D01*
X008637Y003864D01*
X008645Y003820D01*
X008649Y003776D01*
X008649Y003732D01*
X008645Y003688D01*
X008637Y003644D01*
X008625Y003602D01*
X008610Y003560D01*
X008591Y003520D01*
X008569Y003482D01*
X008543Y003446D01*
X008514Y003412D01*
X008482Y003381D01*
X008448Y003353D01*
X008412Y003329D01*
X008373Y003307D01*
X008333Y003289D01*
X008291Y003275D01*
X008248Y003264D01*
X008204Y003257D01*
X008160Y003254D01*
X008116Y003255D01*
X008072Y003260D01*
X008029Y003269D01*
X007986Y003281D01*
X007945Y003298D01*
X007905Y003317D01*
X007868Y003341D01*
X007832Y003367D01*
X007799Y003397D01*
X007769Y003429D01*
X007742Y003464D01*
X007718Y003501D01*
X007697Y003540D01*
X007680Y003581D01*
X007667Y003623D01*
X007657Y003666D01*
X007651Y003710D01*
X007649Y003754D01*
X009495Y010223D02*
X009497Y010267D01*
X009503Y010311D01*
X009513Y010354D01*
X009526Y010396D01*
X009543Y010437D01*
X009564Y010476D01*
X009588Y010513D01*
X009615Y010548D01*
X009645Y010580D01*
X009678Y010610D01*
X009714Y010636D01*
X009751Y010660D01*
X009791Y010679D01*
X009832Y010696D01*
X009875Y010708D01*
X009918Y010717D01*
X009962Y010722D01*
X010006Y010723D01*
X010050Y010720D01*
X010094Y010713D01*
X010137Y010702D01*
X010179Y010688D01*
X010219Y010670D01*
X010258Y010648D01*
X010294Y010624D01*
X010328Y010596D01*
X010360Y010565D01*
X010389Y010531D01*
X010415Y010495D01*
X010437Y010457D01*
X010456Y010417D01*
X010471Y010375D01*
X010483Y010333D01*
X010491Y010289D01*
X010495Y010245D01*
X010495Y010201D01*
X010491Y010157D01*
X010483Y010113D01*
X010471Y010071D01*
X010456Y010029D01*
X010437Y009989D01*
X010415Y009951D01*
X010389Y009915D01*
X010360Y009881D01*
X010328Y009850D01*
X010294Y009822D01*
X010258Y009798D01*
X010219Y009776D01*
X010179Y009758D01*
X010137Y009744D01*
X010094Y009733D01*
X010050Y009726D01*
X010006Y009723D01*
X009962Y009724D01*
X009918Y009729D01*
X009875Y009738D01*
X009832Y009750D01*
X009791Y009767D01*
X009751Y009786D01*
X009714Y009810D01*
X009678Y009836D01*
X009645Y009866D01*
X009615Y009898D01*
X009588Y009933D01*
X009564Y009970D01*
X009543Y010009D01*
X009526Y010050D01*
X009513Y010092D01*
X009503Y010135D01*
X009497Y010179D01*
X009495Y010223D01*
X008444Y010645D02*
X008446Y010689D01*
X008452Y010733D01*
X008462Y010776D01*
X008475Y010818D01*
X008492Y010859D01*
X008513Y010898D01*
X008537Y010935D01*
X008564Y010970D01*
X008594Y011002D01*
X008627Y011032D01*
X008663Y011058D01*
X008700Y011082D01*
X008740Y011101D01*
X008781Y011118D01*
X008824Y011130D01*
X008867Y011139D01*
X008911Y011144D01*
X008955Y011145D01*
X008999Y011142D01*
X009043Y011135D01*
X009086Y011124D01*
X009128Y011110D01*
X009168Y011092D01*
X009207Y011070D01*
X009243Y011046D01*
X009277Y011018D01*
X009309Y010987D01*
X009338Y010953D01*
X009364Y010917D01*
X009386Y010879D01*
X009405Y010839D01*
X009420Y010797D01*
X009432Y010755D01*
X009440Y010711D01*
X009444Y010667D01*
X009444Y010623D01*
X009440Y010579D01*
X009432Y010535D01*
X009420Y010493D01*
X009405Y010451D01*
X009386Y010411D01*
X009364Y010373D01*
X009338Y010337D01*
X009309Y010303D01*
X009277Y010272D01*
X009243Y010244D01*
X009207Y010220D01*
X009168Y010198D01*
X009128Y010180D01*
X009086Y010166D01*
X009043Y010155D01*
X008999Y010148D01*
X008955Y010145D01*
X008911Y010146D01*
X008867Y010151D01*
X008824Y010160D01*
X008781Y010172D01*
X008740Y010189D01*
X008700Y010208D01*
X008663Y010232D01*
X008627Y010258D01*
X008594Y010288D01*
X008564Y010320D01*
X008537Y010355D01*
X008513Y010392D01*
X008492Y010431D01*
X008475Y010472D01*
X008462Y010514D01*
X008452Y010557D01*
X008446Y010601D01*
X008444Y010645D01*
X007352Y010722D02*
X007354Y010766D01*
X007360Y010810D01*
X007370Y010853D01*
X007383Y010895D01*
X007400Y010936D01*
X007421Y010975D01*
X007445Y011012D01*
X007472Y011047D01*
X007502Y011079D01*
X007535Y011109D01*
X007571Y011135D01*
X007608Y011159D01*
X007648Y011178D01*
X007689Y011195D01*
X007732Y011207D01*
X007775Y011216D01*
X007819Y011221D01*
X007863Y011222D01*
X007907Y011219D01*
X007951Y011212D01*
X007994Y011201D01*
X008036Y011187D01*
X008076Y011169D01*
X008115Y011147D01*
X008151Y011123D01*
X008185Y011095D01*
X008217Y011064D01*
X008246Y011030D01*
X008272Y010994D01*
X008294Y010956D01*
X008313Y010916D01*
X008328Y010874D01*
X008340Y010832D01*
X008348Y010788D01*
X008352Y010744D01*
X008352Y010700D01*
X008348Y010656D01*
X008340Y010612D01*
X008328Y010570D01*
X008313Y010528D01*
X008294Y010488D01*
X008272Y010450D01*
X008246Y010414D01*
X008217Y010380D01*
X008185Y010349D01*
X008151Y010321D01*
X008115Y010297D01*
X008076Y010275D01*
X008036Y010257D01*
X007994Y010243D01*
X007951Y010232D01*
X007907Y010225D01*
X007863Y010222D01*
X007819Y010223D01*
X007775Y010228D01*
X007732Y010237D01*
X007689Y010249D01*
X007648Y010266D01*
X007608Y010285D01*
X007571Y010309D01*
X007535Y010335D01*
X007502Y010365D01*
X007472Y010397D01*
X007445Y010432D01*
X007421Y010469D01*
X007400Y010508D01*
X007383Y010549D01*
X007370Y010591D01*
X007360Y010634D01*
X007354Y010678D01*
X007352Y010722D01*
D13*
X005220Y007135D02*
X005220Y006828D01*
X005220Y006675D02*
X005067Y006521D01*
X005067Y006598D02*
X005067Y006368D01*
X005220Y006368D02*
X004760Y006368D01*
X004760Y006598D01*
X004837Y006675D01*
X004990Y006675D01*
X005067Y006598D01*
X004913Y006828D02*
X004760Y006982D01*
X005220Y006982D01*
M02*
