G75*
G70*
%OFA0B0*%
%FSLAX24Y24*%
%IPPOS*%
%LPD*%
%AMOC8*
5,1,8,0,0,1.08239X$1,22.5*
%
%ADD10R,0.0580X0.0320*%
%ADD11R,0.1860X0.1820*%
%ADD12R,0.0356X0.0434*%
%ADD13R,0.0434X0.0356*%
%ADD14C,0.1025*%
%ADD15R,0.0789X0.1340*%
%ADD16R,0.0375X0.0592*%
%ADD17R,0.1970X0.1930*%
%ADD18R,0.0592X0.0375*%
%ADD19R,0.1930X0.1970*%
%ADD20R,0.0631X0.0474*%
%ADD21C,0.0360*%
%ADD22C,0.0493*%
D10*
X007212Y004843D03*
X007212Y005343D03*
X007212Y005843D03*
X007212Y006343D03*
D11*
X008674Y005593D03*
D12*
X007019Y004435D03*
X006508Y004435D03*
X006161Y006363D03*
X005649Y006363D03*
X010461Y006407D03*
X010973Y006407D03*
D13*
X010003Y006450D03*
X010003Y005938D03*
X010003Y005556D03*
X010003Y005044D03*
X006565Y004824D03*
X006565Y005336D03*
X004490Y006763D03*
X004490Y007274D03*
X005854Y008230D03*
X005854Y008741D03*
X005839Y009084D03*
X005839Y009595D03*
D14*
X005416Y005073D03*
X004879Y006050D03*
X008149Y003754D03*
X009995Y010223D03*
X008944Y010645D03*
X007852Y010722D03*
D15*
X007468Y007295D03*
X005263Y007295D03*
D16*
X009261Y006925D03*
X009761Y006925D03*
X010261Y006925D03*
X010761Y006925D03*
X010761Y009150D03*
X010261Y009150D03*
X009761Y009150D03*
X009261Y009150D03*
D17*
X010011Y008323D03*
D18*
X008642Y008248D03*
X008642Y008748D03*
X008642Y009248D03*
X008642Y009748D03*
X006417Y009748D03*
X006417Y009248D03*
X006417Y008748D03*
X006417Y008248D03*
D19*
X007244Y008998D03*
D20*
X010541Y005946D03*
X010541Y005197D03*
X011407Y005572D03*
D21*
X011058Y005093D03*
X010796Y004793D03*
X011293Y008780D03*
X010849Y009654D03*
X010754Y010038D03*
X009115Y009761D03*
X007003Y010363D03*
X006330Y007359D03*
X006125Y005965D03*
X006112Y004424D03*
D22*
X009397Y003819D03*
X009877Y004024D03*
X010351Y004261D03*
X005106Y009369D03*
X004816Y008934D03*
X004579Y008442D03*
X004453Y007951D03*
X005370Y009795D03*
X005750Y010139D03*
X006167Y010401D03*
X006588Y010640D03*
X007084Y010832D03*
M02*
